%
M48
M72
T01C0.0157
T02C0.0236
T03C0.0315
T04C0.0354
T05C0.0394
T06C0.0512
T07C0.0787
T08C0.0906
T09C0.1024
T10C0.1654
%
T01
X28566Y22166
X28191Y22166
X27816Y22541
X27441Y22541
X27441Y24916
X27816Y24916
X28191Y24916
X28566Y24916
X26316Y24666
X26441Y25916
X26316Y26666
X24941Y26791
X24566Y26791
X24191Y26791
X23816Y26853
X23503Y26541
X23691Y26228
X22566Y25166
X22691Y24791
X23066Y24666
X23441Y24666
X21941Y24791
X21816Y25916
X21816Y26291
X19566Y24541
X19191Y24166
X16941Y24166
X16816Y24541
X12441Y24291
X11566Y24416
X16816Y16291
X17066Y15541
X20816Y15291
X21316Y16416
X24941Y24666
X25066Y27666
X24566Y29166
X24066Y30416
X27566Y28166
X29066Y28791
T02
X23566Y15416
X23066Y15416
X22566Y15416
X20941Y14416
X20816Y16166
X20816Y16666
X20816Y17166
X20316Y17166
X19816Y17166
X19779Y18599
X19279Y18599
X18779Y18599
X18279Y18599
X17779Y18599
X17279Y18599
X16779Y18599
X16279Y18599
X15779Y18599
X16316Y17666
X16816Y17916
X17816Y17916
X16691Y19416
X16691Y20041
X18191Y20541
X19191Y20541
X20191Y20541
X21191Y20541
X21191Y21666
X20191Y21666
X19191Y21666
X18191Y21666
X19441Y23791
X21191Y24291
X19816Y26791
X18441Y27166
X18441Y26416
X16941Y27541
X16941Y28041
X16941Y28541
X16316Y28041
X16316Y27541
X15691Y27541
X15691Y28041
X14691Y27791
X14066Y27791
X14066Y27291
X14691Y27291
X13441Y27291
X11066Y27291
X11066Y26791
X11066Y26291
X11066Y25791
X10441Y25541
X10441Y25041
X11066Y25291
X11066Y24791
X8941Y24791
X8441Y24791
X7941Y24791
X7441Y24791
X8441Y27666
X8816Y27666
X9191Y27666
X8816Y28666
X8816Y29166
X11066Y29291
X11066Y28791
X11066Y28291
X11066Y27791
X16191Y23916
X21691Y27291
X23066Y27166
X23066Y26603
X26441Y27416
X26941Y25541
X28441Y26791
X28816Y27166
X28816Y27666
X31066Y28041
X31066Y28541
X31691Y28791
X31691Y29291
X31941Y27791
X31941Y27291
X31191Y26916
X31191Y26416
X32316Y25916
X32816Y25916
X31941Y24666
X32191Y23791
X31066Y22041
X30566Y22041
X28941Y21666
X28941Y21166
X25441Y23041
X25441Y23541
X24941Y23541
X24191Y23541
X21779Y18599
X21279Y18599
X20779Y18599
X20279Y18599
X18941Y14041
X19691Y12416
X20191Y12416
X20691Y12416
X21191Y12416
X21691Y12416
X23066Y11291
X23066Y10791
X21941Y10541
X21941Y9666
X20441Y10666
X19941Y10666
X19441Y10666
X18191Y10666
X17691Y10666
X17191Y10666
X15691Y10541
X15691Y9666
X14566Y10791
X14566Y11291
X15941Y12416
X16441Y12416
X16941Y12416
X17441Y12416
X17941Y12416
X16941Y13916
X15066Y15416
X14566Y15416
X14066Y15416
X13066Y17916
X12566Y17916
X12066Y17916
X13691Y19041
X14691Y18791
X9441Y18541
X9441Y18041
X5566Y29166
X5066Y29166
X18316Y31416
X18816Y31416
X19066Y31041
X19066Y30541
X19816Y29291
X20441Y29291
X20441Y29791
X22316Y31416
X22816Y31416
X23066Y30916
X28691Y33041
X29441Y33041
X31191Y32041
X31191Y31541
X31191Y31041
X33316Y29291
X33816Y29291
X34066Y28291
X34066Y27791
X34441Y26666
X34441Y26166
X34441Y25666
X34441Y25166
X30441Y25166
T03
X9380Y34364
X8002Y34364
T04
X6066Y13916
X6066Y16916
T05
X31941Y9916
X30941Y9916
X29941Y9916
X26653Y9972
X26653Y9972
X25669Y9972
X25669Y9972
X24685Y9972
X24685Y9972
X24685Y12433
X26653Y12433
X26653Y15681
X24685Y15681
X31836Y15799
X32624Y15799
X32624Y16783
X31836Y16783
X32941Y21916
X33941Y21916
X34941Y21916
X35941Y21916
X36941Y21916
X36441Y25791
X36441Y26791
X35441Y26791
X35441Y25791
X35441Y27791
X36441Y27791
X36441Y28791
X35441Y28791
X35441Y29791
X36441Y29791
X32066Y34166
X31066Y34166
X30066Y34166
X29066Y34166
X28066Y34166
X27066Y34166
X12874Y15681
X10905Y15681
X10905Y12433
X12874Y12433
X12874Y9972
X12874Y9972
X11889Y9972
X11889Y9972
X10905Y9972
X10905Y9972
T06
X21816Y34666
X19816Y34666
X17816Y34666
X15816Y34666
X13816Y34666
X11816Y34666
T07
X3425Y22379
X3425Y28284
T08
X33691Y13921
X33691Y18661
T09
X27913Y12925
X23425Y12925
X14134Y12925
X9645Y12925
T10
X35905Y10759
X35905Y34381
X4409Y34381
X4409Y10759
M30
