G75*
%MOIN*%
%OFA0B0*%
%FSLAX25Y25*%
%IPPOS*%
%LPD*%
%AMOC8*
5,1,8,0,0,1.08239X$1,22.5*
%
%ADD10C,0.00400*%
%ADD11R,0.06693X0.06693*%
%ADD12R,0.14961X0.14961*%
%ADD13C,0.06299*%
%ADD14C,0.13055*%
%ADD15C,0.05906*%
%ADD16C,0.03962*%
%ADD17C,0.11811*%
%ADD18OC8,0.05906*%
%ADD19OC8,0.07087*%
%ADD20C,0.07677*%
%ADD21C,0.00787*%
%ADD22C,0.31496*%
%ADD23C,0.03562*%
%ADD24C,0.02400*%
%ADD25C,0.02775*%
%ADD26C,0.01200*%
%ADD27C,0.01600*%
D10*
X0009268Y0087909D02*
X0347850Y0087909D01*
X0348040Y0087911D01*
X0348230Y0087918D01*
X0348420Y0087930D01*
X0348610Y0087946D01*
X0348799Y0087966D01*
X0348988Y0087992D01*
X0349176Y0088021D01*
X0349363Y0088056D01*
X0349549Y0088095D01*
X0349734Y0088138D01*
X0349919Y0088186D01*
X0350102Y0088238D01*
X0350283Y0088294D01*
X0350463Y0088355D01*
X0350642Y0088421D01*
X0350819Y0088490D01*
X0350995Y0088564D01*
X0351168Y0088642D01*
X0351340Y0088725D01*
X0351509Y0088811D01*
X0351677Y0088901D01*
X0351842Y0088996D01*
X0352005Y0089094D01*
X0352165Y0089197D01*
X0352323Y0089303D01*
X0352478Y0089413D01*
X0352631Y0089526D01*
X0352781Y0089644D01*
X0352927Y0089765D01*
X0353071Y0089889D01*
X0353212Y0090017D01*
X0353350Y0090148D01*
X0353485Y0090283D01*
X0353616Y0090421D01*
X0353744Y0090562D01*
X0353868Y0090706D01*
X0353989Y0090852D01*
X0354107Y0091002D01*
X0354220Y0091155D01*
X0354330Y0091310D01*
X0354436Y0091468D01*
X0354539Y0091628D01*
X0354637Y0091791D01*
X0354732Y0091956D01*
X0354822Y0092124D01*
X0354908Y0092293D01*
X0354991Y0092465D01*
X0355069Y0092638D01*
X0355143Y0092814D01*
X0355212Y0092991D01*
X0355278Y0093170D01*
X0355339Y0093350D01*
X0355395Y0093531D01*
X0355447Y0093714D01*
X0355495Y0093899D01*
X0355538Y0094084D01*
X0355577Y0094270D01*
X0355612Y0094457D01*
X0355641Y0094645D01*
X0355667Y0094834D01*
X0355687Y0095023D01*
X0355703Y0095213D01*
X0355715Y0095403D01*
X0355722Y0095593D01*
X0355724Y0095783D01*
X0355724Y0355626D01*
X0355722Y0355816D01*
X0355715Y0356006D01*
X0355703Y0356196D01*
X0355687Y0356386D01*
X0355667Y0356575D01*
X0355641Y0356764D01*
X0355612Y0356952D01*
X0355577Y0357139D01*
X0355538Y0357325D01*
X0355495Y0357510D01*
X0355447Y0357695D01*
X0355395Y0357878D01*
X0355339Y0358059D01*
X0355278Y0358239D01*
X0355212Y0358418D01*
X0355143Y0358595D01*
X0355069Y0358771D01*
X0354991Y0358944D01*
X0354908Y0359116D01*
X0354822Y0359285D01*
X0354732Y0359453D01*
X0354637Y0359618D01*
X0354539Y0359781D01*
X0354436Y0359941D01*
X0354330Y0360099D01*
X0354220Y0360254D01*
X0354107Y0360407D01*
X0353989Y0360557D01*
X0353868Y0360703D01*
X0353744Y0360847D01*
X0353616Y0360988D01*
X0353485Y0361126D01*
X0353350Y0361261D01*
X0353212Y0361392D01*
X0353071Y0361520D01*
X0352927Y0361644D01*
X0352781Y0361765D01*
X0352631Y0361883D01*
X0352478Y0361996D01*
X0352323Y0362106D01*
X0352165Y0362212D01*
X0352005Y0362315D01*
X0351842Y0362413D01*
X0351677Y0362508D01*
X0351509Y0362598D01*
X0351340Y0362684D01*
X0351168Y0362767D01*
X0350995Y0362845D01*
X0350819Y0362919D01*
X0350642Y0362988D01*
X0350463Y0363054D01*
X0350283Y0363115D01*
X0350102Y0363171D01*
X0349919Y0363223D01*
X0349734Y0363271D01*
X0349549Y0363314D01*
X0349363Y0363353D01*
X0349176Y0363388D01*
X0348988Y0363417D01*
X0348799Y0363443D01*
X0348610Y0363463D01*
X0348420Y0363479D01*
X0348230Y0363491D01*
X0348040Y0363498D01*
X0347850Y0363500D01*
X0009268Y0363500D01*
X0009078Y0363498D01*
X0008888Y0363491D01*
X0008698Y0363479D01*
X0008508Y0363463D01*
X0008319Y0363443D01*
X0008130Y0363417D01*
X0007942Y0363388D01*
X0007755Y0363353D01*
X0007569Y0363314D01*
X0007384Y0363271D01*
X0007199Y0363223D01*
X0007016Y0363171D01*
X0006835Y0363115D01*
X0006655Y0363054D01*
X0006476Y0362988D01*
X0006299Y0362919D01*
X0006123Y0362845D01*
X0005950Y0362767D01*
X0005778Y0362684D01*
X0005609Y0362598D01*
X0005441Y0362508D01*
X0005276Y0362413D01*
X0005113Y0362315D01*
X0004953Y0362212D01*
X0004795Y0362106D01*
X0004640Y0361996D01*
X0004487Y0361883D01*
X0004337Y0361765D01*
X0004191Y0361644D01*
X0004047Y0361520D01*
X0003906Y0361392D01*
X0003768Y0361261D01*
X0003633Y0361126D01*
X0003502Y0360988D01*
X0003374Y0360847D01*
X0003250Y0360703D01*
X0003129Y0360557D01*
X0003011Y0360407D01*
X0002898Y0360254D01*
X0002788Y0360099D01*
X0002682Y0359941D01*
X0002579Y0359781D01*
X0002481Y0359618D01*
X0002386Y0359453D01*
X0002296Y0359285D01*
X0002210Y0359116D01*
X0002127Y0358944D01*
X0002049Y0358771D01*
X0001975Y0358595D01*
X0001906Y0358418D01*
X0001840Y0358239D01*
X0001779Y0358059D01*
X0001723Y0357878D01*
X0001671Y0357695D01*
X0001623Y0357510D01*
X0001580Y0357325D01*
X0001541Y0357139D01*
X0001506Y0356952D01*
X0001477Y0356764D01*
X0001451Y0356575D01*
X0001431Y0356386D01*
X0001415Y0356196D01*
X0001403Y0356006D01*
X0001396Y0355816D01*
X0001394Y0355626D01*
X0001394Y0095783D01*
X0001396Y0095593D01*
X0001403Y0095403D01*
X0001415Y0095213D01*
X0001431Y0095023D01*
X0001451Y0094834D01*
X0001477Y0094645D01*
X0001506Y0094457D01*
X0001541Y0094270D01*
X0001580Y0094084D01*
X0001623Y0093899D01*
X0001671Y0093714D01*
X0001723Y0093531D01*
X0001779Y0093350D01*
X0001840Y0093170D01*
X0001906Y0092991D01*
X0001975Y0092814D01*
X0002049Y0092638D01*
X0002127Y0092465D01*
X0002210Y0092293D01*
X0002296Y0092124D01*
X0002386Y0091956D01*
X0002481Y0091791D01*
X0002579Y0091628D01*
X0002682Y0091468D01*
X0002788Y0091310D01*
X0002898Y0091155D01*
X0003011Y0091002D01*
X0003129Y0090852D01*
X0003250Y0090706D01*
X0003374Y0090562D01*
X0003502Y0090421D01*
X0003633Y0090283D01*
X0003768Y0090148D01*
X0003906Y0090017D01*
X0004047Y0089889D01*
X0004191Y0089765D01*
X0004337Y0089644D01*
X0004487Y0089526D01*
X0004640Y0089413D01*
X0004795Y0089303D01*
X0004953Y0089197D01*
X0005113Y0089094D01*
X0005276Y0088996D01*
X0005441Y0088901D01*
X0005609Y0088811D01*
X0005778Y0088725D01*
X0005950Y0088642D01*
X0006123Y0088564D01*
X0006299Y0088490D01*
X0006476Y0088421D01*
X0006655Y0088355D01*
X0006835Y0088294D01*
X0007016Y0088238D01*
X0007199Y0088186D01*
X0007384Y0088138D01*
X0007569Y0088095D01*
X0007755Y0088056D01*
X0007942Y0088021D01*
X0008130Y0087992D01*
X0008319Y0087966D01*
X0008508Y0087946D01*
X0008698Y0087930D01*
X0008888Y0087918D01*
X0009078Y0087911D01*
X0009268Y0087909D01*
D11*
X0086039Y0099720D03*
X0086039Y0099720D03*
X0095882Y0099720D03*
X0095882Y0099720D03*
X0105724Y0099720D03*
X0105724Y0099720D03*
X0105724Y0124327D03*
X0086039Y0124327D03*
X0086039Y0156807D03*
X0105724Y0156807D03*
X0223835Y0156807D03*
X0243520Y0156807D03*
X0243520Y0124327D03*
X0223835Y0124327D03*
X0223835Y0099720D03*
X0223835Y0099720D03*
X0233677Y0099720D03*
X0233677Y0099720D03*
X0243520Y0099720D03*
X0243520Y0099720D03*
D12*
X0256118Y0129248D03*
X0211236Y0129248D03*
X0118323Y0129248D03*
X0073441Y0129248D03*
D13*
X0322850Y0162988D03*
X0330724Y0162988D03*
X0330724Y0172831D03*
X0322850Y0172831D03*
D14*
X0341394Y0191610D03*
X0341394Y0144209D03*
D15*
X0338894Y0204957D02*
X0338894Y0210862D01*
X0348894Y0210862D02*
X0348894Y0204957D01*
X0328894Y0204957D02*
X0328894Y0210862D01*
X0318894Y0210862D02*
X0318894Y0204957D01*
X0308894Y0204957D02*
X0308894Y0210862D01*
X0290144Y0338707D02*
X0290144Y0344612D01*
X0280144Y0344612D02*
X0280144Y0338707D01*
X0270144Y0338707D02*
X0270144Y0344612D01*
X0260144Y0344612D02*
X0260144Y0338707D01*
X0250144Y0338707D02*
X0250144Y0344612D01*
X0240144Y0344612D02*
X0240144Y0338707D01*
D16*
X0194780Y0187971D02*
X0194780Y0184009D01*
X0189780Y0184009D02*
X0189780Y0187971D01*
X0184780Y0187971D02*
X0184780Y0184009D01*
X0179780Y0184009D02*
X0179780Y0187971D01*
X0174780Y0187971D02*
X0174780Y0184009D01*
X0169780Y0184009D02*
X0169780Y0187971D01*
X0164780Y0187971D02*
X0164780Y0184009D01*
X0159780Y0184009D02*
X0159780Y0187971D01*
X0154780Y0187971D02*
X0154780Y0184009D01*
X0149780Y0184009D02*
X0149780Y0187971D01*
X0144780Y0187971D02*
X0144780Y0184009D01*
X0139780Y0184009D02*
X0139780Y0187971D01*
X0134780Y0187971D02*
X0134780Y0184009D01*
D17*
X0011236Y0217880D02*
X0011236Y0229691D01*
X0011236Y0276935D02*
X0011236Y0288746D01*
D18*
X0331394Y0287909D03*
X0331394Y0277909D03*
X0331394Y0267909D03*
X0331394Y0257909D03*
X0341394Y0257909D03*
X0341394Y0267909D03*
X0341394Y0277909D03*
X0341394Y0287909D03*
X0341394Y0297909D03*
X0331394Y0297909D03*
D19*
X0093894Y0331659D03*
X0063894Y0331659D03*
D20*
X0135144Y0342821D02*
X0135144Y0350498D01*
X0155144Y0350498D02*
X0155144Y0342821D01*
X0175144Y0342821D02*
X0175144Y0350498D01*
X0195144Y0350498D02*
X0195144Y0342821D01*
D21*
X0181087Y0342545D02*
X0235797Y0342545D01*
X0235797Y0341759D02*
X0181087Y0341759D01*
X0181087Y0340973D02*
X0235797Y0340973D01*
X0235797Y0340187D02*
X0181087Y0340187D01*
X0181087Y0339501D02*
X0181087Y0352568D01*
X0179802Y0353853D01*
X0177302Y0356353D01*
X0152985Y0356353D01*
X0149200Y0352568D01*
X0149200Y0339501D01*
X0150485Y0338216D01*
X0152985Y0335716D01*
X0177302Y0335716D01*
X0178587Y0337001D01*
X0181087Y0339501D01*
X0180988Y0339402D02*
X0235797Y0339402D01*
X0235797Y0338616D02*
X0180202Y0338616D01*
X0179416Y0337830D02*
X0235802Y0337830D01*
X0235797Y0337842D02*
X0236459Y0336245D01*
X0237682Y0335022D01*
X0239279Y0334360D01*
X0241008Y0334360D01*
X0242606Y0335022D01*
X0243828Y0336245D01*
X0244490Y0337842D01*
X0244490Y0345477D01*
X0243828Y0347074D01*
X0242606Y0348297D01*
X0241008Y0348959D01*
X0239279Y0348959D01*
X0237682Y0348297D01*
X0236459Y0347074D01*
X0235797Y0345477D01*
X0235797Y0337842D01*
X0236128Y0337044D02*
X0178630Y0337044D01*
X0177845Y0336258D02*
X0236453Y0336258D01*
X0237232Y0335472D02*
X0097063Y0335472D01*
X0096277Y0336258D02*
X0152443Y0336258D01*
X0151657Y0337044D02*
X0002987Y0337044D01*
X0002987Y0337830D02*
X0133521Y0337830D01*
X0134103Y0337589D02*
X0136184Y0337589D01*
X0138108Y0338385D01*
X0139579Y0339857D01*
X0140376Y0341780D01*
X0140376Y0351539D01*
X0139579Y0353462D01*
X0138108Y0354934D01*
X0136184Y0355730D01*
X0134103Y0355730D01*
X0132180Y0354934D01*
X0130708Y0353462D01*
X0129911Y0351539D01*
X0129911Y0341780D01*
X0130708Y0339857D01*
X0132180Y0338385D01*
X0134103Y0337589D01*
X0131949Y0338616D02*
X0002987Y0338616D01*
X0002987Y0339402D02*
X0131163Y0339402D01*
X0130571Y0340187D02*
X0002987Y0340187D01*
X0002987Y0340973D02*
X0130246Y0340973D01*
X0129920Y0341759D02*
X0002987Y0341759D01*
X0002987Y0342545D02*
X0129911Y0342545D01*
X0129911Y0343331D02*
X0002987Y0343331D01*
X0002987Y0344117D02*
X0129911Y0344117D01*
X0129911Y0344903D02*
X0002987Y0344903D01*
X0002987Y0345689D02*
X0129911Y0345689D01*
X0129911Y0346475D02*
X0002987Y0346475D01*
X0002987Y0347261D02*
X0129911Y0347261D01*
X0129911Y0348047D02*
X0002987Y0348047D01*
X0002987Y0348833D02*
X0129911Y0348833D01*
X0129911Y0349618D02*
X0002987Y0349618D01*
X0002987Y0350404D02*
X0129911Y0350404D01*
X0129911Y0351190D02*
X0002987Y0351190D01*
X0002987Y0351976D02*
X0130093Y0351976D01*
X0130418Y0352762D02*
X0002987Y0352762D01*
X0002987Y0353548D02*
X0130794Y0353548D01*
X0131580Y0354334D02*
X0002987Y0354334D01*
X0002987Y0355120D02*
X0132629Y0355120D01*
X0137658Y0355120D02*
X0151752Y0355120D01*
X0152538Y0355906D02*
X0003009Y0355906D01*
X0002987Y0355626D02*
X0003065Y0356608D01*
X0003672Y0358477D01*
X0004827Y0360067D01*
X0006417Y0361222D01*
X0008285Y0361829D01*
X0009268Y0361906D01*
X0347850Y0361906D01*
X0348833Y0361829D01*
X0350702Y0361222D01*
X0352291Y0360067D01*
X0353446Y0358477D01*
X0354053Y0356608D01*
X0354131Y0355626D01*
X0354131Y0095783D01*
X0354053Y0094801D01*
X0353446Y0092932D01*
X0352291Y0091343D01*
X0350702Y0090188D01*
X0348833Y0089580D01*
X0347850Y0089503D01*
X0009268Y0089503D01*
X0008285Y0089580D01*
X0006417Y0090188D01*
X0004827Y0091343D01*
X0003672Y0092932D01*
X0003065Y0094801D01*
X0002987Y0095783D01*
X0002987Y0355626D01*
X0003092Y0356692D02*
X0354026Y0356692D01*
X0354109Y0355906D02*
X0177750Y0355906D01*
X0178536Y0355120D02*
X0354131Y0355120D01*
X0354131Y0354334D02*
X0179322Y0354334D01*
X0179802Y0353853D02*
X0179802Y0353853D01*
X0180107Y0353548D02*
X0354131Y0353548D01*
X0354131Y0352762D02*
X0180893Y0352762D01*
X0181087Y0351976D02*
X0354131Y0351976D01*
X0354131Y0351190D02*
X0181087Y0351190D01*
X0181087Y0350404D02*
X0354131Y0350404D01*
X0354131Y0349618D02*
X0181087Y0349618D01*
X0181087Y0348833D02*
X0238975Y0348833D01*
X0237431Y0348047D02*
X0181087Y0348047D01*
X0181087Y0347261D02*
X0236645Y0347261D01*
X0236211Y0346475D02*
X0181087Y0346475D01*
X0181087Y0345689D02*
X0235885Y0345689D01*
X0235797Y0344903D02*
X0181087Y0344903D01*
X0181087Y0344117D02*
X0235797Y0344117D01*
X0235797Y0343331D02*
X0181087Y0343331D01*
X0150871Y0337830D02*
X0136767Y0337830D01*
X0138338Y0338616D02*
X0150085Y0338616D01*
X0149299Y0339402D02*
X0139124Y0339402D01*
X0139716Y0340187D02*
X0149200Y0340187D01*
X0149200Y0340973D02*
X0140042Y0340973D01*
X0140367Y0341759D02*
X0149200Y0341759D01*
X0149200Y0342545D02*
X0140376Y0342545D01*
X0140376Y0343331D02*
X0149200Y0343331D01*
X0149200Y0344117D02*
X0140376Y0344117D01*
X0140376Y0344903D02*
X0149200Y0344903D01*
X0149200Y0345689D02*
X0140376Y0345689D01*
X0140376Y0346475D02*
X0149200Y0346475D01*
X0149200Y0347261D02*
X0140376Y0347261D01*
X0140376Y0348047D02*
X0149200Y0348047D01*
X0149200Y0348833D02*
X0140376Y0348833D01*
X0140376Y0349618D02*
X0149200Y0349618D01*
X0149200Y0350404D02*
X0140376Y0350404D01*
X0140376Y0351190D02*
X0149200Y0351190D01*
X0149200Y0351976D02*
X0140195Y0351976D01*
X0139869Y0352762D02*
X0149394Y0352762D01*
X0150180Y0353548D02*
X0139493Y0353548D01*
X0138707Y0354334D02*
X0150966Y0354334D01*
X0098831Y0333704D02*
X0098831Y0329614D01*
X0095939Y0326722D01*
X0091849Y0326722D01*
X0088957Y0329614D01*
X0088957Y0333704D01*
X0091849Y0336596D01*
X0095939Y0336596D01*
X0098831Y0333704D01*
X0098635Y0333900D02*
X0354131Y0333900D01*
X0354131Y0333114D02*
X0098831Y0333114D01*
X0098831Y0332328D02*
X0354131Y0332328D01*
X0354131Y0331542D02*
X0098831Y0331542D01*
X0098831Y0330757D02*
X0354131Y0330757D01*
X0354131Y0329971D02*
X0098831Y0329971D01*
X0098401Y0329185D02*
X0354131Y0329185D01*
X0354131Y0328399D02*
X0097615Y0328399D01*
X0096829Y0327613D02*
X0354131Y0327613D01*
X0354131Y0326827D02*
X0096043Y0326827D01*
X0091744Y0326827D02*
X0066043Y0326827D01*
X0065939Y0326722D02*
X0068831Y0329614D01*
X0068831Y0333704D01*
X0065939Y0336596D01*
X0061849Y0336596D01*
X0058957Y0333704D01*
X0058957Y0329614D01*
X0061849Y0326722D01*
X0065939Y0326722D01*
X0066829Y0327613D02*
X0090958Y0327613D01*
X0090172Y0328399D02*
X0067615Y0328399D01*
X0068401Y0329185D02*
X0089386Y0329185D01*
X0088957Y0329971D02*
X0068831Y0329971D01*
X0068831Y0330757D02*
X0088957Y0330757D01*
X0088957Y0331542D02*
X0068831Y0331542D01*
X0068831Y0332328D02*
X0088957Y0332328D01*
X0088957Y0333114D02*
X0068831Y0333114D01*
X0068635Y0333900D02*
X0089152Y0333900D01*
X0089938Y0334686D02*
X0067849Y0334686D01*
X0067063Y0335472D02*
X0090724Y0335472D01*
X0091510Y0336258D02*
X0066277Y0336258D01*
X0061510Y0336258D02*
X0002987Y0336258D01*
X0002987Y0335472D02*
X0060724Y0335472D01*
X0059938Y0334686D02*
X0002987Y0334686D01*
X0002987Y0333900D02*
X0059152Y0333900D01*
X0058957Y0333114D02*
X0002987Y0333114D01*
X0002987Y0332328D02*
X0058957Y0332328D01*
X0058957Y0331542D02*
X0002987Y0331542D01*
X0002987Y0330757D02*
X0058957Y0330757D01*
X0058957Y0329971D02*
X0002987Y0329971D01*
X0002987Y0329185D02*
X0059386Y0329185D01*
X0060172Y0328399D02*
X0002987Y0328399D01*
X0002987Y0327613D02*
X0060958Y0327613D01*
X0061744Y0326827D02*
X0002987Y0326827D01*
X0002987Y0326041D02*
X0354131Y0326041D01*
X0354131Y0325255D02*
X0002987Y0325255D01*
X0002987Y0324469D02*
X0354131Y0324469D01*
X0354131Y0323683D02*
X0002987Y0323683D01*
X0002987Y0322897D02*
X0354131Y0322897D01*
X0354131Y0322111D02*
X0002987Y0322111D01*
X0002987Y0321326D02*
X0354131Y0321326D01*
X0354131Y0320540D02*
X0002987Y0320540D01*
X0002987Y0319754D02*
X0354131Y0319754D01*
X0354131Y0318968D02*
X0002987Y0318968D01*
X0002987Y0318182D02*
X0354131Y0318182D01*
X0354131Y0317396D02*
X0002987Y0317396D01*
X0002987Y0316610D02*
X0354131Y0316610D01*
X0354131Y0315824D02*
X0002987Y0315824D01*
X0002987Y0315038D02*
X0354131Y0315038D01*
X0354131Y0314252D02*
X0002987Y0314252D01*
X0002987Y0313466D02*
X0354131Y0313466D01*
X0354131Y0312681D02*
X0002987Y0312681D01*
X0002987Y0311895D02*
X0354131Y0311895D01*
X0354131Y0311109D02*
X0002987Y0311109D01*
X0002987Y0310323D02*
X0354131Y0310323D01*
X0354131Y0309537D02*
X0002987Y0309537D01*
X0002987Y0308751D02*
X0354131Y0308751D01*
X0354131Y0307965D02*
X0002987Y0307965D01*
X0002987Y0307179D02*
X0354131Y0307179D01*
X0354131Y0306393D02*
X0002987Y0306393D01*
X0002987Y0305607D02*
X0354131Y0305607D01*
X0354131Y0304821D02*
X0002987Y0304821D01*
X0002987Y0304035D02*
X0354131Y0304035D01*
X0354131Y0303250D02*
X0002987Y0303250D01*
X0002987Y0302464D02*
X0354131Y0302464D01*
X0354131Y0301678D02*
X0333772Y0301678D01*
X0333194Y0302256D02*
X0329593Y0302256D01*
X0327047Y0299710D01*
X0327047Y0296109D01*
X0329593Y0293563D01*
X0333194Y0293563D01*
X0335740Y0296109D01*
X0335740Y0299710D01*
X0333194Y0302256D01*
X0334558Y0300892D02*
X0354131Y0300892D01*
X0354131Y0300106D02*
X0335344Y0300106D01*
X0335740Y0299320D02*
X0354131Y0299320D01*
X0354131Y0298534D02*
X0335740Y0298534D01*
X0335740Y0297748D02*
X0354131Y0297748D01*
X0354131Y0296962D02*
X0335740Y0296962D01*
X0335740Y0296176D02*
X0354131Y0296176D01*
X0354131Y0295390D02*
X0335022Y0295390D01*
X0334236Y0294605D02*
X0354131Y0294605D01*
X0354131Y0293819D02*
X0333450Y0293819D01*
X0333194Y0292256D02*
X0329593Y0292256D01*
X0327047Y0289710D01*
X0327047Y0286109D01*
X0329593Y0283563D01*
X0333194Y0283563D01*
X0335740Y0286109D01*
X0335740Y0289710D01*
X0333194Y0292256D01*
X0333203Y0292247D02*
X0354131Y0292247D01*
X0354131Y0293033D02*
X0258578Y0293033D01*
X0258197Y0293191D02*
X0257090Y0293191D01*
X0256068Y0292767D01*
X0255904Y0292603D01*
X0241735Y0292603D01*
X0240216Y0291084D01*
X0239512Y0291084D01*
X0238345Y0290601D01*
X0238248Y0290503D01*
X0234968Y0290503D01*
X0230818Y0294653D01*
X0230818Y0294791D01*
X0230335Y0295958D01*
X0229442Y0296851D01*
X0228275Y0297334D01*
X0227012Y0297334D01*
X0225845Y0296851D01*
X0224952Y0295958D01*
X0224469Y0294791D01*
X0224469Y0293528D01*
X0224952Y0292361D01*
X0225845Y0291468D01*
X0227012Y0290985D01*
X0227150Y0290985D01*
X0232424Y0285711D01*
X0233378Y0285316D01*
X0238248Y0285316D01*
X0238345Y0285218D01*
X0239512Y0284735D01*
X0240775Y0284735D01*
X0241942Y0285218D01*
X0242835Y0286111D01*
X0243318Y0287278D01*
X0243318Y0287982D01*
X0243552Y0288216D01*
X0255904Y0288216D01*
X0256068Y0288052D01*
X0257090Y0287628D01*
X0258197Y0287628D01*
X0259219Y0288052D01*
X0260001Y0288834D01*
X0260425Y0289856D01*
X0260425Y0290963D01*
X0260001Y0291985D01*
X0259219Y0292767D01*
X0258197Y0293191D01*
X0256709Y0293033D02*
X0232438Y0293033D01*
X0231653Y0293819D02*
X0329338Y0293819D01*
X0328552Y0294605D02*
X0230867Y0294605D01*
X0230570Y0295390D02*
X0327766Y0295390D01*
X0327047Y0296176D02*
X0230117Y0296176D01*
X0229173Y0296962D02*
X0327047Y0296962D01*
X0327047Y0297748D02*
X0002987Y0297748D01*
X0002987Y0296962D02*
X0226114Y0296962D01*
X0225171Y0296176D02*
X0002987Y0296176D01*
X0002987Y0295390D02*
X0008203Y0295390D01*
X0007102Y0294934D02*
X0005048Y0292881D01*
X0003937Y0290198D01*
X0003937Y0275483D01*
X0005048Y0272800D01*
X0007102Y0270747D01*
X0009784Y0269636D01*
X0012688Y0269636D01*
X0015371Y0270747D01*
X0017424Y0272800D01*
X0018535Y0275483D01*
X0018535Y0290198D01*
X0017424Y0292881D01*
X0015371Y0294934D01*
X0012688Y0296045D01*
X0009784Y0296045D01*
X0007102Y0294934D01*
X0006772Y0294605D02*
X0002987Y0294605D01*
X0002987Y0293819D02*
X0005986Y0293819D01*
X0005200Y0293033D02*
X0002987Y0293033D01*
X0002987Y0292247D02*
X0004786Y0292247D01*
X0004460Y0291461D02*
X0002987Y0291461D01*
X0002987Y0290675D02*
X0004135Y0290675D01*
X0003937Y0289889D02*
X0002987Y0289889D01*
X0002987Y0289103D02*
X0003937Y0289103D01*
X0003937Y0288317D02*
X0002987Y0288317D01*
X0002987Y0287531D02*
X0003937Y0287531D01*
X0003937Y0286745D02*
X0002987Y0286745D01*
X0002987Y0285959D02*
X0003937Y0285959D01*
X0003937Y0285174D02*
X0002987Y0285174D01*
X0002987Y0284388D02*
X0003937Y0284388D01*
X0003937Y0283602D02*
X0002987Y0283602D01*
X0002987Y0282816D02*
X0003937Y0282816D01*
X0003937Y0282030D02*
X0002987Y0282030D01*
X0002987Y0281244D02*
X0003937Y0281244D01*
X0003937Y0280458D02*
X0002987Y0280458D01*
X0002987Y0279672D02*
X0003937Y0279672D01*
X0003937Y0278886D02*
X0002987Y0278886D01*
X0002987Y0278100D02*
X0003937Y0278100D01*
X0003937Y0277314D02*
X0002987Y0277314D01*
X0002987Y0276529D02*
X0003937Y0276529D01*
X0003937Y0275743D02*
X0002987Y0275743D01*
X0002987Y0274957D02*
X0004155Y0274957D01*
X0004481Y0274171D02*
X0002987Y0274171D01*
X0002987Y0273385D02*
X0004806Y0273385D01*
X0005250Y0272599D02*
X0002987Y0272599D01*
X0002987Y0271813D02*
X0006036Y0271813D01*
X0006821Y0271027D02*
X0002987Y0271027D01*
X0002987Y0270241D02*
X0008323Y0270241D01*
X0014150Y0270241D02*
X0327579Y0270241D01*
X0327047Y0269710D02*
X0327047Y0266109D01*
X0329593Y0263563D01*
X0333194Y0263563D01*
X0335740Y0266109D01*
X0335740Y0269710D01*
X0333194Y0272256D01*
X0329593Y0272256D01*
X0327047Y0269710D01*
X0327047Y0269455D02*
X0002987Y0269455D01*
X0002987Y0268669D02*
X0327047Y0268669D01*
X0327047Y0267884D02*
X0002987Y0267884D01*
X0002987Y0267098D02*
X0327047Y0267098D01*
X0327047Y0266312D02*
X0002987Y0266312D01*
X0002987Y0265526D02*
X0327631Y0265526D01*
X0328416Y0264740D02*
X0002987Y0264740D01*
X0002987Y0263954D02*
X0329202Y0263954D01*
X0329593Y0262256D02*
X0327047Y0259710D01*
X0327047Y0256109D01*
X0329593Y0253563D01*
X0333194Y0253563D01*
X0335740Y0256109D01*
X0335740Y0259710D01*
X0333194Y0262256D01*
X0329593Y0262256D01*
X0328934Y0261596D02*
X0002987Y0261596D01*
X0002987Y0260810D02*
X0328148Y0260810D01*
X0327362Y0260024D02*
X0002987Y0260024D01*
X0002987Y0259238D02*
X0327047Y0259238D01*
X0327047Y0258453D02*
X0002987Y0258453D01*
X0002987Y0257667D02*
X0242218Y0257667D01*
X0242318Y0257767D02*
X0241954Y0257403D01*
X0198068Y0257403D01*
X0192605Y0251941D01*
X0192090Y0251941D01*
X0191068Y0251517D01*
X0190286Y0250735D01*
X0189863Y0249713D01*
X0189863Y0248606D01*
X0189943Y0248411D01*
X0189525Y0248584D01*
X0188262Y0248584D01*
X0187095Y0248101D01*
X0186202Y0247208D01*
X0185719Y0246041D01*
X0185719Y0244778D01*
X0186202Y0243611D01*
X0187095Y0242718D01*
X0188262Y0242235D01*
X0189525Y0242235D01*
X0190692Y0242718D01*
X0190790Y0242816D01*
X0192819Y0242816D01*
X0194195Y0241440D01*
X0194924Y0240711D01*
X0195878Y0240316D01*
X0199410Y0240316D01*
X0200363Y0240711D01*
X0203718Y0244066D01*
X0218248Y0244066D01*
X0218345Y0243968D01*
X0219512Y0243485D01*
X0220775Y0243485D01*
X0221942Y0243968D01*
X0222040Y0244066D01*
X0238248Y0244066D01*
X0238345Y0243968D01*
X0239512Y0243485D01*
X0240775Y0243485D01*
X0241942Y0243968D01*
X0242835Y0244861D01*
X0243318Y0246028D01*
X0243318Y0247291D01*
X0242835Y0248458D01*
X0242227Y0249066D01*
X0279498Y0249066D01*
X0279595Y0248968D01*
X0280762Y0248485D01*
X0282025Y0248485D01*
X0283192Y0248968D01*
X0283290Y0249066D01*
X0290319Y0249066D01*
X0293219Y0246166D01*
X0293219Y0246028D01*
X0293702Y0244861D01*
X0294595Y0243968D01*
X0295762Y0243485D01*
X0297025Y0243485D01*
X0298192Y0243968D01*
X0299085Y0244861D01*
X0299568Y0246028D01*
X0299568Y0247291D01*
X0299085Y0248458D01*
X0298192Y0249351D01*
X0297025Y0249834D01*
X0296887Y0249834D01*
X0292863Y0253858D01*
X0291910Y0254253D01*
X0283290Y0254253D01*
X0283192Y0254351D01*
X0282025Y0254834D01*
X0280762Y0254834D01*
X0279595Y0254351D01*
X0279498Y0254253D01*
X0246425Y0254253D01*
X0246675Y0254856D01*
X0246675Y0255963D01*
X0246251Y0256985D01*
X0245469Y0257767D01*
X0244447Y0258191D01*
X0243340Y0258191D01*
X0242318Y0257767D01*
X0245570Y0257667D02*
X0327047Y0257667D01*
X0327047Y0256881D02*
X0246295Y0256881D01*
X0246620Y0256095D02*
X0327062Y0256095D01*
X0327847Y0255309D02*
X0246675Y0255309D01*
X0246537Y0254523D02*
X0280011Y0254523D01*
X0282777Y0254523D02*
X0328633Y0254523D01*
X0329419Y0253737D02*
X0292984Y0253737D01*
X0293770Y0252951D02*
X0354131Y0252951D01*
X0354131Y0252165D02*
X0294556Y0252165D01*
X0295342Y0251379D02*
X0354131Y0251379D01*
X0354131Y0250593D02*
X0296128Y0250593D01*
X0297090Y0249808D02*
X0354131Y0249808D01*
X0354131Y0249022D02*
X0298521Y0249022D01*
X0299177Y0248236D02*
X0354131Y0248236D01*
X0354131Y0247450D02*
X0299503Y0247450D01*
X0299568Y0246664D02*
X0354131Y0246664D01*
X0354131Y0245878D02*
X0299506Y0245878D01*
X0299181Y0245092D02*
X0354131Y0245092D01*
X0354131Y0244306D02*
X0298530Y0244306D01*
X0297111Y0243520D02*
X0354131Y0243520D01*
X0354131Y0242734D02*
X0202387Y0242734D01*
X0203172Y0243520D02*
X0219426Y0243520D01*
X0220861Y0243520D02*
X0239426Y0243520D01*
X0240861Y0243520D02*
X0295676Y0243520D01*
X0294257Y0244306D02*
X0242280Y0244306D01*
X0242931Y0245092D02*
X0293607Y0245092D01*
X0293281Y0245878D02*
X0243256Y0245878D01*
X0243318Y0246664D02*
X0292721Y0246664D01*
X0291935Y0247450D02*
X0243253Y0247450D01*
X0242927Y0248236D02*
X0291149Y0248236D01*
X0290364Y0249022D02*
X0283246Y0249022D01*
X0279542Y0249022D02*
X0242271Y0249022D01*
X0238197Y0233191D02*
X0237090Y0233191D01*
X0236068Y0232767D01*
X0235286Y0231985D01*
X0234863Y0230963D01*
X0234863Y0229856D01*
X0235035Y0229441D01*
X0234590Y0229441D01*
X0233568Y0229017D01*
X0232786Y0228235D01*
X0232363Y0227213D01*
X0232363Y0226698D01*
X0231818Y0226153D01*
X0222083Y0226153D01*
X0221719Y0226517D01*
X0220697Y0226941D01*
X0219590Y0226941D01*
X0218568Y0226517D01*
X0217786Y0225735D01*
X0217363Y0224713D01*
X0217363Y0223606D01*
X0217653Y0222906D01*
X0217318Y0222767D01*
X0216536Y0221985D01*
X0216113Y0220963D01*
X0216113Y0219856D01*
X0216536Y0218834D01*
X0217318Y0218052D01*
X0217653Y0217913D01*
X0217363Y0217213D01*
X0217363Y0216106D01*
X0217786Y0215084D01*
X0218568Y0214302D01*
X0219590Y0213878D01*
X0220697Y0213878D01*
X0221719Y0214302D01*
X0222501Y0215084D01*
X0222846Y0215916D01*
X0230704Y0215916D01*
X0231068Y0215552D01*
X0232090Y0215128D01*
X0233197Y0215128D01*
X0234219Y0215552D01*
X0235001Y0216334D01*
X0235425Y0217356D01*
X0235425Y0218463D01*
X0235001Y0219485D01*
X0234820Y0219666D01*
X0235970Y0219666D01*
X0239720Y0223416D01*
X0240887Y0224584D01*
X0240887Y0229985D01*
X0240425Y0230448D01*
X0240425Y0230963D01*
X0240001Y0231985D01*
X0239219Y0232767D01*
X0238197Y0233191D01*
X0239469Y0232517D02*
X0354131Y0232517D01*
X0354131Y0231732D02*
X0240106Y0231732D01*
X0240425Y0230946D02*
X0354131Y0230946D01*
X0354131Y0230160D02*
X0240713Y0230160D01*
X0240887Y0229374D02*
X0354131Y0229374D01*
X0354131Y0228588D02*
X0240887Y0228588D01*
X0240887Y0227802D02*
X0354131Y0227802D01*
X0354131Y0227016D02*
X0240887Y0227016D01*
X0240887Y0226230D02*
X0354131Y0226230D01*
X0354131Y0225444D02*
X0240887Y0225444D01*
X0240887Y0224658D02*
X0354131Y0224658D01*
X0354131Y0223872D02*
X0240176Y0223872D01*
X0239390Y0223086D02*
X0354131Y0223086D01*
X0354131Y0222301D02*
X0238604Y0222301D01*
X0237818Y0221515D02*
X0354131Y0221515D01*
X0354131Y0220729D02*
X0237032Y0220729D01*
X0236247Y0219943D02*
X0354131Y0219943D01*
X0354131Y0219157D02*
X0235137Y0219157D01*
X0235425Y0218371D02*
X0354131Y0218371D01*
X0354131Y0217585D02*
X0235425Y0217585D01*
X0235194Y0216799D02*
X0354131Y0216799D01*
X0354131Y0216013D02*
X0234681Y0216013D01*
X0233436Y0215227D02*
X0354131Y0215227D01*
X0354131Y0214441D02*
X0331461Y0214441D01*
X0331356Y0214547D02*
X0329758Y0215209D01*
X0328029Y0215209D01*
X0326432Y0214547D01*
X0325209Y0213324D01*
X0324547Y0211727D01*
X0324547Y0204092D01*
X0325209Y0202495D01*
X0326432Y0201272D01*
X0328029Y0200610D01*
X0329758Y0200610D01*
X0331356Y0201272D01*
X0332578Y0202495D01*
X0333240Y0204092D01*
X0333240Y0211727D01*
X0332578Y0213324D01*
X0331356Y0214547D01*
X0332247Y0213656D02*
X0354131Y0213656D01*
X0354131Y0212870D02*
X0332767Y0212870D01*
X0333092Y0212084D02*
X0354131Y0212084D01*
X0354131Y0211298D02*
X0333240Y0211298D01*
X0333240Y0210512D02*
X0354131Y0210512D01*
X0354131Y0209726D02*
X0333240Y0209726D01*
X0333240Y0208940D02*
X0354131Y0208940D01*
X0354131Y0208154D02*
X0333240Y0208154D01*
X0333240Y0207368D02*
X0354131Y0207368D01*
X0354131Y0206582D02*
X0333240Y0206582D01*
X0333240Y0205796D02*
X0354131Y0205796D01*
X0354131Y0205010D02*
X0333240Y0205010D01*
X0333240Y0204225D02*
X0354131Y0204225D01*
X0354131Y0203439D02*
X0332969Y0203439D01*
X0332644Y0202653D02*
X0354131Y0202653D01*
X0354131Y0201867D02*
X0331951Y0201867D01*
X0330895Y0201081D02*
X0354131Y0201081D01*
X0354131Y0200295D02*
X0002987Y0200295D01*
X0002987Y0201081D02*
X0306893Y0201081D01*
X0306432Y0201272D02*
X0308029Y0200610D01*
X0309758Y0200610D01*
X0311356Y0201272D01*
X0312578Y0202495D01*
X0313240Y0204092D01*
X0313240Y0211727D01*
X0312578Y0213324D01*
X0311356Y0214547D01*
X0309758Y0215209D01*
X0308029Y0215209D01*
X0306432Y0214547D01*
X0305209Y0213324D01*
X0304547Y0211727D01*
X0304547Y0204092D01*
X0305209Y0202495D01*
X0306432Y0201272D01*
X0305837Y0201867D02*
X0002987Y0201867D01*
X0002987Y0202653D02*
X0305143Y0202653D01*
X0304818Y0203439D02*
X0002987Y0203439D01*
X0002987Y0204225D02*
X0304547Y0204225D01*
X0304547Y0205010D02*
X0002987Y0205010D01*
X0002987Y0205796D02*
X0304547Y0205796D01*
X0304547Y0206582D02*
X0002987Y0206582D01*
X0002987Y0207368D02*
X0304547Y0207368D01*
X0304547Y0208154D02*
X0002987Y0208154D01*
X0002987Y0208940D02*
X0304547Y0208940D01*
X0304547Y0209726D02*
X0002987Y0209726D01*
X0002987Y0210512D02*
X0304547Y0210512D01*
X0304547Y0211298D02*
X0014419Y0211298D01*
X0015371Y0211692D02*
X0017424Y0213745D01*
X0018535Y0216428D01*
X0018535Y0231143D01*
X0017424Y0233826D01*
X0015371Y0235879D01*
X0012688Y0236990D01*
X0009784Y0236990D01*
X0007102Y0235879D01*
X0005048Y0233826D01*
X0003937Y0231143D01*
X0003937Y0216428D01*
X0005048Y0213745D01*
X0007102Y0211692D01*
X0009784Y0210581D01*
X0012688Y0210581D01*
X0015371Y0211692D01*
X0015763Y0212084D02*
X0304695Y0212084D01*
X0305021Y0212870D02*
X0016549Y0212870D01*
X0017334Y0213656D02*
X0305540Y0213656D01*
X0306326Y0214441D02*
X0221859Y0214441D01*
X0222561Y0215227D02*
X0231852Y0215227D01*
X0231895Y0226230D02*
X0222006Y0226230D01*
X0218281Y0226230D02*
X0152737Y0226230D01*
X0152737Y0225444D02*
X0217666Y0225444D01*
X0217363Y0224658D02*
X0152737Y0224658D01*
X0152737Y0223872D02*
X0217363Y0223872D01*
X0217578Y0223086D02*
X0152737Y0223086D01*
X0152737Y0222301D02*
X0216852Y0222301D01*
X0216341Y0221515D02*
X0152737Y0221515D01*
X0152737Y0220729D02*
X0216113Y0220729D01*
X0216113Y0219943D02*
X0152737Y0219943D01*
X0152737Y0219806D02*
X0152737Y0238513D01*
X0152835Y0238611D01*
X0153318Y0239778D01*
X0153318Y0241041D01*
X0152835Y0242208D01*
X0151942Y0243101D01*
X0150775Y0243584D01*
X0149512Y0243584D01*
X0148345Y0243101D01*
X0147452Y0242208D01*
X0146969Y0241041D01*
X0146969Y0239778D01*
X0147452Y0238611D01*
X0147550Y0238513D01*
X0147550Y0219806D01*
X0147452Y0219708D01*
X0146969Y0218541D01*
X0146969Y0217278D01*
X0147452Y0216111D01*
X0148345Y0215218D01*
X0149512Y0214735D01*
X0150775Y0214735D01*
X0151942Y0215218D01*
X0152835Y0216111D01*
X0153318Y0217278D01*
X0153318Y0218541D01*
X0152835Y0219708D01*
X0152737Y0219806D01*
X0153063Y0219157D02*
X0216402Y0219157D01*
X0216999Y0218371D02*
X0153318Y0218371D01*
X0153318Y0217585D02*
X0217517Y0217585D01*
X0217363Y0216799D02*
X0153120Y0216799D01*
X0152737Y0216013D02*
X0217401Y0216013D01*
X0217727Y0215227D02*
X0151951Y0215227D01*
X0148336Y0215227D02*
X0018038Y0215227D01*
X0017713Y0214441D02*
X0218429Y0214441D01*
X0232363Y0227016D02*
X0152737Y0227016D01*
X0152737Y0227802D02*
X0232607Y0227802D01*
X0233139Y0228588D02*
X0152737Y0228588D01*
X0152737Y0229374D02*
X0234429Y0229374D01*
X0234863Y0230160D02*
X0152737Y0230160D01*
X0152737Y0230946D02*
X0234863Y0230946D01*
X0235181Y0231732D02*
X0152737Y0231732D01*
X0152737Y0232517D02*
X0235819Y0232517D01*
X0201601Y0241948D02*
X0354131Y0241948D01*
X0354131Y0241162D02*
X0200815Y0241162D01*
X0199556Y0240377D02*
X0354131Y0240377D01*
X0354131Y0239591D02*
X0153241Y0239591D01*
X0153318Y0240377D02*
X0195731Y0240377D01*
X0194473Y0241162D02*
X0153268Y0241162D01*
X0152943Y0241948D02*
X0193687Y0241948D01*
X0192901Y0242734D02*
X0190708Y0242734D01*
X0187079Y0242734D02*
X0152309Y0242734D01*
X0150930Y0243520D02*
X0186293Y0243520D01*
X0185914Y0244306D02*
X0002987Y0244306D01*
X0002987Y0243520D02*
X0149358Y0243520D01*
X0147979Y0242734D02*
X0002987Y0242734D01*
X0002987Y0241948D02*
X0147345Y0241948D01*
X0147019Y0241162D02*
X0002987Y0241162D01*
X0002987Y0240377D02*
X0146969Y0240377D01*
X0147046Y0239591D02*
X0002987Y0239591D01*
X0002987Y0238805D02*
X0147372Y0238805D01*
X0147550Y0238019D02*
X0002987Y0238019D01*
X0002987Y0237233D02*
X0147550Y0237233D01*
X0147550Y0236447D02*
X0013999Y0236447D01*
X0015589Y0235661D02*
X0147550Y0235661D01*
X0147550Y0234875D02*
X0016375Y0234875D01*
X0017161Y0234089D02*
X0147550Y0234089D01*
X0147550Y0233303D02*
X0017641Y0233303D01*
X0017966Y0232517D02*
X0147550Y0232517D01*
X0147550Y0231732D02*
X0018292Y0231732D01*
X0018535Y0230946D02*
X0147550Y0230946D01*
X0147550Y0230160D02*
X0018535Y0230160D01*
X0018535Y0229374D02*
X0147550Y0229374D01*
X0147550Y0228588D02*
X0018535Y0228588D01*
X0018535Y0227802D02*
X0147550Y0227802D01*
X0147550Y0227016D02*
X0018535Y0227016D01*
X0018535Y0226230D02*
X0147550Y0226230D01*
X0147550Y0225444D02*
X0018535Y0225444D01*
X0018535Y0224658D02*
X0147550Y0224658D01*
X0147550Y0223872D02*
X0018535Y0223872D01*
X0018535Y0223086D02*
X0147550Y0223086D01*
X0147550Y0222301D02*
X0018535Y0222301D01*
X0018535Y0221515D02*
X0147550Y0221515D01*
X0147550Y0220729D02*
X0018535Y0220729D01*
X0018535Y0219943D02*
X0147550Y0219943D01*
X0147224Y0219157D02*
X0018535Y0219157D01*
X0018535Y0218371D02*
X0146969Y0218371D01*
X0146969Y0217585D02*
X0018535Y0217585D01*
X0018535Y0216799D02*
X0147167Y0216799D01*
X0147550Y0216013D02*
X0018364Y0216013D01*
X0008053Y0211298D02*
X0002987Y0211298D01*
X0002987Y0212084D02*
X0006710Y0212084D01*
X0005924Y0212870D02*
X0002987Y0212870D01*
X0002987Y0213656D02*
X0005138Y0213656D01*
X0004760Y0214441D02*
X0002987Y0214441D01*
X0002987Y0215227D02*
X0004434Y0215227D01*
X0004109Y0216013D02*
X0002987Y0216013D01*
X0002987Y0216799D02*
X0003937Y0216799D01*
X0003937Y0217585D02*
X0002987Y0217585D01*
X0002987Y0218371D02*
X0003937Y0218371D01*
X0003937Y0219157D02*
X0002987Y0219157D01*
X0002987Y0219943D02*
X0003937Y0219943D01*
X0003937Y0220729D02*
X0002987Y0220729D01*
X0002987Y0221515D02*
X0003937Y0221515D01*
X0003937Y0222301D02*
X0002987Y0222301D01*
X0002987Y0223086D02*
X0003937Y0223086D01*
X0003937Y0223872D02*
X0002987Y0223872D01*
X0002987Y0224658D02*
X0003937Y0224658D01*
X0003937Y0225444D02*
X0002987Y0225444D01*
X0002987Y0226230D02*
X0003937Y0226230D01*
X0003937Y0227016D02*
X0002987Y0227016D01*
X0002987Y0227802D02*
X0003937Y0227802D01*
X0003937Y0228588D02*
X0002987Y0228588D01*
X0002987Y0229374D02*
X0003937Y0229374D01*
X0003937Y0230160D02*
X0002987Y0230160D01*
X0002987Y0230946D02*
X0003937Y0230946D01*
X0004181Y0231732D02*
X0002987Y0231732D01*
X0002987Y0232517D02*
X0004506Y0232517D01*
X0004832Y0233303D02*
X0002987Y0233303D01*
X0002987Y0234089D02*
X0005312Y0234089D01*
X0006098Y0234875D02*
X0002987Y0234875D01*
X0002987Y0235661D02*
X0006884Y0235661D01*
X0008473Y0236447D02*
X0002987Y0236447D01*
X0002987Y0245092D02*
X0185719Y0245092D01*
X0185719Y0245878D02*
X0002987Y0245878D01*
X0002987Y0246664D02*
X0185977Y0246664D01*
X0186444Y0247450D02*
X0002987Y0247450D01*
X0002987Y0248236D02*
X0187421Y0248236D01*
X0189863Y0249022D02*
X0002987Y0249022D01*
X0002987Y0249808D02*
X0189902Y0249808D01*
X0190227Y0250593D02*
X0002987Y0250593D01*
X0002987Y0251379D02*
X0190931Y0251379D01*
X0192830Y0252165D02*
X0002987Y0252165D01*
X0002987Y0252951D02*
X0193616Y0252951D01*
X0194402Y0253737D02*
X0002987Y0253737D01*
X0002987Y0254523D02*
X0195188Y0254523D01*
X0195974Y0255309D02*
X0002987Y0255309D01*
X0002987Y0256095D02*
X0196760Y0256095D01*
X0197545Y0256881D02*
X0002987Y0256881D01*
X0002987Y0262382D02*
X0354131Y0262382D01*
X0354131Y0261596D02*
X0333854Y0261596D01*
X0334640Y0260810D02*
X0354131Y0260810D01*
X0354131Y0260024D02*
X0335426Y0260024D01*
X0335740Y0259238D02*
X0354131Y0259238D01*
X0354131Y0258453D02*
X0335740Y0258453D01*
X0335740Y0257667D02*
X0354131Y0257667D01*
X0354131Y0256881D02*
X0335740Y0256881D01*
X0335726Y0256095D02*
X0354131Y0256095D01*
X0354131Y0255309D02*
X0334940Y0255309D01*
X0334154Y0254523D02*
X0354131Y0254523D01*
X0354131Y0253737D02*
X0333368Y0253737D01*
X0333585Y0263954D02*
X0354131Y0263954D01*
X0354131Y0264740D02*
X0334371Y0264740D01*
X0335157Y0265526D02*
X0354131Y0265526D01*
X0354131Y0266312D02*
X0335740Y0266312D01*
X0335740Y0267098D02*
X0354131Y0267098D01*
X0354131Y0267884D02*
X0335740Y0267884D01*
X0335740Y0268669D02*
X0354131Y0268669D01*
X0354131Y0269455D02*
X0335740Y0269455D01*
X0335209Y0270241D02*
X0354131Y0270241D01*
X0354131Y0271027D02*
X0334423Y0271027D01*
X0333637Y0271813D02*
X0354131Y0271813D01*
X0354131Y0272599D02*
X0017223Y0272599D01*
X0017666Y0273385D02*
X0354131Y0273385D01*
X0354131Y0274171D02*
X0333802Y0274171D01*
X0333194Y0273563D02*
X0335740Y0276109D01*
X0335740Y0279710D01*
X0333194Y0282256D01*
X0329593Y0282256D01*
X0327047Y0279710D01*
X0327047Y0276109D01*
X0329593Y0273563D01*
X0333194Y0273563D01*
X0334588Y0274957D02*
X0354131Y0274957D01*
X0354131Y0275743D02*
X0335374Y0275743D01*
X0335740Y0276529D02*
X0354131Y0276529D01*
X0354131Y0277314D02*
X0335740Y0277314D01*
X0335740Y0278100D02*
X0354131Y0278100D01*
X0354131Y0278886D02*
X0335740Y0278886D01*
X0335740Y0279672D02*
X0354131Y0279672D01*
X0354131Y0280458D02*
X0334992Y0280458D01*
X0334206Y0281244D02*
X0354131Y0281244D01*
X0354131Y0282030D02*
X0333420Y0282030D01*
X0333233Y0283602D02*
X0354131Y0283602D01*
X0354131Y0284388D02*
X0334019Y0284388D01*
X0334805Y0285174D02*
X0354131Y0285174D01*
X0354131Y0285959D02*
X0335591Y0285959D01*
X0335740Y0286745D02*
X0354131Y0286745D01*
X0354131Y0287531D02*
X0335740Y0287531D01*
X0335740Y0288317D02*
X0354131Y0288317D01*
X0354131Y0289103D02*
X0335740Y0289103D01*
X0335561Y0289889D02*
X0354131Y0289889D01*
X0354131Y0290675D02*
X0334775Y0290675D01*
X0333989Y0291461D02*
X0354131Y0291461D01*
X0354131Y0282816D02*
X0018535Y0282816D01*
X0018535Y0283602D02*
X0329555Y0283602D01*
X0328769Y0284388D02*
X0018535Y0284388D01*
X0018535Y0285174D02*
X0238452Y0285174D01*
X0241835Y0285174D02*
X0327983Y0285174D01*
X0327197Y0285959D02*
X0242684Y0285959D01*
X0243098Y0286745D02*
X0327047Y0286745D01*
X0327047Y0287531D02*
X0243318Y0287531D01*
X0240593Y0291461D02*
X0234010Y0291461D01*
X0233224Y0292247D02*
X0241379Y0292247D01*
X0238524Y0290675D02*
X0234796Y0290675D01*
X0231390Y0286745D02*
X0018535Y0286745D01*
X0018535Y0285959D02*
X0232176Y0285959D01*
X0230604Y0287531D02*
X0018535Y0287531D01*
X0018535Y0288317D02*
X0229818Y0288317D01*
X0229032Y0289103D02*
X0018535Y0289103D01*
X0018535Y0289889D02*
X0228246Y0289889D01*
X0227460Y0290675D02*
X0018338Y0290675D01*
X0018012Y0291461D02*
X0225862Y0291461D01*
X0225066Y0292247D02*
X0017687Y0292247D01*
X0017272Y0293033D02*
X0224674Y0293033D01*
X0224469Y0293819D02*
X0016486Y0293819D01*
X0015700Y0294605D02*
X0224469Y0294605D01*
X0224717Y0295390D02*
X0014269Y0295390D01*
X0002987Y0298534D02*
X0327047Y0298534D01*
X0327047Y0299320D02*
X0002987Y0299320D01*
X0002987Y0300106D02*
X0327443Y0300106D01*
X0328229Y0300892D02*
X0002987Y0300892D01*
X0002987Y0301678D02*
X0329015Y0301678D01*
X0329584Y0292247D02*
X0259739Y0292247D01*
X0260218Y0291461D02*
X0328798Y0291461D01*
X0328012Y0290675D02*
X0260425Y0290675D01*
X0260425Y0289889D02*
X0327227Y0289889D01*
X0327047Y0289103D02*
X0260113Y0289103D01*
X0259485Y0288317D02*
X0327047Y0288317D01*
X0329367Y0282030D02*
X0018535Y0282030D01*
X0018535Y0281244D02*
X0328581Y0281244D01*
X0327796Y0280458D02*
X0018535Y0280458D01*
X0018535Y0279672D02*
X0327047Y0279672D01*
X0327047Y0278886D02*
X0018535Y0278886D01*
X0018535Y0278100D02*
X0327047Y0278100D01*
X0327047Y0277314D02*
X0018535Y0277314D01*
X0018535Y0276529D02*
X0327047Y0276529D01*
X0327414Y0275743D02*
X0018535Y0275743D01*
X0018317Y0274957D02*
X0328200Y0274957D01*
X0328986Y0274171D02*
X0017992Y0274171D01*
X0016437Y0271813D02*
X0329151Y0271813D01*
X0328365Y0271027D02*
X0015651Y0271027D01*
X0002987Y0263168D02*
X0354131Y0263168D01*
X0354131Y0238805D02*
X0152915Y0238805D01*
X0152737Y0238019D02*
X0354131Y0238019D01*
X0354131Y0237233D02*
X0152737Y0237233D01*
X0152737Y0236447D02*
X0354131Y0236447D01*
X0354131Y0235661D02*
X0152737Y0235661D01*
X0152737Y0234875D02*
X0354131Y0234875D01*
X0354131Y0234089D02*
X0152737Y0234089D01*
X0152737Y0233303D02*
X0354131Y0233303D01*
X0326326Y0214441D02*
X0321461Y0214441D01*
X0321356Y0214547D02*
X0319758Y0215209D01*
X0318029Y0215209D01*
X0316432Y0214547D01*
X0315209Y0213324D01*
X0314547Y0211727D01*
X0314547Y0204092D01*
X0315209Y0202495D01*
X0316432Y0201272D01*
X0318029Y0200610D01*
X0319758Y0200610D01*
X0321356Y0201272D01*
X0322578Y0202495D01*
X0323240Y0204092D01*
X0323240Y0211727D01*
X0322578Y0213324D01*
X0321356Y0214547D01*
X0322247Y0213656D02*
X0325540Y0213656D01*
X0325021Y0212870D02*
X0322767Y0212870D01*
X0323092Y0212084D02*
X0324695Y0212084D01*
X0324547Y0211298D02*
X0323240Y0211298D01*
X0323240Y0210512D02*
X0324547Y0210512D01*
X0324547Y0209726D02*
X0323240Y0209726D01*
X0323240Y0208940D02*
X0324547Y0208940D01*
X0324547Y0208154D02*
X0323240Y0208154D01*
X0323240Y0207368D02*
X0324547Y0207368D01*
X0324547Y0206582D02*
X0323240Y0206582D01*
X0323240Y0205796D02*
X0324547Y0205796D01*
X0324547Y0205010D02*
X0323240Y0205010D01*
X0323240Y0204225D02*
X0324547Y0204225D01*
X0324818Y0203439D02*
X0322969Y0203439D01*
X0322644Y0202653D02*
X0325143Y0202653D01*
X0325837Y0201867D02*
X0321951Y0201867D01*
X0320895Y0201081D02*
X0326893Y0201081D01*
X0316893Y0201081D02*
X0310895Y0201081D01*
X0311951Y0201867D02*
X0315837Y0201867D01*
X0315143Y0202653D02*
X0312644Y0202653D01*
X0312969Y0203439D02*
X0314818Y0203439D01*
X0314547Y0204225D02*
X0313240Y0204225D01*
X0313240Y0205010D02*
X0314547Y0205010D01*
X0314547Y0205796D02*
X0313240Y0205796D01*
X0313240Y0206582D02*
X0314547Y0206582D01*
X0314547Y0207368D02*
X0313240Y0207368D01*
X0313240Y0208154D02*
X0314547Y0208154D01*
X0314547Y0208940D02*
X0313240Y0208940D01*
X0313240Y0209726D02*
X0314547Y0209726D01*
X0314547Y0210512D02*
X0313240Y0210512D01*
X0313240Y0211298D02*
X0314547Y0211298D01*
X0314695Y0212084D02*
X0313092Y0212084D01*
X0312767Y0212870D02*
X0315021Y0212870D01*
X0315540Y0213656D02*
X0312247Y0213656D01*
X0311461Y0214441D02*
X0316326Y0214441D01*
X0321947Y0177374D02*
X0320277Y0176682D01*
X0318999Y0175404D01*
X0318307Y0173734D01*
X0318307Y0171927D01*
X0318999Y0170257D01*
X0320277Y0168979D01*
X0321947Y0168287D01*
X0323754Y0168287D01*
X0325424Y0168979D01*
X0326702Y0170257D01*
X0327394Y0171927D01*
X0327394Y0173734D01*
X0326702Y0175404D01*
X0325424Y0176682D01*
X0323754Y0177374D01*
X0321947Y0177374D01*
X0320362Y0176718D02*
X0002987Y0176718D01*
X0002987Y0177504D02*
X0354131Y0177504D01*
X0354131Y0178289D02*
X0002987Y0178289D01*
X0002987Y0179075D02*
X0354131Y0179075D01*
X0354131Y0179861D02*
X0002987Y0179861D01*
X0002987Y0180647D02*
X0134077Y0180647D01*
X0134108Y0180634D02*
X0135451Y0180634D01*
X0136691Y0181148D01*
X0137280Y0181736D01*
X0137868Y0181148D01*
X0139108Y0180634D01*
X0140451Y0180634D01*
X0141691Y0181148D01*
X0142641Y0182097D01*
X0143154Y0183338D01*
X0143154Y0188643D01*
X0142641Y0189883D01*
X0141691Y0190832D01*
X0140451Y0191346D01*
X0139108Y0191346D01*
X0137868Y0190832D01*
X0137280Y0190244D01*
X0136691Y0190832D01*
X0135451Y0191346D01*
X0134108Y0191346D01*
X0132868Y0190832D01*
X0131919Y0189883D01*
X0131405Y0188643D01*
X0131405Y0183338D01*
X0131919Y0182097D01*
X0132868Y0181148D01*
X0134108Y0180634D01*
X0135482Y0180647D02*
X0139077Y0180647D01*
X0140482Y0180647D02*
X0149077Y0180647D01*
X0149108Y0180634D02*
X0150451Y0180634D01*
X0151691Y0181148D01*
X0152641Y0182097D01*
X0153154Y0183338D01*
X0153154Y0188643D01*
X0152641Y0189883D01*
X0151691Y0190832D01*
X0150451Y0191346D01*
X0149108Y0191346D01*
X0147868Y0190832D01*
X0146919Y0189883D01*
X0146405Y0188643D01*
X0146405Y0183338D01*
X0146919Y0182097D01*
X0147868Y0181148D01*
X0149108Y0180634D01*
X0150482Y0180647D02*
X0159077Y0180647D01*
X0159108Y0180634D02*
X0160451Y0180634D01*
X0161691Y0181148D01*
X0162280Y0181736D01*
X0162868Y0181148D01*
X0164108Y0180634D01*
X0165451Y0180634D01*
X0166691Y0181148D01*
X0167280Y0181736D01*
X0167868Y0181148D01*
X0169108Y0180634D01*
X0170451Y0180634D01*
X0171691Y0181148D01*
X0172280Y0181736D01*
X0172868Y0181148D01*
X0174108Y0180634D01*
X0175451Y0180634D01*
X0176691Y0181148D01*
X0177280Y0181736D01*
X0177868Y0181148D01*
X0179108Y0180634D01*
X0180451Y0180634D01*
X0181691Y0181148D01*
X0182280Y0181736D01*
X0182868Y0181148D01*
X0184108Y0180634D01*
X0185451Y0180634D01*
X0186691Y0181148D01*
X0187280Y0181736D01*
X0187868Y0181148D01*
X0189108Y0180634D01*
X0190451Y0180634D01*
X0191691Y0181148D01*
X0192280Y0181736D01*
X0192868Y0181148D01*
X0194108Y0180634D01*
X0195451Y0180634D01*
X0196691Y0181148D01*
X0197641Y0182097D01*
X0198154Y0183338D01*
X0198154Y0188643D01*
X0197641Y0189883D01*
X0196691Y0190832D01*
X0195451Y0191346D01*
X0194108Y0191346D01*
X0192868Y0190832D01*
X0192280Y0190244D01*
X0191691Y0190832D01*
X0190451Y0191346D01*
X0189108Y0191346D01*
X0187868Y0190832D01*
X0187280Y0190244D01*
X0186691Y0190832D01*
X0185451Y0191346D01*
X0184108Y0191346D01*
X0182868Y0190832D01*
X0182280Y0190244D01*
X0181691Y0190832D01*
X0180451Y0191346D01*
X0179108Y0191346D01*
X0177868Y0190832D01*
X0177280Y0190244D01*
X0176691Y0190832D01*
X0175451Y0191346D01*
X0174108Y0191346D01*
X0172868Y0190832D01*
X0172280Y0190244D01*
X0171691Y0190832D01*
X0170451Y0191346D01*
X0169108Y0191346D01*
X0167868Y0190832D01*
X0167280Y0190244D01*
X0166691Y0190832D01*
X0165451Y0191346D01*
X0164108Y0191346D01*
X0162868Y0190832D01*
X0162280Y0190244D01*
X0161691Y0190832D01*
X0160451Y0191346D01*
X0159108Y0191346D01*
X0157868Y0190832D01*
X0156919Y0189883D01*
X0156405Y0188643D01*
X0156405Y0183338D01*
X0156919Y0182097D01*
X0157868Y0181148D01*
X0159108Y0180634D01*
X0160482Y0180647D02*
X0164077Y0180647D01*
X0165482Y0180647D02*
X0169077Y0180647D01*
X0170482Y0180647D02*
X0174077Y0180647D01*
X0175482Y0180647D02*
X0179077Y0180647D01*
X0180482Y0180647D02*
X0184077Y0180647D01*
X0185482Y0180647D02*
X0189077Y0180647D01*
X0190482Y0180647D02*
X0194077Y0180647D01*
X0195482Y0180647D02*
X0354131Y0180647D01*
X0354131Y0181433D02*
X0196976Y0181433D01*
X0197691Y0182219D02*
X0354131Y0182219D01*
X0354131Y0183005D02*
X0198016Y0183005D01*
X0198154Y0183791D02*
X0354131Y0183791D01*
X0354131Y0184577D02*
X0198154Y0184577D01*
X0198154Y0185363D02*
X0354131Y0185363D01*
X0354131Y0186149D02*
X0198154Y0186149D01*
X0198154Y0186934D02*
X0354131Y0186934D01*
X0354131Y0187720D02*
X0198154Y0187720D01*
X0198154Y0188506D02*
X0354131Y0188506D01*
X0354131Y0189292D02*
X0197885Y0189292D01*
X0197445Y0190078D02*
X0354131Y0190078D01*
X0354131Y0190864D02*
X0196615Y0190864D01*
X0192945Y0190864D02*
X0191615Y0190864D01*
X0187945Y0190864D02*
X0186615Y0190864D01*
X0182945Y0190864D02*
X0181615Y0190864D01*
X0177945Y0190864D02*
X0176615Y0190864D01*
X0172945Y0190864D02*
X0171615Y0190864D01*
X0167945Y0190864D02*
X0166615Y0190864D01*
X0162945Y0190864D02*
X0161615Y0190864D01*
X0157945Y0190864D02*
X0151615Y0190864D01*
X0152445Y0190078D02*
X0157114Y0190078D01*
X0156674Y0189292D02*
X0152885Y0189292D01*
X0153154Y0188506D02*
X0156405Y0188506D01*
X0156405Y0187720D02*
X0153154Y0187720D01*
X0153154Y0186934D02*
X0156405Y0186934D01*
X0156405Y0186149D02*
X0153154Y0186149D01*
X0153154Y0185363D02*
X0156405Y0185363D01*
X0156405Y0184577D02*
X0153154Y0184577D01*
X0153154Y0183791D02*
X0156405Y0183791D01*
X0156543Y0183005D02*
X0153016Y0183005D01*
X0152691Y0182219D02*
X0156868Y0182219D01*
X0157583Y0181433D02*
X0151976Y0181433D01*
X0147583Y0181433D02*
X0141976Y0181433D01*
X0142691Y0182219D02*
X0146868Y0182219D01*
X0146543Y0183005D02*
X0143016Y0183005D01*
X0143154Y0183791D02*
X0146405Y0183791D01*
X0146405Y0184577D02*
X0143154Y0184577D01*
X0143154Y0185363D02*
X0146405Y0185363D01*
X0146405Y0186149D02*
X0143154Y0186149D01*
X0143154Y0186934D02*
X0146405Y0186934D01*
X0146405Y0187720D02*
X0143154Y0187720D01*
X0143154Y0188506D02*
X0146405Y0188506D01*
X0146674Y0189292D02*
X0142885Y0189292D01*
X0142445Y0190078D02*
X0147114Y0190078D01*
X0147945Y0190864D02*
X0141615Y0190864D01*
X0137945Y0190864D02*
X0136615Y0190864D01*
X0132945Y0190864D02*
X0002987Y0190864D01*
X0002987Y0190078D02*
X0132114Y0190078D01*
X0131674Y0189292D02*
X0002987Y0189292D01*
X0002987Y0188506D02*
X0131405Y0188506D01*
X0131405Y0187720D02*
X0002987Y0187720D01*
X0002987Y0186934D02*
X0131405Y0186934D01*
X0131405Y0186149D02*
X0002987Y0186149D01*
X0002987Y0185363D02*
X0131405Y0185363D01*
X0131405Y0184577D02*
X0002987Y0184577D01*
X0002987Y0183791D02*
X0131405Y0183791D01*
X0131543Y0183005D02*
X0002987Y0183005D01*
X0002987Y0182219D02*
X0131868Y0182219D01*
X0132583Y0181433D02*
X0002987Y0181433D01*
X0002987Y0175932D02*
X0319526Y0175932D01*
X0318892Y0175146D02*
X0002987Y0175146D01*
X0002987Y0174360D02*
X0318566Y0174360D01*
X0318307Y0173574D02*
X0002987Y0173574D01*
X0002987Y0172788D02*
X0318307Y0172788D01*
X0318307Y0172002D02*
X0002987Y0172002D01*
X0002987Y0171216D02*
X0318601Y0171216D01*
X0318927Y0170430D02*
X0002987Y0170430D01*
X0002987Y0169644D02*
X0319611Y0169644D01*
X0320568Y0168858D02*
X0002987Y0168858D01*
X0002987Y0168073D02*
X0354131Y0168073D01*
X0354131Y0168858D02*
X0325133Y0168858D01*
X0326089Y0169644D02*
X0354131Y0169644D01*
X0354131Y0170430D02*
X0326774Y0170430D01*
X0327099Y0171216D02*
X0354131Y0171216D01*
X0354131Y0172002D02*
X0327394Y0172002D01*
X0327394Y0172788D02*
X0354131Y0172788D01*
X0354131Y0173574D02*
X0327394Y0173574D01*
X0327135Y0174360D02*
X0354131Y0174360D01*
X0354131Y0175146D02*
X0326809Y0175146D01*
X0326175Y0175932D02*
X0354131Y0175932D01*
X0354131Y0176718D02*
X0325339Y0176718D01*
X0323754Y0167531D02*
X0321947Y0167531D01*
X0320277Y0166840D01*
X0318999Y0165562D01*
X0318307Y0163892D01*
X0318307Y0162084D01*
X0318999Y0160415D01*
X0320277Y0159137D01*
X0321947Y0158445D01*
X0323754Y0158445D01*
X0325424Y0159137D01*
X0326702Y0160415D01*
X0326787Y0160621D01*
X0326873Y0160415D01*
X0328151Y0159137D01*
X0329821Y0158445D01*
X0331628Y0158445D01*
X0333298Y0159137D01*
X0334576Y0160415D01*
X0335268Y0162084D01*
X0335268Y0163892D01*
X0334576Y0165562D01*
X0333298Y0166840D01*
X0331628Y0167531D01*
X0329821Y0167531D01*
X0328151Y0166840D01*
X0326873Y0165562D01*
X0326787Y0165356D01*
X0326702Y0165562D01*
X0325424Y0166840D01*
X0323754Y0167531D01*
X0324345Y0167287D02*
X0329230Y0167287D01*
X0327812Y0166501D02*
X0325763Y0166501D01*
X0326549Y0165715D02*
X0327026Y0165715D01*
X0332219Y0167287D02*
X0354131Y0167287D01*
X0354131Y0166501D02*
X0333637Y0166501D01*
X0334423Y0165715D02*
X0354131Y0165715D01*
X0354131Y0164929D02*
X0334838Y0164929D01*
X0335164Y0164143D02*
X0354131Y0164143D01*
X0354131Y0163357D02*
X0335268Y0163357D01*
X0335268Y0162571D02*
X0354131Y0162571D01*
X0354131Y0161785D02*
X0335144Y0161785D01*
X0334818Y0160999D02*
X0354131Y0160999D01*
X0354131Y0160213D02*
X0334375Y0160213D01*
X0333589Y0159428D02*
X0354131Y0159428D01*
X0354131Y0158642D02*
X0332103Y0158642D01*
X0329346Y0158642D02*
X0324229Y0158642D01*
X0325715Y0159428D02*
X0327860Y0159428D01*
X0327074Y0160213D02*
X0326501Y0160213D01*
X0321472Y0158642D02*
X0248260Y0158642D01*
X0248260Y0159428D02*
X0319986Y0159428D01*
X0319200Y0160213D02*
X0248260Y0160213D01*
X0248260Y0160731D02*
X0247443Y0161547D01*
X0239596Y0161547D01*
X0238780Y0160731D01*
X0238780Y0152883D01*
X0239596Y0152067D01*
X0247443Y0152067D01*
X0248260Y0152883D01*
X0248260Y0160731D01*
X0247991Y0160999D02*
X0318757Y0160999D01*
X0318431Y0161785D02*
X0192137Y0161785D01*
X0192137Y0162220D02*
X0192501Y0162584D01*
X0192925Y0163606D01*
X0192925Y0164713D01*
X0192501Y0165735D01*
X0191719Y0166517D01*
X0190697Y0166941D01*
X0189590Y0166941D01*
X0188568Y0166517D01*
X0187786Y0165735D01*
X0187363Y0164713D01*
X0187363Y0163606D01*
X0187786Y0162584D01*
X0188150Y0162220D01*
X0188150Y0158735D01*
X0185105Y0155691D01*
X0184590Y0155691D01*
X0183568Y0155267D01*
X0182786Y0154485D01*
X0182363Y0153463D01*
X0182363Y0152356D01*
X0182786Y0151334D01*
X0183568Y0150552D01*
X0184590Y0150128D01*
X0185697Y0150128D01*
X0186719Y0150552D01*
X0187501Y0151334D01*
X0187925Y0152356D01*
X0187925Y0152871D01*
X0190970Y0155916D01*
X0192137Y0157084D01*
X0192137Y0162220D01*
X0192488Y0162571D02*
X0318307Y0162571D01*
X0318307Y0163357D02*
X0192822Y0163357D01*
X0192925Y0164143D02*
X0318411Y0164143D01*
X0318737Y0164929D02*
X0192835Y0164929D01*
X0192510Y0165715D02*
X0319152Y0165715D01*
X0319938Y0166501D02*
X0191735Y0166501D01*
X0188552Y0166501D02*
X0002987Y0166501D01*
X0002987Y0167287D02*
X0321356Y0167287D01*
X0354131Y0157856D02*
X0248260Y0157856D01*
X0248260Y0157070D02*
X0354131Y0157070D01*
X0354131Y0156284D02*
X0248260Y0156284D01*
X0248260Y0155498D02*
X0354131Y0155498D01*
X0354131Y0154712D02*
X0248260Y0154712D01*
X0248260Y0153926D02*
X0354131Y0153926D01*
X0354131Y0153140D02*
X0248260Y0153140D01*
X0247731Y0152354D02*
X0354131Y0152354D01*
X0354131Y0151568D02*
X0187598Y0151568D01*
X0187924Y0152354D02*
X0239309Y0152354D01*
X0238780Y0153140D02*
X0188194Y0153140D01*
X0188980Y0153926D02*
X0238780Y0153926D01*
X0238780Y0154712D02*
X0189766Y0154712D01*
X0190552Y0155498D02*
X0238780Y0155498D01*
X0238780Y0156284D02*
X0191338Y0156284D01*
X0192124Y0157070D02*
X0238780Y0157070D01*
X0238780Y0157856D02*
X0192137Y0157856D01*
X0192137Y0158642D02*
X0238780Y0158642D01*
X0238780Y0159428D02*
X0192137Y0159428D01*
X0192137Y0160213D02*
X0238780Y0160213D01*
X0239048Y0160999D02*
X0192137Y0160999D01*
X0188150Y0160999D02*
X0149637Y0160999D01*
X0149637Y0161235D02*
X0147925Y0162948D01*
X0147925Y0163463D01*
X0147501Y0164485D01*
X0146719Y0165267D01*
X0145697Y0165691D01*
X0144590Y0165691D01*
X0143568Y0165267D01*
X0142786Y0164485D01*
X0142363Y0163463D01*
X0142363Y0162356D01*
X0142786Y0161334D01*
X0143568Y0160552D01*
X0144590Y0160128D01*
X0145105Y0160128D01*
X0145650Y0159584D01*
X0145650Y0157349D01*
X0145286Y0156985D01*
X0144863Y0155963D01*
X0144863Y0154856D01*
X0145286Y0153834D01*
X0146068Y0153052D01*
X0147090Y0152628D01*
X0148197Y0152628D01*
X0149219Y0153052D01*
X0150001Y0153834D01*
X0150425Y0154856D01*
X0150425Y0155963D01*
X0150001Y0156985D01*
X0149637Y0157349D01*
X0149637Y0161235D01*
X0149087Y0161785D02*
X0188150Y0161785D01*
X0187799Y0162571D02*
X0148301Y0162571D01*
X0147925Y0163357D02*
X0187466Y0163357D01*
X0187363Y0164143D02*
X0147643Y0164143D01*
X0147057Y0164929D02*
X0187452Y0164929D01*
X0187778Y0165715D02*
X0002987Y0165715D01*
X0002987Y0164929D02*
X0143230Y0164929D01*
X0142644Y0164143D02*
X0002987Y0164143D01*
X0002987Y0163357D02*
X0142363Y0163357D01*
X0142363Y0162571D02*
X0002987Y0162571D01*
X0002987Y0161785D02*
X0142599Y0161785D01*
X0143121Y0160999D02*
X0110196Y0160999D01*
X0110465Y0160731D02*
X0109648Y0161547D01*
X0101801Y0161547D01*
X0100984Y0160731D01*
X0100984Y0152883D01*
X0101801Y0152067D01*
X0109648Y0152067D01*
X0110465Y0152883D01*
X0110465Y0160731D01*
X0110465Y0160213D02*
X0144385Y0160213D01*
X0145650Y0159428D02*
X0110465Y0159428D01*
X0110465Y0158642D02*
X0145650Y0158642D01*
X0145650Y0157856D02*
X0110465Y0157856D01*
X0110465Y0157070D02*
X0145371Y0157070D01*
X0144996Y0156284D02*
X0110465Y0156284D01*
X0110465Y0155498D02*
X0144863Y0155498D01*
X0144922Y0154712D02*
X0110465Y0154712D01*
X0110465Y0153926D02*
X0145248Y0153926D01*
X0145980Y0153140D02*
X0110465Y0153140D01*
X0109936Y0152354D02*
X0182363Y0152354D01*
X0182363Y0153140D02*
X0149308Y0153140D01*
X0150040Y0153926D02*
X0182555Y0153926D01*
X0183013Y0154712D02*
X0150365Y0154712D01*
X0150425Y0155498D02*
X0184126Y0155498D01*
X0185699Y0156284D02*
X0150292Y0156284D01*
X0149916Y0157070D02*
X0186485Y0157070D01*
X0187270Y0157856D02*
X0149637Y0157856D01*
X0149637Y0158642D02*
X0188056Y0158642D01*
X0188150Y0159428D02*
X0149637Y0159428D01*
X0149637Y0160213D02*
X0188150Y0160213D01*
X0186950Y0150782D02*
X0354131Y0150782D01*
X0354131Y0149997D02*
X0002987Y0149997D01*
X0002987Y0150782D02*
X0183338Y0150782D01*
X0182689Y0151568D02*
X0002987Y0151568D01*
X0002987Y0152354D02*
X0101513Y0152354D01*
X0100984Y0153140D02*
X0002987Y0153140D01*
X0002987Y0153926D02*
X0100984Y0153926D01*
X0100984Y0154712D02*
X0002987Y0154712D01*
X0002987Y0155498D02*
X0100984Y0155498D01*
X0100984Y0156284D02*
X0002987Y0156284D01*
X0002987Y0157070D02*
X0100984Y0157070D01*
X0100984Y0157856D02*
X0002987Y0157856D01*
X0002987Y0158642D02*
X0100984Y0158642D01*
X0100984Y0159428D02*
X0002987Y0159428D01*
X0002987Y0160213D02*
X0100984Y0160213D01*
X0101253Y0160999D02*
X0002987Y0160999D01*
X0002987Y0149211D02*
X0354131Y0149211D01*
X0354131Y0148425D02*
X0002987Y0148425D01*
X0002987Y0147639D02*
X0354131Y0147639D01*
X0354131Y0146853D02*
X0188187Y0146853D01*
X0188192Y0146851D02*
X0187025Y0147334D01*
X0185762Y0147334D01*
X0184595Y0146851D01*
X0184098Y0146353D01*
X0169235Y0146353D01*
X0167950Y0145068D01*
X0166466Y0143584D01*
X0165762Y0143584D01*
X0164595Y0143101D01*
X0163702Y0142208D01*
X0163348Y0141353D01*
X0148690Y0141353D01*
X0148192Y0141851D01*
X0147025Y0142334D01*
X0145762Y0142334D01*
X0144595Y0141851D01*
X0143702Y0140958D01*
X0143219Y0139791D01*
X0143219Y0138528D01*
X0143702Y0137361D01*
X0144595Y0136468D01*
X0145762Y0135985D01*
X0147025Y0135985D01*
X0148192Y0136468D01*
X0148690Y0136966D01*
X0166052Y0136966D01*
X0166321Y0137235D01*
X0167025Y0137235D01*
X0168192Y0137718D01*
X0169085Y0138611D01*
X0169568Y0139778D01*
X0169568Y0140482D01*
X0171052Y0141966D01*
X0184098Y0141966D01*
X0184595Y0141468D01*
X0185762Y0140985D01*
X0187025Y0140985D01*
X0188192Y0141468D01*
X0189085Y0142361D01*
X0189568Y0143528D01*
X0189568Y0144791D01*
X0189085Y0145958D01*
X0188192Y0146851D01*
X0188976Y0146067D02*
X0354131Y0146067D01*
X0354131Y0145281D02*
X0189365Y0145281D01*
X0189568Y0144495D02*
X0354131Y0144495D01*
X0354131Y0143709D02*
X0189568Y0143709D01*
X0189318Y0142923D02*
X0354131Y0142923D01*
X0354131Y0142137D02*
X0188862Y0142137D01*
X0187911Y0141352D02*
X0354131Y0141352D01*
X0354131Y0140566D02*
X0169652Y0140566D01*
X0169568Y0139780D02*
X0354131Y0139780D01*
X0354131Y0138994D02*
X0169244Y0138994D01*
X0168682Y0138208D02*
X0354131Y0138208D01*
X0354131Y0137422D02*
X0167477Y0137422D01*
X0170438Y0141352D02*
X0184876Y0141352D01*
X0184600Y0146853D02*
X0002987Y0146853D01*
X0002987Y0146067D02*
X0168949Y0146067D01*
X0168163Y0145281D02*
X0002987Y0145281D01*
X0002987Y0144495D02*
X0167377Y0144495D01*
X0166591Y0143709D02*
X0002987Y0143709D01*
X0002987Y0142923D02*
X0164418Y0142923D01*
X0163673Y0142137D02*
X0147500Y0142137D01*
X0145287Y0142137D02*
X0002987Y0142137D01*
X0002987Y0141352D02*
X0144096Y0141352D01*
X0143540Y0140566D02*
X0002987Y0140566D01*
X0002987Y0139780D02*
X0143219Y0139780D01*
X0143219Y0138994D02*
X0002987Y0138994D01*
X0002987Y0138208D02*
X0143351Y0138208D01*
X0143677Y0137422D02*
X0002987Y0137422D01*
X0002987Y0136636D02*
X0144427Y0136636D01*
X0148360Y0136636D02*
X0354131Y0136636D01*
X0354131Y0135850D02*
X0002987Y0135850D01*
X0002987Y0135064D02*
X0354131Y0135064D01*
X0354131Y0134278D02*
X0002987Y0134278D01*
X0002987Y0133492D02*
X0354131Y0133492D01*
X0354131Y0132706D02*
X0002987Y0132706D01*
X0002987Y0131921D02*
X0354131Y0131921D01*
X0354131Y0131135D02*
X0002987Y0131135D01*
X0002987Y0130349D02*
X0354131Y0130349D01*
X0354131Y0129563D02*
X0002987Y0129563D01*
X0002987Y0128777D02*
X0101511Y0128777D01*
X0101801Y0129067D02*
X0100984Y0128251D01*
X0100984Y0120403D01*
X0101801Y0119587D01*
X0109648Y0119587D01*
X0110465Y0120403D01*
X0110465Y0128251D01*
X0109648Y0129067D01*
X0101801Y0129067D01*
X0100984Y0127991D02*
X0002987Y0127991D01*
X0002987Y0127205D02*
X0100984Y0127205D01*
X0100984Y0126419D02*
X0002987Y0126419D01*
X0002987Y0125633D02*
X0100984Y0125633D01*
X0100984Y0124847D02*
X0002987Y0124847D01*
X0002987Y0124061D02*
X0100984Y0124061D01*
X0100984Y0123276D02*
X0002987Y0123276D01*
X0002987Y0122490D02*
X0100984Y0122490D01*
X0100984Y0121704D02*
X0002987Y0121704D01*
X0002987Y0120918D02*
X0100984Y0120918D01*
X0101255Y0120132D02*
X0002987Y0120132D01*
X0002987Y0119346D02*
X0354131Y0119346D01*
X0354131Y0120132D02*
X0247989Y0120132D01*
X0248260Y0120403D02*
X0247443Y0119587D01*
X0239596Y0119587D01*
X0238780Y0120403D01*
X0238780Y0128251D01*
X0239596Y0129067D01*
X0247443Y0129067D01*
X0248260Y0128251D01*
X0248260Y0120403D01*
X0248260Y0120918D02*
X0354131Y0120918D01*
X0354131Y0121704D02*
X0248260Y0121704D01*
X0248260Y0122490D02*
X0354131Y0122490D01*
X0354131Y0123276D02*
X0248260Y0123276D01*
X0248260Y0124061D02*
X0354131Y0124061D01*
X0354131Y0124847D02*
X0248260Y0124847D01*
X0248260Y0125633D02*
X0354131Y0125633D01*
X0354131Y0126419D02*
X0248260Y0126419D01*
X0248260Y0127205D02*
X0354131Y0127205D01*
X0354131Y0127991D02*
X0248260Y0127991D01*
X0247733Y0128777D02*
X0354131Y0128777D01*
X0354131Y0118560D02*
X0002987Y0118560D01*
X0002987Y0117774D02*
X0354131Y0117774D01*
X0354131Y0116988D02*
X0002987Y0116988D01*
X0002987Y0116202D02*
X0354131Y0116202D01*
X0354131Y0115416D02*
X0002987Y0115416D01*
X0002987Y0114630D02*
X0354131Y0114630D01*
X0354131Y0113845D02*
X0002987Y0113845D01*
X0002987Y0113059D02*
X0354131Y0113059D01*
X0354131Y0112273D02*
X0002987Y0112273D01*
X0002987Y0111487D02*
X0354131Y0111487D01*
X0354131Y0110701D02*
X0002987Y0110701D01*
X0002987Y0109915D02*
X0354131Y0109915D01*
X0354131Y0109129D02*
X0002987Y0109129D01*
X0002987Y0108343D02*
X0132680Y0108343D01*
X0133262Y0108584D02*
X0132095Y0108101D01*
X0131202Y0107208D01*
X0130719Y0106041D01*
X0130719Y0104778D01*
X0131202Y0103611D01*
X0131700Y0103113D01*
X0131700Y0098956D01*
X0131202Y0098458D01*
X0130719Y0097291D01*
X0130719Y0096028D01*
X0131202Y0094861D01*
X0132095Y0093968D01*
X0133262Y0093485D01*
X0134525Y0093485D01*
X0135692Y0093968D01*
X0136585Y0094861D01*
X0137068Y0096028D01*
X0137068Y0097291D01*
X0136585Y0098458D01*
X0136087Y0098956D01*
X0136087Y0103113D01*
X0136585Y0103611D01*
X0137068Y0104778D01*
X0137068Y0106041D01*
X0136585Y0107208D01*
X0135692Y0108101D01*
X0134525Y0108584D01*
X0133262Y0108584D01*
X0135107Y0108343D02*
X0195180Y0108343D01*
X0195762Y0108584D02*
X0194595Y0108101D01*
X0193702Y0107208D01*
X0193219Y0106041D01*
X0193219Y0104778D01*
X0193702Y0103611D01*
X0194200Y0103113D01*
X0194200Y0098956D01*
X0193702Y0098458D01*
X0193219Y0097291D01*
X0193219Y0096028D01*
X0193702Y0094861D01*
X0194595Y0093968D01*
X0195762Y0093485D01*
X0197025Y0093485D01*
X0198192Y0093968D01*
X0199085Y0094861D01*
X0199568Y0096028D01*
X0199568Y0097291D01*
X0199085Y0098458D01*
X0198587Y0098956D01*
X0198587Y0103113D01*
X0199085Y0103611D01*
X0199568Y0104778D01*
X0199568Y0106041D01*
X0199085Y0107208D01*
X0198192Y0108101D01*
X0197025Y0108584D01*
X0195762Y0108584D01*
X0197607Y0108343D02*
X0354131Y0108343D01*
X0354131Y0107557D02*
X0198736Y0107557D01*
X0199266Y0106771D02*
X0354131Y0106771D01*
X0354131Y0105985D02*
X0199568Y0105985D01*
X0199568Y0105200D02*
X0354131Y0105200D01*
X0354131Y0104414D02*
X0247490Y0104414D01*
X0247443Y0104461D02*
X0239596Y0104461D01*
X0238780Y0103644D01*
X0238780Y0095797D01*
X0239596Y0094980D01*
X0247443Y0094980D01*
X0248260Y0095797D01*
X0248260Y0103644D01*
X0247443Y0104461D01*
X0248260Y0103628D02*
X0354131Y0103628D01*
X0354131Y0102842D02*
X0248260Y0102842D01*
X0248260Y0102056D02*
X0354131Y0102056D01*
X0354131Y0101270D02*
X0248260Y0101270D01*
X0248260Y0100484D02*
X0354131Y0100484D01*
X0354131Y0099698D02*
X0248260Y0099698D01*
X0248260Y0098912D02*
X0354131Y0098912D01*
X0354131Y0098126D02*
X0248260Y0098126D01*
X0248260Y0097340D02*
X0354131Y0097340D01*
X0354131Y0096554D02*
X0248260Y0096554D01*
X0248232Y0095769D02*
X0354130Y0095769D01*
X0354068Y0094983D02*
X0247446Y0094983D01*
X0239594Y0094983D02*
X0227761Y0094983D01*
X0227758Y0094980D02*
X0228575Y0095797D01*
X0228575Y0103644D01*
X0227758Y0104461D01*
X0219911Y0104461D01*
X0219094Y0103644D01*
X0219094Y0095797D01*
X0219911Y0094980D01*
X0227758Y0094980D01*
X0228547Y0095769D02*
X0238808Y0095769D01*
X0238780Y0096554D02*
X0228575Y0096554D01*
X0228575Y0097340D02*
X0238780Y0097340D01*
X0238780Y0098126D02*
X0228575Y0098126D01*
X0228575Y0098912D02*
X0238780Y0098912D01*
X0238780Y0099698D02*
X0228575Y0099698D01*
X0228575Y0100484D02*
X0238780Y0100484D01*
X0238780Y0101270D02*
X0228575Y0101270D01*
X0228575Y0102056D02*
X0238780Y0102056D01*
X0238780Y0102842D02*
X0228575Y0102842D01*
X0228575Y0103628D02*
X0238780Y0103628D01*
X0239549Y0104414D02*
X0227805Y0104414D01*
X0219864Y0104414D02*
X0199418Y0104414D01*
X0199092Y0103628D02*
X0219094Y0103628D01*
X0219094Y0102842D02*
X0198587Y0102842D01*
X0198587Y0102056D02*
X0219094Y0102056D01*
X0219094Y0101270D02*
X0198587Y0101270D01*
X0198587Y0100484D02*
X0219094Y0100484D01*
X0219094Y0099698D02*
X0198587Y0099698D01*
X0198631Y0098912D02*
X0219094Y0098912D01*
X0219094Y0098126D02*
X0199222Y0098126D01*
X0199548Y0097340D02*
X0219094Y0097340D01*
X0219094Y0096554D02*
X0199568Y0096554D01*
X0199461Y0095769D02*
X0219123Y0095769D01*
X0219909Y0094983D02*
X0199136Y0094983D01*
X0198421Y0094197D02*
X0353857Y0094197D01*
X0353602Y0093411D02*
X0003516Y0093411D01*
X0003261Y0094197D02*
X0131867Y0094197D01*
X0131152Y0094983D02*
X0109651Y0094983D01*
X0109648Y0094980D02*
X0110465Y0095797D01*
X0110465Y0103644D01*
X0109648Y0104461D01*
X0101801Y0104461D01*
X0100984Y0103644D01*
X0100984Y0095797D01*
X0101801Y0094980D01*
X0109648Y0094980D01*
X0110436Y0095769D02*
X0130826Y0095769D01*
X0130719Y0096554D02*
X0110465Y0096554D01*
X0110465Y0097340D02*
X0130739Y0097340D01*
X0131065Y0098126D02*
X0110465Y0098126D01*
X0110465Y0098912D02*
X0131657Y0098912D01*
X0131700Y0099698D02*
X0110465Y0099698D01*
X0110465Y0100484D02*
X0131700Y0100484D01*
X0131700Y0101270D02*
X0110465Y0101270D01*
X0110465Y0102056D02*
X0131700Y0102056D01*
X0131700Y0102842D02*
X0110465Y0102842D01*
X0110465Y0103628D02*
X0131195Y0103628D01*
X0130870Y0104414D02*
X0109695Y0104414D01*
X0101754Y0104414D02*
X0090010Y0104414D01*
X0089963Y0104461D02*
X0082116Y0104461D01*
X0081299Y0103644D01*
X0081299Y0095797D01*
X0082116Y0094980D01*
X0089963Y0094980D01*
X0090780Y0095797D01*
X0090780Y0103644D01*
X0089963Y0104461D01*
X0090780Y0103628D02*
X0100984Y0103628D01*
X0100984Y0102842D02*
X0090780Y0102842D01*
X0090780Y0102056D02*
X0100984Y0102056D01*
X0100984Y0101270D02*
X0090780Y0101270D01*
X0090780Y0100484D02*
X0100984Y0100484D01*
X0100984Y0099698D02*
X0090780Y0099698D01*
X0090780Y0098912D02*
X0100984Y0098912D01*
X0100984Y0098126D02*
X0090780Y0098126D01*
X0090780Y0097340D02*
X0100984Y0097340D01*
X0100984Y0096554D02*
X0090780Y0096554D01*
X0090751Y0095769D02*
X0101012Y0095769D01*
X0101798Y0094983D02*
X0089965Y0094983D01*
X0082113Y0094983D02*
X0003050Y0094983D01*
X0002989Y0095769D02*
X0081327Y0095769D01*
X0081299Y0096554D02*
X0002987Y0096554D01*
X0002987Y0097340D02*
X0081299Y0097340D01*
X0081299Y0098126D02*
X0002987Y0098126D01*
X0002987Y0098912D02*
X0081299Y0098912D01*
X0081299Y0099698D02*
X0002987Y0099698D01*
X0002987Y0100484D02*
X0081299Y0100484D01*
X0081299Y0101270D02*
X0002987Y0101270D01*
X0002987Y0102056D02*
X0081299Y0102056D01*
X0081299Y0102842D02*
X0002987Y0102842D01*
X0002987Y0103628D02*
X0081299Y0103628D01*
X0082069Y0104414D02*
X0002987Y0104414D01*
X0002987Y0105200D02*
X0130719Y0105200D01*
X0130719Y0105985D02*
X0002987Y0105985D01*
X0002987Y0106771D02*
X0131021Y0106771D01*
X0131552Y0107557D02*
X0002987Y0107557D01*
X0003895Y0092625D02*
X0353223Y0092625D01*
X0352652Y0091839D02*
X0004466Y0091839D01*
X0005225Y0091053D02*
X0351893Y0091053D01*
X0350811Y0090267D02*
X0006307Y0090267D01*
X0110193Y0120132D02*
X0239051Y0120132D01*
X0238780Y0120918D02*
X0110465Y0120918D01*
X0110465Y0121704D02*
X0238780Y0121704D01*
X0238780Y0122490D02*
X0110465Y0122490D01*
X0110465Y0123276D02*
X0238780Y0123276D01*
X0238780Y0124061D02*
X0110465Y0124061D01*
X0110465Y0124847D02*
X0238780Y0124847D01*
X0238780Y0125633D02*
X0110465Y0125633D01*
X0110465Y0126419D02*
X0238780Y0126419D01*
X0238780Y0127205D02*
X0110465Y0127205D01*
X0110465Y0127991D02*
X0238780Y0127991D01*
X0239306Y0128777D02*
X0109938Y0128777D01*
X0136236Y0107557D02*
X0194052Y0107557D01*
X0193521Y0106771D02*
X0136766Y0106771D01*
X0137068Y0105985D02*
X0193219Y0105985D01*
X0193219Y0105200D02*
X0137068Y0105200D01*
X0136918Y0104414D02*
X0193370Y0104414D01*
X0193695Y0103628D02*
X0136592Y0103628D01*
X0136087Y0102842D02*
X0194200Y0102842D01*
X0194200Y0102056D02*
X0136087Y0102056D01*
X0136087Y0101270D02*
X0194200Y0101270D01*
X0194200Y0100484D02*
X0136087Y0100484D01*
X0136087Y0099698D02*
X0194200Y0099698D01*
X0194157Y0098912D02*
X0136131Y0098912D01*
X0136722Y0098126D02*
X0193565Y0098126D01*
X0193239Y0097340D02*
X0137048Y0097340D01*
X0137068Y0096554D02*
X0193219Y0096554D01*
X0193326Y0095769D02*
X0136961Y0095769D01*
X0136636Y0094983D02*
X0193652Y0094983D01*
X0194367Y0094197D02*
X0135921Y0094197D01*
X0136976Y0181433D02*
X0137583Y0181433D01*
X0161976Y0181433D02*
X0162583Y0181433D01*
X0166976Y0181433D02*
X0167583Y0181433D01*
X0171976Y0181433D02*
X0172583Y0181433D01*
X0176976Y0181433D02*
X0177583Y0181433D01*
X0181976Y0181433D02*
X0182583Y0181433D01*
X0186976Y0181433D02*
X0187583Y0181433D01*
X0191976Y0181433D02*
X0192583Y0181433D01*
X0238492Y0334686D02*
X0097849Y0334686D01*
X0006987Y0361407D02*
X0350131Y0361407D01*
X0351528Y0360621D02*
X0005590Y0360621D01*
X0004659Y0359835D02*
X0352459Y0359835D01*
X0353030Y0359049D02*
X0004088Y0359049D01*
X0003602Y0358263D02*
X0353516Y0358263D01*
X0353771Y0357478D02*
X0003347Y0357478D01*
X0002987Y0199509D02*
X0354131Y0199509D01*
X0354131Y0198723D02*
X0002987Y0198723D01*
X0002987Y0197937D02*
X0354131Y0197937D01*
X0354131Y0197151D02*
X0002987Y0197151D01*
X0002987Y0196365D02*
X0354131Y0196365D01*
X0354131Y0195580D02*
X0002987Y0195580D01*
X0002987Y0194794D02*
X0354131Y0194794D01*
X0354131Y0194008D02*
X0002987Y0194008D01*
X0002987Y0193222D02*
X0354131Y0193222D01*
X0354131Y0192436D02*
X0002987Y0192436D01*
X0002987Y0191650D02*
X0354131Y0191650D01*
X0354131Y0334686D02*
X0291795Y0334686D01*
X0291008Y0334360D02*
X0292606Y0335022D01*
X0293828Y0336245D01*
X0294490Y0337842D01*
X0294490Y0345477D01*
X0293828Y0347074D01*
X0292606Y0348297D01*
X0291008Y0348959D01*
X0289279Y0348959D01*
X0287682Y0348297D01*
X0286459Y0347074D01*
X0285797Y0345477D01*
X0285797Y0337842D01*
X0286459Y0336245D01*
X0287682Y0335022D01*
X0289279Y0334360D01*
X0291008Y0334360D01*
X0293056Y0335472D02*
X0354131Y0335472D01*
X0354131Y0336258D02*
X0293834Y0336258D01*
X0294159Y0337044D02*
X0354131Y0337044D01*
X0354131Y0337830D02*
X0294485Y0337830D01*
X0294490Y0338616D02*
X0354131Y0338616D01*
X0354131Y0339402D02*
X0294490Y0339402D01*
X0294490Y0340187D02*
X0354131Y0340187D01*
X0354131Y0340973D02*
X0294490Y0340973D01*
X0294490Y0341759D02*
X0354131Y0341759D01*
X0354131Y0342545D02*
X0294490Y0342545D01*
X0294490Y0343331D02*
X0354131Y0343331D01*
X0354131Y0344117D02*
X0294490Y0344117D01*
X0294490Y0344903D02*
X0354131Y0344903D01*
X0354131Y0345689D02*
X0294402Y0345689D01*
X0294077Y0346475D02*
X0354131Y0346475D01*
X0354131Y0347261D02*
X0293642Y0347261D01*
X0292856Y0348047D02*
X0354131Y0348047D01*
X0354131Y0348833D02*
X0291313Y0348833D01*
X0288975Y0348833D02*
X0281313Y0348833D01*
X0281008Y0348959D02*
X0279279Y0348959D01*
X0277682Y0348297D01*
X0276459Y0347074D01*
X0275797Y0345477D01*
X0275797Y0337842D01*
X0276459Y0336245D01*
X0277682Y0335022D01*
X0279279Y0334360D01*
X0281008Y0334360D01*
X0282606Y0335022D01*
X0283828Y0336245D01*
X0284490Y0337842D01*
X0284490Y0345477D01*
X0283828Y0347074D01*
X0282606Y0348297D01*
X0281008Y0348959D01*
X0278975Y0348833D02*
X0271313Y0348833D01*
X0271008Y0348959D02*
X0269279Y0348959D01*
X0267682Y0348297D01*
X0266459Y0347074D01*
X0265797Y0345477D01*
X0265797Y0337842D01*
X0266459Y0336245D01*
X0267682Y0335022D01*
X0269279Y0334360D01*
X0271008Y0334360D01*
X0272606Y0335022D01*
X0273828Y0336245D01*
X0274490Y0337842D01*
X0274490Y0345477D01*
X0273828Y0347074D01*
X0272606Y0348297D01*
X0271008Y0348959D01*
X0268975Y0348833D02*
X0251313Y0348833D01*
X0251008Y0348959D02*
X0249279Y0348959D01*
X0247682Y0348297D01*
X0246459Y0347074D01*
X0245797Y0345477D01*
X0245797Y0337842D01*
X0246459Y0336245D01*
X0247682Y0335022D01*
X0249279Y0334360D01*
X0251008Y0334360D01*
X0252606Y0335022D01*
X0253828Y0336245D01*
X0254490Y0337842D01*
X0254490Y0345477D01*
X0253828Y0347074D01*
X0252606Y0348297D01*
X0251008Y0348959D01*
X0248975Y0348833D02*
X0241313Y0348833D01*
X0242856Y0348047D02*
X0247431Y0348047D01*
X0246645Y0347261D02*
X0243642Y0347261D01*
X0244077Y0346475D02*
X0246211Y0346475D01*
X0245885Y0345689D02*
X0244402Y0345689D01*
X0244490Y0344903D02*
X0245797Y0344903D01*
X0245797Y0344117D02*
X0244490Y0344117D01*
X0244490Y0343331D02*
X0245797Y0343331D01*
X0245797Y0342545D02*
X0244490Y0342545D01*
X0244490Y0341759D02*
X0245797Y0341759D01*
X0245797Y0340973D02*
X0244490Y0340973D01*
X0244490Y0340187D02*
X0245797Y0340187D01*
X0245797Y0339402D02*
X0244490Y0339402D01*
X0244490Y0338616D02*
X0245797Y0338616D01*
X0245802Y0337830D02*
X0244485Y0337830D01*
X0244159Y0337044D02*
X0246128Y0337044D01*
X0246453Y0336258D02*
X0243834Y0336258D01*
X0243056Y0335472D02*
X0247232Y0335472D01*
X0248492Y0334686D02*
X0241795Y0334686D01*
X0251795Y0334686D02*
X0268492Y0334686D01*
X0267232Y0335472D02*
X0253056Y0335472D01*
X0253834Y0336258D02*
X0266453Y0336258D01*
X0266128Y0337044D02*
X0254159Y0337044D01*
X0254485Y0337830D02*
X0265802Y0337830D01*
X0265797Y0338616D02*
X0254490Y0338616D01*
X0254490Y0339402D02*
X0265797Y0339402D01*
X0265797Y0340187D02*
X0254490Y0340187D01*
X0254490Y0340973D02*
X0265797Y0340973D01*
X0265797Y0341759D02*
X0254490Y0341759D01*
X0254490Y0342545D02*
X0265797Y0342545D01*
X0265797Y0343331D02*
X0254490Y0343331D01*
X0254490Y0344117D02*
X0265797Y0344117D01*
X0265797Y0344903D02*
X0254490Y0344903D01*
X0254402Y0345689D02*
X0265885Y0345689D01*
X0266211Y0346475D02*
X0254077Y0346475D01*
X0253642Y0347261D02*
X0266645Y0347261D01*
X0267431Y0348047D02*
X0252856Y0348047D01*
X0272856Y0348047D02*
X0277431Y0348047D01*
X0276645Y0347261D02*
X0273642Y0347261D01*
X0274077Y0346475D02*
X0276211Y0346475D01*
X0275885Y0345689D02*
X0274402Y0345689D01*
X0274490Y0344903D02*
X0275797Y0344903D01*
X0275797Y0344117D02*
X0274490Y0344117D01*
X0274490Y0343331D02*
X0275797Y0343331D01*
X0275797Y0342545D02*
X0274490Y0342545D01*
X0274490Y0341759D02*
X0275797Y0341759D01*
X0275797Y0340973D02*
X0274490Y0340973D01*
X0274490Y0340187D02*
X0275797Y0340187D01*
X0275797Y0339402D02*
X0274490Y0339402D01*
X0274490Y0338616D02*
X0275797Y0338616D01*
X0275802Y0337830D02*
X0274485Y0337830D01*
X0274159Y0337044D02*
X0276128Y0337044D01*
X0276453Y0336258D02*
X0273834Y0336258D01*
X0273056Y0335472D02*
X0277232Y0335472D01*
X0278492Y0334686D02*
X0271795Y0334686D01*
X0281795Y0334686D02*
X0288492Y0334686D01*
X0287232Y0335472D02*
X0283056Y0335472D01*
X0283834Y0336258D02*
X0286453Y0336258D01*
X0286128Y0337044D02*
X0284159Y0337044D01*
X0284485Y0337830D02*
X0285802Y0337830D01*
X0285797Y0338616D02*
X0284490Y0338616D01*
X0284490Y0339402D02*
X0285797Y0339402D01*
X0285797Y0340187D02*
X0284490Y0340187D01*
X0284490Y0340973D02*
X0285797Y0340973D01*
X0285797Y0341759D02*
X0284490Y0341759D01*
X0284490Y0342545D02*
X0285797Y0342545D01*
X0285797Y0343331D02*
X0284490Y0343331D01*
X0284490Y0344117D02*
X0285797Y0344117D01*
X0285797Y0344903D02*
X0284490Y0344903D01*
X0284402Y0345689D02*
X0285885Y0345689D01*
X0286211Y0346475D02*
X0284077Y0346475D01*
X0283642Y0347261D02*
X0286645Y0347261D01*
X0287431Y0348047D02*
X0282856Y0348047D01*
D22*
X0336039Y0343815D03*
X0336039Y0107594D03*
X0021079Y0107594D03*
X0021079Y0343815D03*
D23*
X0063894Y0295409D03*
X0063894Y0290409D03*
X0077644Y0287909D03*
X0077644Y0282909D03*
X0077644Y0277909D03*
X0077644Y0272909D03*
X0077644Y0267909D03*
X0061394Y0266659D03*
X0061394Y0261659D03*
X0061394Y0256659D03*
X0061394Y0251659D03*
X0116394Y0252909D03*
X0116394Y0247909D03*
X0126394Y0255409D03*
X0126394Y0260409D03*
X0132644Y0260409D03*
X0132644Y0255409D03*
X0138894Y0255409D03*
X0138894Y0260409D03*
X0150144Y0257909D03*
X0150144Y0262909D03*
X0156394Y0262909D03*
X0156394Y0257909D03*
X0162644Y0257909D03*
X0162644Y0262909D03*
X0168894Y0262909D03*
X0168894Y0257909D03*
X0180144Y0260409D03*
X0180144Y0267909D03*
X0192644Y0279159D03*
X0192644Y0284159D03*
X0206394Y0274159D03*
X0220144Y0272909D03*
X0220144Y0269159D03*
X0220144Y0246659D03*
X0217644Y0227909D03*
X0212644Y0227909D03*
X0197644Y0247909D03*
X0188894Y0245409D03*
X0193894Y0264159D03*
X0227644Y0294159D03*
X0240144Y0287909D03*
X0245144Y0261659D03*
X0257644Y0256659D03*
X0263894Y0256659D03*
X0263894Y0260409D03*
X0281394Y0251659D03*
X0288894Y0264159D03*
X0288894Y0269159D03*
X0296394Y0272909D03*
X0296394Y0277909D03*
X0293894Y0287909D03*
X0293894Y0292909D03*
X0287644Y0285409D03*
X0287644Y0280409D03*
X0300144Y0259159D03*
X0305144Y0259159D03*
X0296394Y0246659D03*
X0321394Y0251659D03*
X0321394Y0256659D03*
X0321394Y0261659D03*
X0321394Y0266659D03*
X0317644Y0277909D03*
X0317644Y0282909D03*
X0315144Y0292909D03*
X0310144Y0292909D03*
X0260144Y0316659D03*
X0260144Y0322909D03*
X0260144Y0329159D03*
X0211394Y0326659D03*
X0211394Y0321659D03*
X0207644Y0314159D03*
X0202644Y0314159D03*
X0211394Y0331659D03*
X0211394Y0340409D03*
X0211394Y0345409D03*
X0211394Y0350409D03*
X0116394Y0267909D03*
X0116394Y0262909D03*
X0116394Y0257909D03*
X0150144Y0240409D03*
X0150144Y0217909D03*
X0158894Y0216659D03*
X0168894Y0216659D03*
X0178894Y0216659D03*
X0188894Y0216659D03*
X0188894Y0205409D03*
X0178894Y0205409D03*
X0168894Y0205409D03*
X0158894Y0205409D03*
X0143894Y0200409D03*
X0143894Y0194159D03*
X0145144Y0179159D03*
X0140144Y0176659D03*
X0155144Y0179159D03*
X0175144Y0171659D03*
X0180144Y0171659D03*
X0185144Y0171659D03*
X0185144Y0166659D03*
X0185144Y0161659D03*
X0202644Y0154159D03*
X0207644Y0154159D03*
X0212644Y0154159D03*
X0186394Y0144159D03*
X0188894Y0124159D03*
X0183894Y0124159D03*
X0178894Y0124159D03*
X0173894Y0124159D03*
X0156394Y0124159D03*
X0151394Y0124159D03*
X0146394Y0124159D03*
X0141394Y0124159D03*
X0136394Y0124159D03*
X0122644Y0112909D03*
X0122644Y0107909D03*
X0133894Y0105409D03*
X0133894Y0096659D03*
X0148894Y0106659D03*
X0153894Y0106659D03*
X0158894Y0106659D03*
X0171394Y0106659D03*
X0176394Y0106659D03*
X0181394Y0106659D03*
X0196394Y0105409D03*
X0196394Y0096659D03*
X0207644Y0107909D03*
X0207644Y0112909D03*
X0193894Y0124159D03*
X0166394Y0140409D03*
X0146394Y0139159D03*
X0127644Y0154159D03*
X0122644Y0154159D03*
X0117644Y0154159D03*
X0107644Y0179159D03*
X0102644Y0179159D03*
X0097644Y0179159D03*
X0113894Y0190409D03*
X0123894Y0187909D03*
X0240144Y0246659D03*
D24*
X0220144Y0246659D01*
X0202644Y0246659D01*
X0198894Y0242909D01*
X0196394Y0242909D01*
X0193894Y0245409D01*
X0188894Y0245409D01*
X0197644Y0247909D02*
X0201394Y0251659D01*
X0281394Y0251659D01*
X0291394Y0251659D01*
X0296394Y0246659D01*
X0240144Y0287909D02*
X0233894Y0287909D01*
X0227644Y0294159D01*
X0150144Y0240409D02*
X0150144Y0217909D01*
D25*
X0192644Y0249159D03*
X0220144Y0224159D03*
X0218894Y0220409D03*
X0220144Y0216659D03*
X0232644Y0217909D03*
X0235144Y0226659D03*
X0237644Y0230409D03*
X0243894Y0255409D03*
X0257644Y0290409D03*
X0190144Y0164159D03*
X0185144Y0152909D03*
X0147644Y0155409D03*
X0145144Y0162909D03*
D26*
X0147644Y0160409D01*
X0147644Y0155409D01*
X0185144Y0152909D02*
X0190144Y0157909D01*
X0190144Y0164159D01*
X0220144Y0216659D02*
X0221394Y0217909D01*
X0232644Y0217909D01*
X0235144Y0221659D02*
X0238894Y0225409D01*
X0238894Y0229159D01*
X0237644Y0230409D01*
X0235144Y0226659D02*
X0232644Y0224159D01*
X0220144Y0224159D01*
X0222644Y0221659D02*
X0221394Y0220409D01*
X0218894Y0220409D01*
X0222644Y0221659D02*
X0235144Y0221659D01*
X0243894Y0255409D02*
X0198894Y0255409D01*
X0192644Y0249159D01*
X0176394Y0337909D02*
X0153894Y0337909D01*
X0151394Y0340409D01*
X0151394Y0351659D01*
X0153894Y0354159D01*
X0176394Y0354159D01*
X0178894Y0351659D01*
X0178894Y0340409D01*
X0176394Y0337909D01*
X0176883Y0338398D02*
X0153405Y0338398D01*
X0152206Y0339597D02*
X0178081Y0339597D01*
X0178894Y0340795D02*
X0151394Y0340795D01*
X0151394Y0341994D02*
X0178894Y0341994D01*
X0178894Y0343192D02*
X0151394Y0343192D01*
X0151394Y0344391D02*
X0178894Y0344391D01*
X0178894Y0345589D02*
X0151394Y0345589D01*
X0151394Y0346788D02*
X0178894Y0346788D01*
X0178894Y0347986D02*
X0151394Y0347986D01*
X0151394Y0349185D02*
X0178894Y0349185D01*
X0178894Y0350383D02*
X0151394Y0350383D01*
X0151394Y0351582D02*
X0178894Y0351582D01*
X0177773Y0352780D02*
X0152515Y0352780D01*
X0153713Y0353979D02*
X0176574Y0353979D01*
D27*
X0242644Y0290409D02*
X0240144Y0287909D01*
X0242644Y0290409D02*
X0257644Y0290409D01*
X0186394Y0144159D02*
X0170144Y0144159D01*
X0166394Y0140409D01*
X0165144Y0139159D01*
X0146394Y0139159D01*
X0133894Y0105409D02*
X0133894Y0096659D01*
X0196394Y0096659D02*
X0196394Y0105409D01*
M02*
