%
M48
M72
T01C0.0157
T02C0.0236
T03C0.0354
T04C0.0394
T05C0.0512
T06C0.0787
T07C0.0906
T08C0.1024
T09C0.1654
%
T01
X23264Y21791
X23514Y22666
X23764Y23041
X22014Y22416
X21889Y22041
X22014Y21666
X19264Y24916
X24389Y25541
X25764Y29041
X19014Y16416
X18514Y15291
X14764Y15541
X14514Y16291
T02
X21264Y15416
X20764Y15416
X20264Y15416
X18514Y16166
X18514Y16666
X18514Y17166
X18014Y17166
X17514Y17166
X17478Y18599
X17978Y18599
X18478Y18599
X18978Y18599
X19478Y18599
X18889Y20541
X17889Y20541
X16889Y20541
X15889Y20541
X15889Y21666
X15014Y21791
X14389Y20041
X14389Y19416
X14478Y18599
X14978Y18599
X15478Y18599
X15978Y18599
X16478Y18599
X16978Y18599
X15514Y17916
X14514Y17916
X14014Y17666
X13978Y18599
X13478Y18599
X12389Y18791
X11389Y19041
X10764Y17916
X10264Y17916
X9764Y17916
X11764Y15416
X12264Y15416
X12764Y15416
X14639Y13916
X14639Y12416
X14139Y12416
X13639Y12416
X15139Y12416
X15639Y12416
X17389Y12416
X17889Y12416
X18389Y12416
X18889Y12416
X19389Y12416
X20764Y11291
X20764Y10791
X19639Y10541
X19639Y9666
X18139Y10666
X17639Y10666
X17139Y10666
X15889Y10666
X15389Y10666
X14889Y10666
X13389Y10541
X13389Y9666
X12264Y10791
X12264Y11291
X16639Y14041
X18639Y14416
X18889Y21666
X17889Y21666
X16889Y21666
X15014Y24041
X13889Y25541
X13889Y26041
X13264Y26041
X13264Y25541
X12639Y25541
X12639Y26041
X11639Y26291
X11639Y26791
X11639Y25791
X11639Y25291
X11639Y24791
X15014Y25791
X15014Y26291
X15639Y26291
X15639Y25791
X16264Y25791
X16264Y26291
X16889Y26291
X16889Y25791
X18014Y26041
X18014Y26791
X19264Y27916
X19264Y28416
X20639Y27416
X22014Y27291
X22014Y26916
X22014Y24666
X21764Y22791
X21264Y22791
X19764Y24791
X18889Y24541
X19389Y26416
X22764Y29416
X24014Y28791
X24514Y26166
X25764Y25666
X26389Y25666
X26389Y26041
X28139Y25166
X28889Y26416
X28889Y26916
X29639Y27291
X29639Y27791
X29389Y28791
X29389Y29291
X28764Y28541
X28764Y28041
X30014Y25916
X30514Y25916
X29639Y24666
X32139Y25166
X32139Y25666
X32139Y26166
X32139Y26666
X31764Y27791
X31764Y28291
X31514Y29291
X31014Y29291
X26014Y31666
X26014Y32291
X26014Y32916
X21139Y33166
X21139Y32666
X21139Y32166
X20764Y31416
X20264Y31416
X21139Y34041
X21139Y34541
X21139Y35041
X24014Y24666
X7764Y26791
X7764Y27291
X7764Y27791
X7764Y28291
X7764Y28791
X6389Y29041
X6389Y29541
X6139Y26666
X6139Y26166
X6139Y25666
X6139Y25166
T03
X9389Y33166
X6389Y33166
T04
X33072Y16299
X32285Y16299
X32285Y17283
X33072Y17283
X32889Y20791
X31889Y20791
X30889Y20791
X33889Y20791
X34889Y20791
X34139Y25791
X34139Y26791
X33139Y26791
X33139Y25791
X33139Y27791
X33139Y28791
X33139Y29791
X34139Y29791
X34139Y28791
X34139Y27791
X29014Y34166
X28014Y34166
X27014Y34166
X26014Y34166
X25014Y34166
X24014Y34166
X24352Y15681
X22383Y15681
X22383Y12433
X24352Y12433
X24352Y9972
X24352Y9972
X23368Y9972
X23368Y9972
X22383Y9972
X22383Y9972
X10572Y9972
X10572Y9972
X9588Y9972
X9588Y9972
X8604Y9972
X8604Y9972
X8604Y12433
X10572Y12433
X10572Y15681
X8604Y15681
T05
X19514Y34666
X17514Y34666
X15514Y34666
X13514Y34666
T06
X1124Y22379
X1124Y28284
T07
X34139Y14421
X34139Y19161
T08
X25612Y12925
X21124Y12925
X11832Y12925
X7344Y12925
T09
X33604Y10759
X33604Y34381
X2108Y34381
X2108Y10759
M30
