G75*
%MOIN*%
%OFA0B0*%
%FSLAX25Y25*%
%IPPOS*%
%LPD*%
%AMOC8*
5,1,8,0,0,1.08239X$1,22.5*
%
%ADD10C,0.00591*%
%ADD11C,0.01000*%
%ADD12C,0.00700*%
%ADD13C,0.00600*%
D10*
X0082102Y0052476D02*
X0082102Y0080035D01*
X0109661Y0080035D01*
X0109661Y0052476D01*
X0107693Y0052476D01*
X0107693Y0003264D01*
X0105724Y0001295D01*
X0086039Y0001295D01*
X0084071Y0003264D01*
X0084071Y0052476D01*
X0082102Y0052476D01*
X0084071Y0052476D02*
X0107693Y0052476D01*
X0109661Y0080035D02*
X0115567Y0080035D01*
X0115567Y0131217D01*
X0076197Y0131217D01*
X0076197Y0080035D01*
X0082102Y0080035D01*
X0125547Y0101807D02*
X0132240Y0101807D01*
X0132240Y0114012D01*
X0125547Y0114012D01*
X0125547Y0101807D01*
X0136797Y0104012D02*
X0136797Y0091807D01*
X0143490Y0091807D01*
X0143490Y0104012D01*
X0136797Y0104012D01*
X0136797Y0109307D02*
X0143490Y0109307D01*
X0143490Y0121512D01*
X0136797Y0121512D01*
X0136797Y0109307D01*
X0144297Y0109307D02*
X0150990Y0109307D01*
X0150990Y0121512D01*
X0144297Y0121512D01*
X0144297Y0109307D01*
X0151797Y0109307D02*
X0158490Y0109307D01*
X0158490Y0121512D01*
X0151797Y0121512D01*
X0151797Y0109307D01*
X0151797Y0104012D02*
X0158490Y0104012D01*
X0158490Y0091807D01*
X0151797Y0091807D01*
X0151797Y0104012D01*
X0150990Y0104012D02*
X0144297Y0104012D01*
X0144297Y0091807D01*
X0150990Y0091807D01*
X0150990Y0104012D01*
X0171797Y0104012D02*
X0171797Y0091807D01*
X0178490Y0091807D01*
X0178490Y0104012D01*
X0171797Y0104012D01*
X0171797Y0109307D02*
X0178490Y0109307D01*
X0178490Y0121512D01*
X0171797Y0121512D01*
X0171797Y0109307D01*
X0179297Y0109307D02*
X0185990Y0109307D01*
X0185990Y0121512D01*
X0179297Y0121512D01*
X0179297Y0109307D01*
X0179297Y0104012D02*
X0179297Y0091807D01*
X0185990Y0091807D01*
X0185990Y0104012D01*
X0179297Y0104012D01*
X0186797Y0104012D02*
X0186797Y0091807D01*
X0193490Y0091807D01*
X0193490Y0104012D01*
X0186797Y0104012D01*
X0186797Y0109307D02*
X0193490Y0109307D01*
X0193490Y0121512D01*
X0186797Y0121512D01*
X0186797Y0109307D01*
X0198047Y0114012D02*
X0198047Y0101807D01*
X0204740Y0101807D01*
X0204740Y0114012D01*
X0198047Y0114012D01*
X0193490Y0126807D02*
X0186797Y0126807D01*
X0186797Y0139012D01*
X0193490Y0139012D01*
X0193490Y0126807D01*
X0187791Y0140813D02*
X0187791Y0147506D01*
X0199996Y0147506D01*
X0199996Y0140813D01*
X0187791Y0140813D01*
X0187791Y0148313D02*
X0187791Y0155006D01*
X0199996Y0155006D01*
X0199996Y0148313D01*
X0187791Y0148313D01*
X0187791Y0155813D02*
X0199996Y0155813D01*
X0199996Y0162506D01*
X0187791Y0162506D01*
X0187791Y0155813D01*
X0171640Y0168884D02*
X0158648Y0168884D01*
X0158648Y0134435D01*
X0171640Y0134435D01*
X0171640Y0168884D01*
X0172240Y0191807D02*
X0165547Y0191807D01*
X0165547Y0204012D01*
X0172240Y0204012D01*
X0172240Y0191807D01*
X0175547Y0191807D02*
X0182240Y0191807D01*
X0182240Y0204012D01*
X0175547Y0204012D01*
X0175547Y0191807D01*
X0185547Y0191807D02*
X0185547Y0204012D01*
X0192240Y0204012D01*
X0192240Y0191807D01*
X0185547Y0191807D01*
X0187240Y0206807D02*
X0180547Y0206807D01*
X0180547Y0219012D01*
X0187240Y0219012D01*
X0187240Y0206807D01*
X0177240Y0206807D02*
X0177240Y0219012D01*
X0170547Y0219012D01*
X0170547Y0206807D01*
X0177240Y0206807D01*
X0167240Y0206807D02*
X0167240Y0219012D01*
X0160547Y0219012D01*
X0160547Y0206807D01*
X0167240Y0206807D01*
X0162240Y0204012D02*
X0155547Y0204012D01*
X0155547Y0191807D01*
X0162240Y0191807D01*
X0162240Y0204012D01*
X0122496Y0201256D02*
X0122496Y0194563D01*
X0110291Y0194563D01*
X0110291Y0201256D01*
X0122496Y0201256D01*
X0116650Y0193421D02*
X0111138Y0193421D01*
X0111138Y0182398D01*
X0116650Y0182398D01*
X0116650Y0193421D01*
X0104740Y0194012D02*
X0104740Y0181807D01*
X0098047Y0181807D01*
X0098047Y0194012D01*
X0104740Y0194012D01*
X0110291Y0181256D02*
X0110291Y0174563D01*
X0122496Y0174563D01*
X0122496Y0181256D01*
X0110291Y0181256D01*
X0130291Y0162506D02*
X0130291Y0155813D01*
X0142496Y0155813D01*
X0142496Y0162506D01*
X0130291Y0162506D01*
X0130291Y0155006D02*
X0130291Y0148313D01*
X0142496Y0148313D01*
X0142496Y0155006D01*
X0130291Y0155006D01*
X0130291Y0147506D02*
X0130291Y0140813D01*
X0142496Y0140813D01*
X0142496Y0147506D01*
X0130291Y0147506D01*
X0136797Y0139012D02*
X0136797Y0126807D01*
X0143490Y0126807D01*
X0143490Y0139012D01*
X0136797Y0139012D01*
X0145291Y0133756D02*
X0145291Y0127063D01*
X0157496Y0127063D01*
X0157496Y0133756D01*
X0145291Y0133756D01*
X0167490Y0137284D02*
X0167492Y0137367D01*
X0167498Y0137451D01*
X0167508Y0137534D01*
X0167521Y0137616D01*
X0167539Y0137698D01*
X0167561Y0137778D01*
X0167586Y0137858D01*
X0167615Y0137936D01*
X0167647Y0138013D01*
X0167684Y0138089D01*
X0167723Y0138162D01*
X0167767Y0138233D01*
X0167813Y0138303D01*
X0167863Y0138370D01*
X0167916Y0138435D01*
X0167971Y0138497D01*
X0168030Y0138556D01*
X0168092Y0138613D01*
X0168156Y0138666D01*
X0168222Y0138717D01*
X0168291Y0138764D01*
X0168362Y0138808D01*
X0168435Y0138849D01*
X0168510Y0138886D01*
X0168586Y0138919D01*
X0168664Y0138949D01*
X0168744Y0138975D01*
X0168824Y0138998D01*
X0168905Y0139016D01*
X0168988Y0139031D01*
X0169070Y0139042D01*
X0169154Y0139049D01*
X0169237Y0139052D01*
X0169321Y0139051D01*
X0169404Y0139046D01*
X0169487Y0139037D01*
X0169570Y0139024D01*
X0169651Y0139008D01*
X0169732Y0138987D01*
X0169812Y0138963D01*
X0169891Y0138935D01*
X0169968Y0138903D01*
X0170044Y0138868D01*
X0170118Y0138829D01*
X0170190Y0138787D01*
X0170260Y0138741D01*
X0170327Y0138692D01*
X0170393Y0138640D01*
X0170455Y0138585D01*
X0170516Y0138527D01*
X0170573Y0138466D01*
X0170627Y0138403D01*
X0170678Y0138337D01*
X0170727Y0138268D01*
X0170771Y0138198D01*
X0170813Y0138125D01*
X0170851Y0138051D01*
X0170885Y0137975D01*
X0170916Y0137897D01*
X0170943Y0137818D01*
X0170967Y0137738D01*
X0170986Y0137657D01*
X0171002Y0137575D01*
X0171014Y0137492D01*
X0171022Y0137409D01*
X0171026Y0137326D01*
X0171026Y0137242D01*
X0171022Y0137159D01*
X0171014Y0137076D01*
X0171002Y0136993D01*
X0170986Y0136911D01*
X0170967Y0136830D01*
X0170943Y0136750D01*
X0170916Y0136671D01*
X0170885Y0136593D01*
X0170851Y0136517D01*
X0170813Y0136443D01*
X0170771Y0136370D01*
X0170727Y0136300D01*
X0170678Y0136231D01*
X0170627Y0136165D01*
X0170573Y0136102D01*
X0170516Y0136041D01*
X0170455Y0135983D01*
X0170393Y0135928D01*
X0170327Y0135876D01*
X0170260Y0135827D01*
X0170190Y0135781D01*
X0170118Y0135739D01*
X0170044Y0135700D01*
X0169968Y0135665D01*
X0169891Y0135633D01*
X0169812Y0135605D01*
X0169732Y0135581D01*
X0169651Y0135560D01*
X0169570Y0135544D01*
X0169487Y0135531D01*
X0169404Y0135522D01*
X0169321Y0135517D01*
X0169237Y0135516D01*
X0169154Y0135519D01*
X0169070Y0135526D01*
X0168988Y0135537D01*
X0168905Y0135552D01*
X0168824Y0135570D01*
X0168744Y0135593D01*
X0168664Y0135619D01*
X0168586Y0135649D01*
X0168510Y0135682D01*
X0168435Y0135719D01*
X0168362Y0135760D01*
X0168291Y0135804D01*
X0168222Y0135851D01*
X0168156Y0135902D01*
X0168092Y0135955D01*
X0168030Y0136012D01*
X0167971Y0136071D01*
X0167916Y0136133D01*
X0167863Y0136198D01*
X0167813Y0136265D01*
X0167767Y0136335D01*
X0167723Y0136406D01*
X0167684Y0136479D01*
X0167647Y0136555D01*
X0167615Y0136632D01*
X0167586Y0136710D01*
X0167561Y0136790D01*
X0167539Y0136870D01*
X0167521Y0136952D01*
X0167508Y0137034D01*
X0167498Y0137117D01*
X0167492Y0137201D01*
X0167490Y0137284D01*
X0213992Y0131217D02*
X0213992Y0080035D01*
X0219898Y0080035D01*
X0219898Y0052476D01*
X0221866Y0052476D01*
X0221866Y0003264D01*
X0223835Y0001295D01*
X0243520Y0001295D01*
X0245488Y0003264D01*
X0245488Y0052476D01*
X0221866Y0052476D01*
X0245488Y0052476D02*
X0247457Y0052476D01*
X0247457Y0080035D01*
X0253362Y0080035D01*
X0253362Y0131217D01*
X0213992Y0131217D01*
X0238894Y0172909D02*
X0238894Y0182909D01*
X0283894Y0182909D01*
X0283894Y0172909D01*
X0238894Y0172909D01*
X0238894Y0182909D02*
X0238894Y0192909D01*
X0283894Y0192909D01*
X0283894Y0182909D01*
X0291059Y0185941D02*
X0291059Y0139287D01*
X0306807Y0139287D01*
X0320980Y0139287D02*
X0353461Y0139287D01*
X0353507Y0139289D01*
X0353553Y0139294D01*
X0353599Y0139303D01*
X0353644Y0139316D01*
X0353687Y0139332D01*
X0353729Y0139351D01*
X0353770Y0139374D01*
X0353808Y0139400D01*
X0353845Y0139429D01*
X0353879Y0139460D01*
X0353910Y0139494D01*
X0353939Y0139531D01*
X0353965Y0139569D01*
X0353988Y0139610D01*
X0354007Y0139652D01*
X0354023Y0139695D01*
X0354036Y0139740D01*
X0354045Y0139786D01*
X0354050Y0139832D01*
X0354052Y0139878D01*
X0354051Y0139878D02*
X0354051Y0186531D01*
X0320980Y0186531D01*
X0322644Y0194159D02*
X0312644Y0194159D01*
X0312644Y0211659D01*
X0322644Y0211659D02*
X0322644Y0194159D01*
X0332644Y0194159D01*
X0332644Y0211659D01*
X0342644Y0212159D02*
X0342644Y0226159D01*
X0292644Y0226159D01*
X0292644Y0212159D01*
X0342644Y0212159D01*
X0342644Y0212909D02*
X0342644Y0194159D01*
X0353894Y0194159D01*
X0353994Y0226109D01*
X0342544Y0226109D01*
X0354110Y0237752D02*
X0318677Y0237752D01*
X0318677Y0269051D01*
X0320646Y0269051D01*
X0320646Y0286768D01*
X0318677Y0286768D01*
X0318677Y0318067D01*
X0354110Y0318067D01*
X0354110Y0237752D01*
X0314740Y0244307D02*
X0314740Y0256512D01*
X0308047Y0256512D01*
X0308047Y0244307D01*
X0314740Y0244307D01*
X0305990Y0244307D02*
X0305990Y0256512D01*
X0299297Y0256512D01*
X0299297Y0244307D01*
X0305990Y0244307D01*
X0308047Y0259307D02*
X0314740Y0259307D01*
X0314740Y0271512D01*
X0308047Y0271512D01*
X0308047Y0259307D01*
X0297890Y0260685D02*
X0284898Y0260685D01*
X0284898Y0295134D01*
X0297890Y0295134D01*
X0297890Y0260685D01*
X0293740Y0263534D02*
X0293742Y0263617D01*
X0293748Y0263701D01*
X0293758Y0263784D01*
X0293771Y0263866D01*
X0293789Y0263948D01*
X0293811Y0264028D01*
X0293836Y0264108D01*
X0293865Y0264186D01*
X0293897Y0264263D01*
X0293934Y0264339D01*
X0293973Y0264412D01*
X0294017Y0264483D01*
X0294063Y0264553D01*
X0294113Y0264620D01*
X0294166Y0264685D01*
X0294221Y0264747D01*
X0294280Y0264806D01*
X0294342Y0264863D01*
X0294406Y0264916D01*
X0294472Y0264967D01*
X0294541Y0265014D01*
X0294612Y0265058D01*
X0294685Y0265099D01*
X0294760Y0265136D01*
X0294836Y0265169D01*
X0294914Y0265199D01*
X0294994Y0265225D01*
X0295074Y0265248D01*
X0295155Y0265266D01*
X0295238Y0265281D01*
X0295320Y0265292D01*
X0295404Y0265299D01*
X0295487Y0265302D01*
X0295571Y0265301D01*
X0295654Y0265296D01*
X0295737Y0265287D01*
X0295820Y0265274D01*
X0295901Y0265258D01*
X0295982Y0265237D01*
X0296062Y0265213D01*
X0296141Y0265185D01*
X0296218Y0265153D01*
X0296294Y0265118D01*
X0296368Y0265079D01*
X0296440Y0265037D01*
X0296510Y0264991D01*
X0296577Y0264942D01*
X0296643Y0264890D01*
X0296705Y0264835D01*
X0296766Y0264777D01*
X0296823Y0264716D01*
X0296877Y0264653D01*
X0296928Y0264587D01*
X0296977Y0264518D01*
X0297021Y0264448D01*
X0297063Y0264375D01*
X0297101Y0264301D01*
X0297135Y0264225D01*
X0297166Y0264147D01*
X0297193Y0264068D01*
X0297217Y0263988D01*
X0297236Y0263907D01*
X0297252Y0263825D01*
X0297264Y0263742D01*
X0297272Y0263659D01*
X0297276Y0263576D01*
X0297276Y0263492D01*
X0297272Y0263409D01*
X0297264Y0263326D01*
X0297252Y0263243D01*
X0297236Y0263161D01*
X0297217Y0263080D01*
X0297193Y0263000D01*
X0297166Y0262921D01*
X0297135Y0262843D01*
X0297101Y0262767D01*
X0297063Y0262693D01*
X0297021Y0262620D01*
X0296977Y0262550D01*
X0296928Y0262481D01*
X0296877Y0262415D01*
X0296823Y0262352D01*
X0296766Y0262291D01*
X0296705Y0262233D01*
X0296643Y0262178D01*
X0296577Y0262126D01*
X0296510Y0262077D01*
X0296440Y0262031D01*
X0296368Y0261989D01*
X0296294Y0261950D01*
X0296218Y0261915D01*
X0296141Y0261883D01*
X0296062Y0261855D01*
X0295982Y0261831D01*
X0295901Y0261810D01*
X0295820Y0261794D01*
X0295737Y0261781D01*
X0295654Y0261772D01*
X0295571Y0261767D01*
X0295487Y0261766D01*
X0295404Y0261769D01*
X0295320Y0261776D01*
X0295238Y0261787D01*
X0295155Y0261802D01*
X0295074Y0261820D01*
X0294994Y0261843D01*
X0294914Y0261869D01*
X0294836Y0261899D01*
X0294760Y0261932D01*
X0294685Y0261969D01*
X0294612Y0262010D01*
X0294541Y0262054D01*
X0294472Y0262101D01*
X0294406Y0262152D01*
X0294342Y0262205D01*
X0294280Y0262262D01*
X0294221Y0262321D01*
X0294166Y0262383D01*
X0294113Y0262448D01*
X0294063Y0262515D01*
X0294017Y0262585D01*
X0293973Y0262656D01*
X0293934Y0262729D01*
X0293897Y0262805D01*
X0293865Y0262882D01*
X0293836Y0262960D01*
X0293811Y0263040D01*
X0293789Y0263120D01*
X0293771Y0263202D01*
X0293758Y0263284D01*
X0293748Y0263367D01*
X0293742Y0263451D01*
X0293740Y0263534D01*
X0289996Y0260006D02*
X0289996Y0253313D01*
X0277791Y0253313D01*
X0277791Y0260006D01*
X0289996Y0260006D01*
X0308047Y0274307D02*
X0314740Y0274307D01*
X0314740Y0286512D01*
X0308047Y0286512D01*
X0308047Y0274307D01*
X0274740Y0284307D02*
X0268047Y0284307D01*
X0268047Y0296512D01*
X0274740Y0296512D01*
X0274740Y0284307D01*
X0268490Y0275262D02*
X0261797Y0275262D01*
X0261797Y0263057D01*
X0268490Y0263057D01*
X0268490Y0275262D01*
X0260990Y0270262D02*
X0254297Y0270262D01*
X0254297Y0258057D01*
X0260990Y0258057D01*
X0260990Y0270262D01*
X0246013Y0239359D02*
X0246013Y0308859D01*
X0216775Y0308859D01*
X0216775Y0239359D01*
X0246013Y0239359D01*
X0238894Y0222909D02*
X0263894Y0222909D01*
X0283894Y0222909D01*
X0283894Y0212909D01*
X0238894Y0212909D01*
X0238894Y0222909D01*
X0238894Y0212909D02*
X0238894Y0202909D01*
X0283894Y0202909D01*
X0283894Y0192909D01*
X0292644Y0194159D02*
X0302644Y0194159D01*
X0302644Y0211659D01*
X0292644Y0212909D02*
X0292644Y0194159D01*
X0291650Y0186531D02*
X0306807Y0186531D01*
X0302644Y0194159D02*
X0312644Y0194159D01*
X0332644Y0194159D02*
X0342644Y0194159D01*
X0291650Y0186532D02*
X0291604Y0186530D01*
X0291558Y0186525D01*
X0291512Y0186516D01*
X0291467Y0186503D01*
X0291424Y0186487D01*
X0291382Y0186468D01*
X0291341Y0186445D01*
X0291303Y0186419D01*
X0291266Y0186390D01*
X0291232Y0186359D01*
X0291201Y0186325D01*
X0291172Y0186288D01*
X0291146Y0186250D01*
X0291123Y0186209D01*
X0291104Y0186167D01*
X0291088Y0186124D01*
X0291075Y0186079D01*
X0291066Y0186033D01*
X0291061Y0185987D01*
X0291059Y0185941D01*
X0283894Y0202909D02*
X0283894Y0212909D01*
X0263894Y0222909D02*
X0263894Y0172909D01*
X0238894Y0192909D02*
X0238894Y0202909D01*
X0221246Y0230813D02*
X0221246Y0237506D01*
X0209041Y0237506D01*
X0209041Y0230813D01*
X0221246Y0230813D01*
X0203943Y0251561D02*
X0191344Y0251561D01*
X0191344Y0276758D01*
X0203943Y0276758D01*
X0203943Y0251561D01*
X0189740Y0250557D02*
X0189740Y0262762D01*
X0183047Y0262762D01*
X0183047Y0250557D01*
X0189740Y0250557D01*
X0189740Y0265557D02*
X0183047Y0265557D01*
X0183047Y0277762D01*
X0189740Y0277762D01*
X0189740Y0265557D01*
X0195291Y0278313D02*
X0195291Y0285006D01*
X0207496Y0285006D01*
X0207496Y0278313D01*
X0195291Y0278313D01*
X0188894Y0284159D02*
X0170144Y0284159D01*
X0170894Y0284159D02*
X0156894Y0284159D01*
X0156894Y0314159D01*
X0170894Y0314159D01*
X0170894Y0284159D01*
X0171394Y0294159D02*
X0188894Y0294159D01*
X0188894Y0284159D01*
X0188894Y0294159D02*
X0188894Y0304159D01*
X0171394Y0304159D01*
X0170144Y0314159D02*
X0188894Y0314159D01*
X0188894Y0304159D01*
X0193047Y0299307D02*
X0199740Y0299307D01*
X0199740Y0311512D01*
X0193047Y0311512D01*
X0193047Y0299307D01*
X0200547Y0299307D02*
X0207240Y0299307D01*
X0207240Y0311512D01*
X0200547Y0311512D01*
X0200547Y0299307D01*
X0205144Y0317909D02*
X0185144Y0317909D01*
X0185144Y0329784D01*
X0185144Y0317909D02*
X0165144Y0317909D01*
X0165144Y0329784D01*
X0165144Y0317909D02*
X0125144Y0317909D01*
X0125144Y0330409D01*
X0125144Y0330124D02*
X0125144Y0361620D01*
X0205144Y0361620D01*
X0205144Y0330124D01*
X0125144Y0330124D01*
X0123490Y0328057D02*
X0116797Y0328057D01*
X0116797Y0340262D01*
X0123490Y0340262D01*
X0123490Y0328057D01*
X0108815Y0307496D02*
X0108815Y0293323D01*
X0148972Y0293323D01*
X0148972Y0307496D01*
X0108815Y0307496D01*
X0109803Y0296079D02*
X0109805Y0296162D01*
X0109811Y0296246D01*
X0109821Y0296329D01*
X0109834Y0296411D01*
X0109852Y0296493D01*
X0109874Y0296573D01*
X0109899Y0296653D01*
X0109928Y0296731D01*
X0109960Y0296808D01*
X0109997Y0296884D01*
X0110036Y0296957D01*
X0110080Y0297028D01*
X0110126Y0297098D01*
X0110176Y0297165D01*
X0110229Y0297230D01*
X0110284Y0297292D01*
X0110343Y0297351D01*
X0110405Y0297408D01*
X0110469Y0297461D01*
X0110535Y0297512D01*
X0110604Y0297559D01*
X0110675Y0297603D01*
X0110748Y0297644D01*
X0110823Y0297681D01*
X0110899Y0297714D01*
X0110977Y0297744D01*
X0111057Y0297770D01*
X0111137Y0297793D01*
X0111218Y0297811D01*
X0111301Y0297826D01*
X0111383Y0297837D01*
X0111467Y0297844D01*
X0111550Y0297847D01*
X0111634Y0297846D01*
X0111717Y0297841D01*
X0111800Y0297832D01*
X0111883Y0297819D01*
X0111964Y0297803D01*
X0112045Y0297782D01*
X0112125Y0297758D01*
X0112204Y0297730D01*
X0112281Y0297698D01*
X0112357Y0297663D01*
X0112431Y0297624D01*
X0112503Y0297582D01*
X0112573Y0297536D01*
X0112640Y0297487D01*
X0112706Y0297435D01*
X0112768Y0297380D01*
X0112829Y0297322D01*
X0112886Y0297261D01*
X0112940Y0297198D01*
X0112991Y0297132D01*
X0113040Y0297063D01*
X0113084Y0296993D01*
X0113126Y0296920D01*
X0113164Y0296846D01*
X0113198Y0296770D01*
X0113229Y0296692D01*
X0113256Y0296613D01*
X0113280Y0296533D01*
X0113299Y0296452D01*
X0113315Y0296370D01*
X0113327Y0296287D01*
X0113335Y0296204D01*
X0113339Y0296121D01*
X0113339Y0296037D01*
X0113335Y0295954D01*
X0113327Y0295871D01*
X0113315Y0295788D01*
X0113299Y0295706D01*
X0113280Y0295625D01*
X0113256Y0295545D01*
X0113229Y0295466D01*
X0113198Y0295388D01*
X0113164Y0295312D01*
X0113126Y0295238D01*
X0113084Y0295165D01*
X0113040Y0295095D01*
X0112991Y0295026D01*
X0112940Y0294960D01*
X0112886Y0294897D01*
X0112829Y0294836D01*
X0112768Y0294778D01*
X0112706Y0294723D01*
X0112640Y0294671D01*
X0112573Y0294622D01*
X0112503Y0294576D01*
X0112431Y0294534D01*
X0112357Y0294495D01*
X0112281Y0294460D01*
X0112204Y0294428D01*
X0112125Y0294400D01*
X0112045Y0294376D01*
X0111964Y0294355D01*
X0111883Y0294339D01*
X0111800Y0294326D01*
X0111717Y0294317D01*
X0111634Y0294312D01*
X0111550Y0294311D01*
X0111467Y0294314D01*
X0111383Y0294321D01*
X0111301Y0294332D01*
X0111218Y0294347D01*
X0111137Y0294365D01*
X0111057Y0294388D01*
X0110977Y0294414D01*
X0110899Y0294444D01*
X0110823Y0294477D01*
X0110748Y0294514D01*
X0110675Y0294555D01*
X0110604Y0294599D01*
X0110535Y0294646D01*
X0110469Y0294697D01*
X0110405Y0294750D01*
X0110343Y0294807D01*
X0110284Y0294866D01*
X0110229Y0294928D01*
X0110176Y0294993D01*
X0110126Y0295060D01*
X0110080Y0295130D01*
X0110036Y0295201D01*
X0109997Y0295274D01*
X0109960Y0295350D01*
X0109928Y0295427D01*
X0109899Y0295505D01*
X0109874Y0295585D01*
X0109852Y0295665D01*
X0109834Y0295747D01*
X0109821Y0295829D01*
X0109811Y0295912D01*
X0109805Y0295996D01*
X0109803Y0296079D01*
X0099593Y0287240D02*
X0099593Y0278579D01*
X0080695Y0278579D01*
X0080695Y0287240D01*
X0099593Y0287240D01*
X0099593Y0277240D02*
X0099593Y0268579D01*
X0080695Y0268579D01*
X0080695Y0277240D01*
X0099593Y0277240D01*
X0101541Y0268756D02*
X0101541Y0262063D01*
X0113746Y0262063D01*
X0113746Y0268756D01*
X0101541Y0268756D01*
X0101541Y0261256D02*
X0101541Y0254563D01*
X0113746Y0254563D01*
X0113746Y0261256D01*
X0101541Y0261256D01*
X0101541Y0253756D02*
X0101541Y0247063D01*
X0113746Y0247063D01*
X0113746Y0253756D01*
X0101541Y0253756D01*
X0098746Y0253756D02*
X0086541Y0253756D01*
X0086541Y0247063D01*
X0098746Y0247063D01*
X0098746Y0253756D01*
X0083746Y0253756D02*
X0083746Y0247063D01*
X0071541Y0247063D01*
X0071541Y0253756D01*
X0083746Y0253756D01*
X0073490Y0254307D02*
X0073490Y0266512D01*
X0066797Y0266512D01*
X0066797Y0254307D01*
X0073490Y0254307D01*
X0068018Y0268067D02*
X0052270Y0268067D01*
X0050301Y0270035D01*
X0046541Y0266256D02*
X0046541Y0259563D01*
X0058746Y0259563D01*
X0058746Y0266256D01*
X0046541Y0266256D01*
X0046541Y0258756D02*
X0046541Y0252063D01*
X0058746Y0252063D01*
X0058746Y0258756D01*
X0046541Y0258756D01*
X0042496Y0258756D02*
X0042496Y0252063D01*
X0030291Y0252063D01*
X0030291Y0258756D01*
X0042496Y0258756D01*
X0068018Y0268067D02*
X0069986Y0270035D01*
X0069986Y0285783D02*
X0068018Y0287752D01*
X0052270Y0287752D01*
X0050301Y0285783D01*
X0049041Y0289563D02*
X0061246Y0289563D01*
X0061246Y0296256D01*
X0049041Y0296256D01*
X0049041Y0289563D01*
X0052122Y0323785D02*
X0051930Y0323787D01*
X0051739Y0323794D01*
X0051547Y0323806D01*
X0051356Y0323822D01*
X0051166Y0323843D01*
X0050976Y0323869D01*
X0050786Y0323899D01*
X0050598Y0323934D01*
X0050410Y0323973D01*
X0050223Y0324017D01*
X0050038Y0324066D01*
X0049854Y0324119D01*
X0049671Y0324176D01*
X0049489Y0324238D01*
X0049309Y0324305D01*
X0049131Y0324375D01*
X0048954Y0324450D01*
X0048780Y0324530D01*
X0048607Y0324613D01*
X0048437Y0324701D01*
X0048268Y0324792D01*
X0048102Y0324888D01*
X0047939Y0324988D01*
X0047777Y0325092D01*
X0047619Y0325200D01*
X0047463Y0325311D01*
X0047310Y0325427D01*
X0047159Y0325546D01*
X0047012Y0325668D01*
X0046868Y0325795D01*
X0046726Y0325924D01*
X0046588Y0326057D01*
X0046453Y0326194D01*
X0046322Y0326334D01*
X0046194Y0326476D01*
X0046070Y0326622D01*
X0045949Y0326771D01*
X0045832Y0326923D01*
X0045718Y0327077D01*
X0045608Y0327235D01*
X0045503Y0327395D01*
X0045401Y0327557D01*
X0045303Y0327722D01*
X0045209Y0327889D01*
X0045119Y0328059D01*
X0045034Y0328230D01*
X0044952Y0328404D01*
X0044875Y0328579D01*
X0044802Y0328757D01*
X0044734Y0328936D01*
X0044670Y0329117D01*
X0044610Y0329299D01*
X0044555Y0329482D01*
X0044504Y0329667D01*
X0044458Y0329853D01*
X0044416Y0330041D01*
X0044379Y0330229D01*
X0044346Y0330418D01*
X0044319Y0330607D01*
X0044295Y0330798D01*
X0044277Y0330989D01*
X0044263Y0331180D01*
X0044253Y0331371D01*
X0044249Y0331563D01*
X0044249Y0331755D01*
X0044253Y0331947D01*
X0044263Y0332138D01*
X0044277Y0332329D01*
X0044295Y0332520D01*
X0044319Y0332711D01*
X0044346Y0332900D01*
X0044379Y0333089D01*
X0044416Y0333277D01*
X0044458Y0333465D01*
X0044504Y0333651D01*
X0044555Y0333836D01*
X0044610Y0334019D01*
X0044670Y0334201D01*
X0044734Y0334382D01*
X0044802Y0334561D01*
X0044875Y0334739D01*
X0044952Y0334914D01*
X0045034Y0335088D01*
X0045119Y0335259D01*
X0045209Y0335429D01*
X0045303Y0335596D01*
X0045401Y0335761D01*
X0045503Y0335923D01*
X0045608Y0336083D01*
X0045718Y0336241D01*
X0045832Y0336395D01*
X0045949Y0336547D01*
X0046070Y0336696D01*
X0046194Y0336842D01*
X0046322Y0336984D01*
X0046453Y0337124D01*
X0046588Y0337261D01*
X0046726Y0337394D01*
X0046868Y0337523D01*
X0047012Y0337650D01*
X0047159Y0337772D01*
X0047310Y0337891D01*
X0047463Y0338007D01*
X0047619Y0338118D01*
X0047777Y0338226D01*
X0047939Y0338330D01*
X0048102Y0338430D01*
X0048268Y0338526D01*
X0048437Y0338617D01*
X0048607Y0338705D01*
X0048780Y0338788D01*
X0048954Y0338868D01*
X0049131Y0338943D01*
X0049309Y0339013D01*
X0049489Y0339080D01*
X0049671Y0339142D01*
X0049854Y0339199D01*
X0050038Y0339252D01*
X0050223Y0339301D01*
X0050410Y0339345D01*
X0050598Y0339384D01*
X0050786Y0339419D01*
X0050976Y0339449D01*
X0051166Y0339475D01*
X0051356Y0339496D01*
X0051547Y0339512D01*
X0051739Y0339524D01*
X0051930Y0339531D01*
X0052122Y0339533D01*
X0051335Y0331659D02*
X0051343Y0332335D01*
X0051368Y0333011D01*
X0051410Y0333686D01*
X0051468Y0334360D01*
X0051542Y0335033D01*
X0051633Y0335703D01*
X0051741Y0336371D01*
X0051865Y0337035D01*
X0052005Y0337697D01*
X0052161Y0338355D01*
X0052333Y0339009D01*
X0052522Y0339659D01*
X0052726Y0340304D01*
X0052946Y0340943D01*
X0053182Y0341577D01*
X0053433Y0342205D01*
X0053699Y0342827D01*
X0053981Y0343442D01*
X0054278Y0344050D01*
X0054589Y0344650D01*
X0054915Y0345243D01*
X0055256Y0345827D01*
X0055611Y0346403D01*
X0055980Y0346970D01*
X0056362Y0347528D01*
X0056758Y0348076D01*
X0057168Y0348614D01*
X0057591Y0349142D01*
X0058026Y0349660D01*
X0058474Y0350166D01*
X0058934Y0350662D01*
X0059407Y0351146D01*
X0059891Y0351619D01*
X0060387Y0352079D01*
X0060893Y0352527D01*
X0061411Y0352962D01*
X0061939Y0353385D01*
X0062477Y0353795D01*
X0063025Y0354191D01*
X0063583Y0354573D01*
X0064150Y0354942D01*
X0064726Y0355297D01*
X0065310Y0355638D01*
X0065903Y0355964D01*
X0066503Y0356275D01*
X0067111Y0356572D01*
X0067726Y0356854D01*
X0068348Y0357120D01*
X0068976Y0357371D01*
X0069610Y0357607D01*
X0070249Y0357827D01*
X0070894Y0358031D01*
X0071544Y0358220D01*
X0072198Y0358392D01*
X0072856Y0358548D01*
X0073518Y0358688D01*
X0074182Y0358812D01*
X0074850Y0358920D01*
X0075520Y0359011D01*
X0076193Y0359085D01*
X0076867Y0359143D01*
X0077542Y0359185D01*
X0078218Y0359210D01*
X0078894Y0359218D01*
X0079570Y0359210D01*
X0080246Y0359185D01*
X0080921Y0359143D01*
X0081595Y0359085D01*
X0082268Y0359011D01*
X0082938Y0358920D01*
X0083606Y0358812D01*
X0084270Y0358688D01*
X0084932Y0358548D01*
X0085590Y0358392D01*
X0086244Y0358220D01*
X0086894Y0358031D01*
X0087539Y0357827D01*
X0088178Y0357607D01*
X0088812Y0357371D01*
X0089440Y0357120D01*
X0090062Y0356854D01*
X0090677Y0356572D01*
X0091285Y0356275D01*
X0091885Y0355964D01*
X0092478Y0355638D01*
X0093062Y0355297D01*
X0093638Y0354942D01*
X0094205Y0354573D01*
X0094763Y0354191D01*
X0095311Y0353795D01*
X0095849Y0353385D01*
X0096377Y0352962D01*
X0096895Y0352527D01*
X0097401Y0352079D01*
X0097897Y0351619D01*
X0098381Y0351146D01*
X0098854Y0350662D01*
X0099314Y0350166D01*
X0099762Y0349660D01*
X0100197Y0349142D01*
X0100620Y0348614D01*
X0101030Y0348076D01*
X0101426Y0347528D01*
X0101808Y0346970D01*
X0102177Y0346403D01*
X0102532Y0345827D01*
X0102873Y0345243D01*
X0103199Y0344650D01*
X0103510Y0344050D01*
X0103807Y0343442D01*
X0104089Y0342827D01*
X0104355Y0342205D01*
X0104606Y0341577D01*
X0104842Y0340943D01*
X0105062Y0340304D01*
X0105266Y0339659D01*
X0105455Y0339009D01*
X0105627Y0338355D01*
X0105783Y0337697D01*
X0105923Y0337035D01*
X0106047Y0336371D01*
X0106155Y0335703D01*
X0106246Y0335033D01*
X0106320Y0334360D01*
X0106378Y0333686D01*
X0106420Y0333011D01*
X0106445Y0332335D01*
X0106453Y0331659D01*
X0106445Y0330983D01*
X0106420Y0330307D01*
X0106378Y0329632D01*
X0106320Y0328958D01*
X0106246Y0328285D01*
X0106155Y0327615D01*
X0106047Y0326947D01*
X0105923Y0326283D01*
X0105783Y0325621D01*
X0105627Y0324963D01*
X0105455Y0324309D01*
X0105266Y0323659D01*
X0105062Y0323014D01*
X0104842Y0322375D01*
X0104606Y0321741D01*
X0104355Y0321113D01*
X0104089Y0320491D01*
X0103807Y0319876D01*
X0103510Y0319268D01*
X0103199Y0318668D01*
X0102873Y0318075D01*
X0102532Y0317491D01*
X0102177Y0316915D01*
X0101808Y0316348D01*
X0101426Y0315790D01*
X0101030Y0315242D01*
X0100620Y0314704D01*
X0100197Y0314176D01*
X0099762Y0313658D01*
X0099314Y0313152D01*
X0098854Y0312656D01*
X0098381Y0312172D01*
X0097897Y0311699D01*
X0097401Y0311239D01*
X0096895Y0310791D01*
X0096377Y0310356D01*
X0095849Y0309933D01*
X0095311Y0309523D01*
X0094763Y0309127D01*
X0094205Y0308745D01*
X0093638Y0308376D01*
X0093062Y0308021D01*
X0092478Y0307680D01*
X0091885Y0307354D01*
X0091285Y0307043D01*
X0090677Y0306746D01*
X0090062Y0306464D01*
X0089440Y0306198D01*
X0088812Y0305947D01*
X0088178Y0305711D01*
X0087539Y0305491D01*
X0086894Y0305287D01*
X0086244Y0305098D01*
X0085590Y0304926D01*
X0084932Y0304770D01*
X0084270Y0304630D01*
X0083606Y0304506D01*
X0082938Y0304398D01*
X0082268Y0304307D01*
X0081595Y0304233D01*
X0080921Y0304175D01*
X0080246Y0304133D01*
X0079570Y0304108D01*
X0078894Y0304100D01*
X0078218Y0304108D01*
X0077542Y0304133D01*
X0076867Y0304175D01*
X0076193Y0304233D01*
X0075520Y0304307D01*
X0074850Y0304398D01*
X0074182Y0304506D01*
X0073518Y0304630D01*
X0072856Y0304770D01*
X0072198Y0304926D01*
X0071544Y0305098D01*
X0070894Y0305287D01*
X0070249Y0305491D01*
X0069610Y0305711D01*
X0068976Y0305947D01*
X0068348Y0306198D01*
X0067726Y0306464D01*
X0067111Y0306746D01*
X0066503Y0307043D01*
X0065903Y0307354D01*
X0065310Y0307680D01*
X0064726Y0308021D01*
X0064150Y0308376D01*
X0063583Y0308745D01*
X0063025Y0309127D01*
X0062477Y0309523D01*
X0061939Y0309933D01*
X0061411Y0310356D01*
X0060893Y0310791D01*
X0060387Y0311239D01*
X0059891Y0311699D01*
X0059407Y0312172D01*
X0058934Y0312656D01*
X0058474Y0313152D01*
X0058026Y0313658D01*
X0057591Y0314176D01*
X0057168Y0314704D01*
X0056758Y0315242D01*
X0056362Y0315790D01*
X0055980Y0316348D01*
X0055611Y0316915D01*
X0055256Y0317491D01*
X0054915Y0318075D01*
X0054589Y0318668D01*
X0054278Y0319268D01*
X0053981Y0319876D01*
X0053699Y0320491D01*
X0053433Y0321113D01*
X0053182Y0321741D01*
X0052946Y0322375D01*
X0052726Y0323014D01*
X0052522Y0323659D01*
X0052333Y0324309D01*
X0052161Y0324963D01*
X0052005Y0325621D01*
X0051865Y0326283D01*
X0051741Y0326947D01*
X0051633Y0327615D01*
X0051542Y0328285D01*
X0051468Y0328958D01*
X0051410Y0329632D01*
X0051368Y0330307D01*
X0051343Y0330983D01*
X0051335Y0331659D01*
X0124297Y0275262D02*
X0124297Y0263057D01*
X0130990Y0263057D01*
X0130990Y0275262D01*
X0124297Y0275262D01*
X0132152Y0266246D02*
X0158136Y0266246D01*
X0158136Y0252073D01*
X0132152Y0252073D01*
X0132152Y0266246D01*
X0159297Y0256512D02*
X0159297Y0244307D01*
X0165990Y0244307D01*
X0165990Y0256512D01*
X0159297Y0256512D01*
X0218469Y0305159D02*
X0218471Y0305251D01*
X0218477Y0305342D01*
X0218487Y0305433D01*
X0218501Y0305524D01*
X0218519Y0305614D01*
X0218541Y0305703D01*
X0218566Y0305790D01*
X0218596Y0305877D01*
X0218629Y0305963D01*
X0218666Y0306046D01*
X0218706Y0306129D01*
X0218750Y0306209D01*
X0218798Y0306287D01*
X0218849Y0306364D01*
X0218903Y0306437D01*
X0218960Y0306509D01*
X0219021Y0306578D01*
X0219084Y0306644D01*
X0219150Y0306707D01*
X0219219Y0306768D01*
X0219291Y0306825D01*
X0219364Y0306879D01*
X0219441Y0306930D01*
X0219519Y0306978D01*
X0219599Y0307022D01*
X0219682Y0307062D01*
X0219765Y0307099D01*
X0219851Y0307132D01*
X0219938Y0307162D01*
X0220025Y0307187D01*
X0220114Y0307209D01*
X0220204Y0307227D01*
X0220295Y0307241D01*
X0220386Y0307251D01*
X0220477Y0307257D01*
X0220569Y0307259D01*
X0220661Y0307257D01*
X0220752Y0307251D01*
X0220843Y0307241D01*
X0220934Y0307227D01*
X0221024Y0307209D01*
X0221113Y0307187D01*
X0221200Y0307162D01*
X0221287Y0307132D01*
X0221373Y0307099D01*
X0221456Y0307062D01*
X0221539Y0307022D01*
X0221619Y0306978D01*
X0221697Y0306930D01*
X0221774Y0306879D01*
X0221847Y0306825D01*
X0221919Y0306768D01*
X0221988Y0306707D01*
X0222054Y0306644D01*
X0222117Y0306578D01*
X0222178Y0306509D01*
X0222235Y0306437D01*
X0222289Y0306364D01*
X0222340Y0306287D01*
X0222388Y0306209D01*
X0222432Y0306129D01*
X0222472Y0306046D01*
X0222509Y0305963D01*
X0222542Y0305877D01*
X0222572Y0305790D01*
X0222597Y0305703D01*
X0222619Y0305614D01*
X0222637Y0305524D01*
X0222651Y0305433D01*
X0222661Y0305342D01*
X0222667Y0305251D01*
X0222669Y0305159D01*
X0222667Y0305067D01*
X0222661Y0304976D01*
X0222651Y0304885D01*
X0222637Y0304794D01*
X0222619Y0304704D01*
X0222597Y0304615D01*
X0222572Y0304528D01*
X0222542Y0304441D01*
X0222509Y0304355D01*
X0222472Y0304272D01*
X0222432Y0304189D01*
X0222388Y0304109D01*
X0222340Y0304031D01*
X0222289Y0303954D01*
X0222235Y0303881D01*
X0222178Y0303809D01*
X0222117Y0303740D01*
X0222054Y0303674D01*
X0221988Y0303611D01*
X0221919Y0303550D01*
X0221847Y0303493D01*
X0221774Y0303439D01*
X0221697Y0303388D01*
X0221619Y0303340D01*
X0221539Y0303296D01*
X0221456Y0303256D01*
X0221373Y0303219D01*
X0221287Y0303186D01*
X0221200Y0303156D01*
X0221113Y0303131D01*
X0221024Y0303109D01*
X0220934Y0303091D01*
X0220843Y0303077D01*
X0220752Y0303067D01*
X0220661Y0303061D01*
X0220569Y0303059D01*
X0220477Y0303061D01*
X0220386Y0303067D01*
X0220295Y0303077D01*
X0220204Y0303091D01*
X0220114Y0303109D01*
X0220025Y0303131D01*
X0219938Y0303156D01*
X0219851Y0303186D01*
X0219765Y0303219D01*
X0219682Y0303256D01*
X0219599Y0303296D01*
X0219519Y0303340D01*
X0219441Y0303388D01*
X0219364Y0303439D01*
X0219291Y0303493D01*
X0219219Y0303550D01*
X0219150Y0303611D01*
X0219084Y0303674D01*
X0219021Y0303740D01*
X0218960Y0303809D01*
X0218903Y0303881D01*
X0218849Y0303954D01*
X0218798Y0304031D01*
X0218750Y0304109D01*
X0218706Y0304189D01*
X0218666Y0304272D01*
X0218629Y0304355D01*
X0218596Y0304441D01*
X0218566Y0304528D01*
X0218541Y0304615D01*
X0218519Y0304704D01*
X0218501Y0304794D01*
X0218487Y0304885D01*
X0218477Y0304976D01*
X0218471Y0305067D01*
X0218469Y0305159D01*
X0218175Y0316079D02*
X0218175Y0324740D01*
X0222112Y0324740D01*
X0222112Y0316079D01*
X0218175Y0316079D01*
X0218569Y0323559D02*
X0218571Y0323615D01*
X0218577Y0323670D01*
X0218587Y0323724D01*
X0218600Y0323778D01*
X0218618Y0323831D01*
X0218639Y0323882D01*
X0218663Y0323932D01*
X0218691Y0323980D01*
X0218723Y0324026D01*
X0218757Y0324070D01*
X0218795Y0324111D01*
X0218835Y0324149D01*
X0218878Y0324184D01*
X0218923Y0324216D01*
X0218971Y0324245D01*
X0219020Y0324271D01*
X0219071Y0324293D01*
X0219123Y0324311D01*
X0219177Y0324325D01*
X0219232Y0324336D01*
X0219287Y0324343D01*
X0219342Y0324346D01*
X0219398Y0324345D01*
X0219453Y0324340D01*
X0219508Y0324331D01*
X0219562Y0324319D01*
X0219615Y0324302D01*
X0219667Y0324282D01*
X0219717Y0324258D01*
X0219765Y0324231D01*
X0219812Y0324201D01*
X0219856Y0324167D01*
X0219898Y0324130D01*
X0219936Y0324090D01*
X0219973Y0324048D01*
X0220006Y0324003D01*
X0220035Y0323957D01*
X0220062Y0323908D01*
X0220084Y0323857D01*
X0220104Y0323805D01*
X0220119Y0323751D01*
X0220131Y0323697D01*
X0220139Y0323642D01*
X0220143Y0323587D01*
X0220143Y0323531D01*
X0220139Y0323476D01*
X0220131Y0323421D01*
X0220119Y0323367D01*
X0220104Y0323313D01*
X0220084Y0323261D01*
X0220062Y0323210D01*
X0220035Y0323161D01*
X0220006Y0323115D01*
X0219973Y0323070D01*
X0219936Y0323028D01*
X0219898Y0322988D01*
X0219856Y0322951D01*
X0219812Y0322917D01*
X0219765Y0322887D01*
X0219717Y0322860D01*
X0219667Y0322836D01*
X0219615Y0322816D01*
X0219562Y0322799D01*
X0219508Y0322787D01*
X0219453Y0322778D01*
X0219398Y0322773D01*
X0219342Y0322772D01*
X0219287Y0322775D01*
X0219232Y0322782D01*
X0219177Y0322793D01*
X0219123Y0322807D01*
X0219071Y0322825D01*
X0219020Y0322847D01*
X0218971Y0322873D01*
X0218923Y0322902D01*
X0218878Y0322934D01*
X0218835Y0322969D01*
X0218795Y0323007D01*
X0218757Y0323048D01*
X0218723Y0323092D01*
X0218691Y0323138D01*
X0218663Y0323186D01*
X0218639Y0323236D01*
X0218618Y0323287D01*
X0218600Y0323340D01*
X0218587Y0323394D01*
X0218577Y0323448D01*
X0218571Y0323503D01*
X0218569Y0323559D01*
X0215291Y0325813D02*
X0215291Y0332506D01*
X0227496Y0332506D01*
X0227496Y0325813D01*
X0215291Y0325813D01*
X0205144Y0330409D02*
X0205144Y0317909D01*
X0235144Y0334659D02*
X0235144Y0348659D01*
X0295144Y0348659D01*
X0295144Y0334659D01*
X0235144Y0334659D01*
X0239041Y0332506D02*
X0239041Y0325813D01*
X0251246Y0325813D01*
X0251246Y0332506D01*
X0239041Y0332506D01*
X0235144Y0347909D02*
X0235144Y0361659D01*
X0295144Y0361659D01*
X0295144Y0347909D01*
X0243894Y0359159D02*
X0240144Y0351659D01*
X0236394Y0359159D01*
X0243894Y0359159D01*
X0243753Y0358878D02*
X0236534Y0358878D01*
X0236829Y0358289D02*
X0243459Y0358289D01*
X0243164Y0357700D02*
X0237123Y0357700D01*
X0237418Y0357111D02*
X0242869Y0357111D01*
X0242575Y0356522D02*
X0237712Y0356522D01*
X0238007Y0355933D02*
X0242280Y0355933D01*
X0241986Y0355344D02*
X0238302Y0355344D01*
X0238596Y0354755D02*
X0241691Y0354755D01*
X0241397Y0354166D02*
X0238891Y0354166D01*
X0239185Y0353577D02*
X0241102Y0353577D01*
X0240808Y0352988D02*
X0239480Y0352988D01*
X0239774Y0352399D02*
X0240513Y0352399D01*
X0240219Y0351809D02*
X0240069Y0351809D01*
X0247457Y0080035D02*
X0219898Y0080035D01*
D11*
X0345588Y0201662D02*
X0351093Y0201662D01*
X0352194Y0202763D01*
X0352194Y0204965D01*
X0351093Y0206066D01*
X0345588Y0206066D01*
X0346689Y0208660D02*
X0347790Y0208660D01*
X0348891Y0209761D01*
X0348891Y0211963D01*
X0349992Y0213064D01*
X0351093Y0213064D01*
X0352194Y0211963D01*
X0352194Y0209761D01*
X0351093Y0208660D01*
X0346689Y0208660D02*
X0345588Y0209761D01*
X0345588Y0211963D01*
X0346689Y0213064D01*
X0345588Y0215658D02*
X0345588Y0218961D01*
X0346689Y0220062D01*
X0347790Y0220062D01*
X0348891Y0218961D01*
X0348891Y0215658D01*
X0352194Y0215658D02*
X0345588Y0215658D01*
X0348891Y0218961D02*
X0349992Y0220062D01*
X0351093Y0220062D01*
X0352194Y0218961D01*
X0352194Y0215658D01*
X0271475Y0352109D02*
X0271475Y0358715D01*
X0274778Y0358715D01*
X0275879Y0357614D01*
X0275879Y0355412D01*
X0274778Y0354311D01*
X0271475Y0354311D01*
X0268881Y0354311D02*
X0267780Y0355412D01*
X0265578Y0355412D01*
X0264477Y0356513D01*
X0264477Y0357614D01*
X0265578Y0358715D01*
X0267780Y0358715D01*
X0268881Y0357614D01*
X0268881Y0354311D02*
X0268881Y0353210D01*
X0267780Y0352109D01*
X0265578Y0352109D01*
X0264477Y0353210D01*
X0261883Y0353210D02*
X0260782Y0352109D01*
X0258580Y0352109D01*
X0257479Y0353210D01*
X0257479Y0357614D01*
X0258580Y0358715D01*
X0260782Y0358715D01*
X0261883Y0357614D01*
X0255016Y0358715D02*
X0252814Y0358715D01*
X0253915Y0358715D02*
X0253915Y0352109D01*
X0252814Y0352109D02*
X0255016Y0352109D01*
X0162122Y0236215D02*
X0162122Y0229609D01*
X0161021Y0229609D02*
X0163223Y0229609D01*
X0165687Y0230710D02*
X0165687Y0232912D01*
X0166788Y0234013D01*
X0168990Y0234013D01*
X0170091Y0232912D01*
X0170091Y0231811D01*
X0165687Y0231811D01*
X0165687Y0230710D02*
X0166788Y0229609D01*
X0168990Y0229609D01*
X0172685Y0229609D02*
X0172685Y0234013D01*
X0172685Y0231811D02*
X0174887Y0234013D01*
X0175988Y0234013D01*
X0162122Y0236215D02*
X0161021Y0236215D01*
X0157457Y0236215D02*
X0157457Y0229609D01*
X0156356Y0229609D02*
X0158558Y0229609D01*
X0153762Y0230710D02*
X0153762Y0232912D01*
X0152661Y0234013D01*
X0150459Y0234013D01*
X0149358Y0232912D01*
X0149358Y0230710D01*
X0150459Y0229609D01*
X0152661Y0229609D01*
X0153762Y0230710D01*
X0156356Y0236215D02*
X0157457Y0236215D01*
X0146829Y0234013D02*
X0145728Y0234013D01*
X0143527Y0231811D01*
X0143527Y0229609D02*
X0143527Y0234013D01*
X0141063Y0234013D02*
X0138861Y0234013D01*
X0139962Y0235114D02*
X0139962Y0230710D01*
X0141063Y0229609D01*
X0136267Y0229609D02*
X0136267Y0232912D01*
X0135166Y0234013D01*
X0131863Y0234013D01*
X0131863Y0229609D01*
X0129269Y0230710D02*
X0129269Y0232912D01*
X0128168Y0234013D01*
X0125966Y0234013D01*
X0124865Y0232912D01*
X0124865Y0230710D01*
X0125966Y0229609D01*
X0128168Y0229609D01*
X0129269Y0230710D01*
X0122271Y0230710D02*
X0121170Y0229609D01*
X0118968Y0229609D01*
X0117867Y0230710D01*
X0117867Y0235114D01*
X0118968Y0236215D01*
X0121170Y0236215D01*
X0122271Y0235114D01*
X0108341Y0234013D02*
X0107240Y0234013D01*
X0105038Y0231811D01*
X0105038Y0229609D02*
X0105038Y0234013D01*
X0102443Y0232912D02*
X0101343Y0234013D01*
X0099141Y0234013D01*
X0098040Y0232912D01*
X0098040Y0230710D01*
X0099141Y0229609D01*
X0101343Y0229609D01*
X0102443Y0230710D01*
X0102443Y0232912D01*
X0095576Y0234013D02*
X0093374Y0234013D01*
X0094475Y0235114D02*
X0094475Y0230710D01*
X0095576Y0229609D01*
X0090780Y0230710D02*
X0090780Y0232912D01*
X0089679Y0234013D01*
X0087477Y0234013D01*
X0086376Y0232912D01*
X0086376Y0230710D01*
X0087477Y0229609D01*
X0089679Y0229609D01*
X0090780Y0230710D01*
X0083782Y0229609D02*
X0083782Y0236215D01*
X0081580Y0234013D01*
X0079378Y0236215D01*
X0079378Y0229609D01*
X0079378Y0221513D02*
X0079378Y0217109D01*
X0079378Y0219311D02*
X0081580Y0221513D01*
X0082681Y0221513D01*
X0085210Y0220412D02*
X0086311Y0221513D01*
X0089614Y0221513D01*
X0089614Y0223715D02*
X0089614Y0217109D01*
X0086311Y0217109D01*
X0085210Y0218210D01*
X0085210Y0220412D01*
X0092208Y0218210D02*
X0093309Y0218210D01*
X0093309Y0217109D01*
X0092208Y0217109D01*
X0092208Y0218210D01*
X0095707Y0218210D02*
X0095707Y0220412D01*
X0096808Y0221513D01*
X0100111Y0221513D01*
X0102705Y0220412D02*
X0102705Y0218210D01*
X0103806Y0217109D01*
X0106008Y0217109D01*
X0107109Y0218210D01*
X0107109Y0220412D01*
X0106008Y0221513D01*
X0103806Y0221513D01*
X0102705Y0220412D01*
X0100111Y0217109D02*
X0096808Y0217109D01*
X0095707Y0218210D01*
X0095707Y0211215D02*
X0096808Y0211215D01*
X0096808Y0204609D01*
X0095707Y0204609D02*
X0097909Y0204609D01*
X0100372Y0205710D02*
X0100372Y0207912D01*
X0101473Y0209013D01*
X0103675Y0209013D01*
X0104776Y0207912D01*
X0104776Y0206811D01*
X0100372Y0206811D01*
X0100372Y0205710D02*
X0101473Y0204609D01*
X0103675Y0204609D01*
X0107370Y0204609D02*
X0107370Y0209013D01*
X0107370Y0206811D02*
X0109572Y0209013D01*
X0110673Y0209013D01*
X0109703Y0217109D02*
X0109703Y0221513D01*
X0110804Y0221513D01*
X0111905Y0220412D01*
X0113006Y0221513D01*
X0114107Y0220412D01*
X0114107Y0217109D01*
X0111905Y0217109D02*
X0111905Y0220412D01*
X0093113Y0209013D02*
X0089810Y0209013D01*
X0088709Y0207912D01*
X0089810Y0206811D01*
X0092012Y0206811D01*
X0093113Y0205710D01*
X0092012Y0204609D01*
X0088709Y0204609D01*
X0086115Y0205710D02*
X0085014Y0206811D01*
X0082812Y0206811D01*
X0081711Y0207912D01*
X0082812Y0209013D01*
X0086115Y0209013D01*
X0086115Y0205710D02*
X0085014Y0204609D01*
X0081711Y0204609D01*
X0079117Y0204609D02*
X0075814Y0204609D01*
X0074713Y0205710D01*
X0075814Y0206811D01*
X0079117Y0206811D01*
X0079117Y0207912D02*
X0079117Y0204609D01*
X0079117Y0207912D02*
X0078016Y0209013D01*
X0075814Y0209013D01*
X0075814Y0211215D02*
X0075814Y0212316D01*
X0078016Y0212316D02*
X0078016Y0211215D01*
X0072119Y0211215D02*
X0067715Y0211215D01*
X0067715Y0204609D01*
X0067715Y0207912D02*
X0069917Y0207912D01*
X0069786Y0217109D02*
X0069786Y0220412D01*
X0068685Y0221513D01*
X0065383Y0221513D01*
X0065383Y0217109D01*
X0062854Y0221513D02*
X0061753Y0221513D01*
X0059551Y0219311D01*
X0059551Y0217109D02*
X0059551Y0221513D01*
X0056957Y0220412D02*
X0056957Y0219311D01*
X0052553Y0219311D01*
X0052553Y0218210D02*
X0052553Y0220412D01*
X0053654Y0221513D01*
X0055856Y0221513D01*
X0056957Y0220412D01*
X0055856Y0217109D02*
X0053654Y0217109D01*
X0052553Y0218210D01*
X0049959Y0217109D02*
X0046656Y0217109D01*
X0045555Y0218210D01*
X0045555Y0220412D01*
X0046656Y0221513D01*
X0049959Y0221513D01*
X0049959Y0223715D02*
X0049959Y0217109D01*
X0043092Y0217109D02*
X0040890Y0217109D01*
X0041991Y0217109D02*
X0041991Y0223715D01*
X0040890Y0223715D01*
X0038295Y0220412D02*
X0037194Y0221513D01*
X0034993Y0221513D01*
X0033892Y0220412D01*
X0033892Y0218210D01*
X0034993Y0217109D01*
X0037194Y0217109D01*
X0038295Y0218210D01*
X0038295Y0220412D01*
X0031297Y0221513D02*
X0027995Y0221513D01*
X0026894Y0220412D01*
X0027995Y0219311D01*
X0030197Y0219311D01*
X0031297Y0218210D01*
X0030197Y0217109D01*
X0026894Y0217109D01*
X0026894Y0211215D02*
X0026894Y0204609D01*
X0031297Y0204609D01*
X0033892Y0205710D02*
X0033892Y0209013D01*
X0033892Y0205710D02*
X0034993Y0204609D01*
X0038295Y0204609D01*
X0038295Y0209013D01*
X0040890Y0206811D02*
X0044192Y0209013D01*
X0047822Y0209013D02*
X0050024Y0209013D01*
X0051125Y0207912D01*
X0051125Y0204609D01*
X0047822Y0204609D01*
X0046721Y0205710D01*
X0047822Y0206811D01*
X0051125Y0206811D01*
X0053719Y0207912D02*
X0054820Y0209013D01*
X0058123Y0209013D01*
X0057022Y0206811D02*
X0058123Y0205710D01*
X0057022Y0204609D01*
X0053719Y0204609D01*
X0054820Y0206811D02*
X0053719Y0207912D01*
X0054820Y0206811D02*
X0057022Y0206811D01*
X0060652Y0198715D02*
X0059551Y0197614D01*
X0060652Y0198715D02*
X0062854Y0198715D01*
X0063955Y0197614D01*
X0063955Y0196513D01*
X0059551Y0192109D01*
X0063955Y0192109D01*
X0066549Y0193210D02*
X0066549Y0197614D01*
X0067650Y0198715D01*
X0069852Y0198715D01*
X0070953Y0197614D01*
X0066549Y0193210D01*
X0067650Y0192109D01*
X0069852Y0192109D01*
X0070953Y0193210D01*
X0070953Y0197614D01*
X0073547Y0196513D02*
X0075749Y0198715D01*
X0075749Y0192109D01*
X0073547Y0192109D02*
X0077951Y0192109D01*
X0080545Y0192109D02*
X0080545Y0193210D01*
X0084949Y0197614D01*
X0084949Y0198715D01*
X0080545Y0198715D01*
X0075683Y0217109D02*
X0073481Y0217109D01*
X0072381Y0218210D01*
X0072381Y0220412D01*
X0073481Y0221513D01*
X0075683Y0221513D01*
X0076784Y0220412D01*
X0076784Y0219311D01*
X0072381Y0219311D01*
X0066549Y0229609D02*
X0066549Y0234013D01*
X0066549Y0231811D02*
X0068751Y0234013D01*
X0069852Y0234013D01*
X0063955Y0232912D02*
X0063955Y0231811D01*
X0059551Y0231811D01*
X0059551Y0230710D02*
X0059551Y0232912D01*
X0060652Y0234013D01*
X0062854Y0234013D01*
X0063955Y0232912D01*
X0062854Y0229609D02*
X0060652Y0229609D01*
X0059551Y0230710D01*
X0056957Y0230710D02*
X0055856Y0229609D01*
X0052553Y0229609D01*
X0052553Y0227408D02*
X0052553Y0234013D01*
X0055856Y0234013D01*
X0056957Y0232912D01*
X0056957Y0230710D01*
X0049959Y0230710D02*
X0048858Y0229609D01*
X0045555Y0229609D01*
X0045555Y0227408D02*
X0045555Y0234013D01*
X0048858Y0234013D01*
X0049959Y0232912D01*
X0049959Y0230710D01*
X0042961Y0231811D02*
X0038557Y0231811D01*
X0038557Y0230710D02*
X0038557Y0232912D01*
X0039658Y0234013D01*
X0041860Y0234013D01*
X0042961Y0232912D01*
X0042961Y0231811D01*
X0041860Y0229609D02*
X0039658Y0229609D01*
X0038557Y0230710D01*
X0036094Y0229609D02*
X0034993Y0230710D01*
X0034993Y0235114D01*
X0033892Y0234013D02*
X0036094Y0234013D01*
X0031297Y0235114D02*
X0030197Y0236215D01*
X0027995Y0236215D01*
X0026894Y0235114D01*
X0026894Y0234013D01*
X0027995Y0232912D01*
X0030197Y0232912D01*
X0031297Y0231811D01*
X0031297Y0230710D01*
X0030197Y0229609D01*
X0027995Y0229609D01*
X0026894Y0230710D01*
X0040890Y0211215D02*
X0040890Y0204609D01*
X0040890Y0206811D02*
X0044192Y0204609D01*
X0044192Y0196513D02*
X0040890Y0196513D01*
X0040890Y0189908D01*
X0040890Y0192109D02*
X0044192Y0192109D01*
X0045293Y0193210D01*
X0045293Y0195412D01*
X0044192Y0196513D01*
X0047888Y0196513D02*
X0050089Y0196513D01*
X0048989Y0197614D02*
X0048989Y0193210D01*
X0050089Y0192109D01*
X0057087Y0186215D02*
X0059289Y0184013D01*
X0059289Y0179609D01*
X0059289Y0182912D02*
X0054886Y0182912D01*
X0054886Y0184013D02*
X0054886Y0179609D01*
X0054886Y0184013D02*
X0057087Y0186215D01*
X0045293Y0184013D02*
X0043092Y0179609D01*
X0040890Y0184013D01*
X0038295Y0182912D02*
X0037194Y0184013D01*
X0034993Y0184013D01*
X0033892Y0182912D01*
X0033892Y0180710D01*
X0034993Y0179609D01*
X0037194Y0179609D01*
X0038295Y0181811D02*
X0033892Y0181811D01*
X0031297Y0182912D02*
X0031297Y0185114D01*
X0030197Y0186215D01*
X0026894Y0186215D01*
X0026894Y0179609D01*
X0026894Y0181811D02*
X0030197Y0181811D01*
X0031297Y0182912D01*
X0029096Y0181811D02*
X0031297Y0179609D01*
X0038295Y0181811D02*
X0038295Y0182912D01*
X0037194Y0192109D02*
X0034993Y0192109D01*
X0033892Y0193210D01*
X0033892Y0195412D01*
X0034993Y0196513D01*
X0037194Y0196513D01*
X0038295Y0195412D01*
X0038295Y0194311D01*
X0033892Y0194311D01*
X0031297Y0194311D02*
X0030197Y0195412D01*
X0027995Y0195412D01*
X0026894Y0196513D01*
X0026894Y0197614D01*
X0027995Y0198715D01*
X0030197Y0198715D01*
X0031297Y0197614D01*
X0031297Y0194311D02*
X0031297Y0193210D01*
X0030197Y0192109D01*
X0027995Y0192109D01*
X0026894Y0193210D01*
D12*
X0139355Y0257009D02*
X0140790Y0257009D01*
X0140072Y0257009D02*
X0140072Y0261313D01*
X0139355Y0261313D02*
X0140790Y0261313D01*
X0142424Y0260596D02*
X0142424Y0257727D01*
X0143142Y0257009D01*
X0144576Y0257009D01*
X0145294Y0257727D01*
X0147028Y0257009D02*
X0149897Y0259879D01*
X0149897Y0260596D01*
X0149180Y0261313D01*
X0147746Y0261313D01*
X0147028Y0260596D01*
X0145294Y0260596D02*
X0144576Y0261313D01*
X0143142Y0261313D01*
X0142424Y0260596D01*
X0147028Y0257009D02*
X0149897Y0257009D01*
X0173811Y0286709D02*
X0172994Y0287527D01*
X0173811Y0286709D02*
X0175446Y0286709D01*
X0176263Y0287527D01*
X0176263Y0289162D01*
X0175446Y0289979D01*
X0174628Y0289979D01*
X0172994Y0289162D01*
X0172994Y0291614D01*
X0176263Y0291614D01*
X0178150Y0291614D02*
X0178150Y0288344D01*
X0179785Y0286709D01*
X0181420Y0288344D01*
X0181420Y0291614D01*
X0181420Y0296709D02*
X0181420Y0301614D01*
X0179785Y0299979D01*
X0178150Y0301614D01*
X0178150Y0296709D01*
X0174628Y0296709D02*
X0174628Y0301614D01*
X0172994Y0301614D02*
X0176263Y0301614D01*
X0175446Y0306709D02*
X0176263Y0307527D01*
X0176263Y0309162D01*
X0174628Y0309162D01*
X0172994Y0310796D02*
X0172994Y0307527D01*
X0173811Y0306709D01*
X0175446Y0306709D01*
X0178150Y0306709D02*
X0178150Y0311614D01*
X0181420Y0306709D01*
X0181420Y0311614D01*
X0183306Y0311614D02*
X0185759Y0311614D01*
X0186576Y0310796D01*
X0186576Y0307527D01*
X0185759Y0306709D01*
X0183306Y0306709D01*
X0183306Y0311614D01*
X0176263Y0310796D02*
X0175446Y0311614D01*
X0173811Y0311614D01*
X0172994Y0310796D01*
X0183306Y0301614D02*
X0185759Y0301614D01*
X0186576Y0300796D01*
X0186576Y0299162D01*
X0185759Y0298344D01*
X0183306Y0298344D01*
X0183306Y0296709D02*
X0183306Y0301614D01*
X0179707Y0320459D02*
X0181341Y0322094D01*
X0181341Y0325364D01*
X0178072Y0325364D02*
X0178072Y0322094D01*
X0179707Y0320459D01*
X0176185Y0322912D02*
X0172915Y0322912D01*
X0175368Y0325364D01*
X0175368Y0320459D01*
X0171029Y0320459D02*
X0167759Y0320459D01*
X0171029Y0323729D01*
X0171029Y0324546D01*
X0170211Y0325364D01*
X0168576Y0325364D01*
X0167759Y0324546D01*
X0162904Y0322912D02*
X0159635Y0322912D01*
X0161269Y0324546D02*
X0161269Y0321277D01*
X0152591Y0320459D02*
X0152591Y0325364D01*
X0149322Y0325364D02*
X0149322Y0320459D01*
X0147435Y0320459D02*
X0147435Y0323729D01*
X0145800Y0325364D01*
X0144165Y0323729D01*
X0144165Y0320459D01*
X0144165Y0322912D02*
X0147435Y0322912D01*
X0149322Y0325364D02*
X0152591Y0320459D01*
X0142279Y0325364D02*
X0139009Y0325364D01*
X0139009Y0320459D01*
X0139009Y0322912D02*
X0140644Y0322912D01*
X0131966Y0322912D02*
X0128696Y0322912D01*
X0128326Y0302563D02*
X0126892Y0302563D01*
X0126174Y0301846D01*
X0126174Y0298977D01*
X0126892Y0298259D01*
X0128326Y0298259D01*
X0129044Y0298977D01*
X0130778Y0298977D02*
X0130778Y0298259D01*
X0130778Y0298977D02*
X0133647Y0301846D01*
X0133647Y0302563D01*
X0130778Y0302563D01*
X0129044Y0301846D02*
X0128326Y0302563D01*
X0124540Y0302563D02*
X0123105Y0302563D01*
X0123822Y0302563D02*
X0123822Y0298259D01*
X0123105Y0298259D02*
X0124540Y0298259D01*
X0187759Y0321277D02*
X0188576Y0320459D01*
X0190211Y0320459D01*
X0191029Y0321277D01*
X0191029Y0322912D01*
X0189394Y0322912D01*
X0191029Y0324546D02*
X0190211Y0325364D01*
X0188576Y0325364D01*
X0187759Y0324546D01*
X0187759Y0321277D01*
X0192915Y0320459D02*
X0192915Y0325364D01*
X0196185Y0320459D01*
X0196185Y0325364D01*
X0198072Y0325364D02*
X0198072Y0320459D01*
X0200524Y0320459D01*
X0201341Y0321277D01*
X0201341Y0324546D01*
X0200524Y0325364D01*
X0198072Y0325364D01*
X0233544Y0281413D02*
X0233544Y0278544D01*
X0233544Y0279979D02*
X0229240Y0279979D01*
X0230675Y0278544D01*
X0229957Y0276809D02*
X0229240Y0276092D01*
X0229240Y0274657D01*
X0229957Y0273940D01*
X0232826Y0273940D01*
X0233544Y0274657D01*
X0233544Y0276092D01*
X0232826Y0276809D01*
X0233544Y0272305D02*
X0233544Y0270871D01*
X0233544Y0271588D02*
X0229240Y0271588D01*
X0229240Y0270871D02*
X0229240Y0272305D01*
X0200863Y0262009D02*
X0197994Y0262009D01*
X0199428Y0262009D02*
X0199428Y0266313D01*
X0197994Y0264879D01*
X0196259Y0266313D02*
X0193390Y0262009D01*
X0196259Y0262009D02*
X0193390Y0266313D01*
X0241744Y0220364D02*
X0242561Y0221181D01*
X0244196Y0219546D01*
X0245013Y0220364D01*
X0246900Y0220364D02*
X0246900Y0215459D01*
X0250170Y0215459D01*
X0252056Y0215459D02*
X0252056Y0220364D01*
X0255326Y0215459D01*
X0255326Y0220364D01*
X0250170Y0220364D02*
X0246900Y0220364D01*
X0246900Y0217912D02*
X0248535Y0217912D01*
X0248535Y0210364D02*
X0246900Y0210364D01*
X0247717Y0210364D02*
X0247717Y0205459D01*
X0246900Y0205459D02*
X0248535Y0205459D01*
X0250338Y0205459D02*
X0250338Y0210364D01*
X0252790Y0210364D01*
X0253607Y0209546D01*
X0253607Y0207912D01*
X0252790Y0207094D01*
X0250338Y0207094D01*
X0251972Y0207094D02*
X0253607Y0205459D01*
X0252056Y0200364D02*
X0252056Y0195459D01*
X0255326Y0195459D01*
X0257213Y0195459D02*
X0257213Y0200364D01*
X0259665Y0200364D01*
X0260482Y0199546D01*
X0260482Y0197912D01*
X0259665Y0197094D01*
X0257213Y0197094D01*
X0253691Y0197912D02*
X0252056Y0197912D01*
X0252056Y0200364D02*
X0255326Y0200364D01*
X0250170Y0200364D02*
X0246900Y0200364D01*
X0248535Y0200364D02*
X0248535Y0195459D01*
X0245013Y0196277D02*
X0244196Y0195459D01*
X0242561Y0195459D01*
X0241744Y0196277D01*
X0242561Y0197912D02*
X0244196Y0197912D01*
X0245013Y0197094D01*
X0245013Y0196277D01*
X0242561Y0197912D02*
X0241744Y0198729D01*
X0241744Y0199546D01*
X0242561Y0200364D01*
X0244196Y0200364D01*
X0245013Y0199546D01*
X0244196Y0205459D02*
X0241744Y0205459D01*
X0241744Y0210364D01*
X0244196Y0210364D01*
X0245013Y0209546D01*
X0245013Y0206277D01*
X0244196Y0205459D01*
X0242561Y0191181D02*
X0244196Y0189546D01*
X0245013Y0190364D01*
X0246900Y0190364D02*
X0246900Y0185459D01*
X0250170Y0185459D01*
X0252056Y0185459D02*
X0252056Y0190364D01*
X0254509Y0190364D01*
X0255326Y0189546D01*
X0255326Y0187912D01*
X0254509Y0187094D01*
X0252056Y0187094D01*
X0253691Y0187094D02*
X0255326Y0185459D01*
X0257213Y0185459D02*
X0257213Y0190364D01*
X0259665Y0190364D01*
X0260482Y0189546D01*
X0260482Y0187912D01*
X0259665Y0187094D01*
X0257213Y0187094D01*
X0258848Y0187094D02*
X0260482Y0185459D01*
X0266744Y0186277D02*
X0266744Y0189546D01*
X0267561Y0190364D01*
X0269196Y0190364D01*
X0270013Y0189546D01*
X0270013Y0187912D02*
X0268378Y0187912D01*
X0270013Y0187912D02*
X0270013Y0186277D01*
X0269196Y0185459D01*
X0267561Y0185459D01*
X0266744Y0186277D01*
X0267561Y0180364D02*
X0266744Y0179546D01*
X0266744Y0176277D01*
X0267561Y0175459D01*
X0269196Y0175459D01*
X0270013Y0176277D01*
X0270013Y0177912D01*
X0268378Y0177912D01*
X0270013Y0179546D02*
X0269196Y0180364D01*
X0267561Y0180364D01*
X0271900Y0180364D02*
X0275170Y0175459D01*
X0275170Y0180364D01*
X0277056Y0180364D02*
X0279509Y0180364D01*
X0280326Y0179546D01*
X0280326Y0176277D01*
X0279509Y0175459D01*
X0277056Y0175459D01*
X0277056Y0180364D01*
X0277056Y0185459D02*
X0279509Y0185459D01*
X0280326Y0186277D01*
X0280326Y0189546D01*
X0279509Y0190364D01*
X0277056Y0190364D01*
X0277056Y0185459D01*
X0275170Y0185459D02*
X0275170Y0190364D01*
X0271900Y0190364D02*
X0275170Y0185459D01*
X0271900Y0185459D02*
X0271900Y0190364D01*
X0271900Y0195459D02*
X0271900Y0200364D01*
X0275170Y0195459D01*
X0275170Y0200364D01*
X0277056Y0200364D02*
X0277056Y0195459D01*
X0279509Y0195459D01*
X0280326Y0196277D01*
X0280326Y0199546D01*
X0279509Y0200364D01*
X0277056Y0200364D01*
X0277056Y0205459D02*
X0279509Y0205459D01*
X0280326Y0206277D01*
X0280326Y0209546D01*
X0279509Y0210364D01*
X0277056Y0210364D01*
X0277056Y0205459D01*
X0275170Y0205459D02*
X0275170Y0210364D01*
X0271900Y0210364D02*
X0275170Y0205459D01*
X0271900Y0205459D02*
X0271900Y0210364D01*
X0270013Y0209546D02*
X0269196Y0210364D01*
X0267561Y0210364D01*
X0266744Y0209546D01*
X0266744Y0206277D01*
X0267561Y0205459D01*
X0269196Y0205459D01*
X0270013Y0206277D01*
X0270013Y0207912D01*
X0268378Y0207912D01*
X0267561Y0215459D02*
X0266744Y0216277D01*
X0266744Y0219546D01*
X0267561Y0220364D01*
X0269196Y0220364D01*
X0270013Y0219546D01*
X0270013Y0217912D02*
X0268378Y0217912D01*
X0270013Y0217912D02*
X0270013Y0216277D01*
X0269196Y0215459D01*
X0267561Y0215459D01*
X0271900Y0215459D02*
X0271900Y0220364D01*
X0275170Y0215459D01*
X0275170Y0220364D01*
X0277056Y0220364D02*
X0277056Y0215459D01*
X0279509Y0215459D01*
X0280326Y0216277D01*
X0280326Y0219546D01*
X0279509Y0220364D01*
X0277056Y0220364D01*
X0295190Y0204185D02*
X0298459Y0204185D01*
X0300094Y0202551D01*
X0298459Y0200916D01*
X0295190Y0200916D01*
X0295190Y0199029D02*
X0295190Y0195759D01*
X0297642Y0195759D01*
X0296824Y0197394D01*
X0296824Y0198212D01*
X0297642Y0199029D01*
X0299276Y0199029D01*
X0300094Y0198212D01*
X0300094Y0196577D01*
X0299276Y0195759D01*
X0305190Y0195759D02*
X0305190Y0198212D01*
X0306007Y0199029D01*
X0309276Y0199029D01*
X0310094Y0198212D01*
X0310094Y0195759D01*
X0305190Y0195759D01*
X0307642Y0200916D02*
X0307642Y0204185D01*
X0316007Y0202551D02*
X0319276Y0202551D01*
X0317642Y0204185D02*
X0317642Y0200916D01*
X0319276Y0199029D02*
X0316007Y0199029D01*
X0315190Y0198212D01*
X0315190Y0195759D01*
X0320094Y0195759D01*
X0320094Y0198212D01*
X0319276Y0199029D01*
X0325190Y0198212D02*
X0325190Y0196577D01*
X0326007Y0195759D01*
X0329276Y0195759D01*
X0330094Y0196577D01*
X0330094Y0198212D01*
X0329276Y0199029D01*
X0327642Y0199029D01*
X0327642Y0197394D01*
X0326007Y0199029D02*
X0325190Y0198212D01*
X0325190Y0200916D02*
X0330094Y0204185D01*
X0325190Y0204185D01*
X0325190Y0206072D02*
X0325190Y0208524D01*
X0326007Y0209342D01*
X0329276Y0209342D01*
X0330094Y0208524D01*
X0330094Y0206072D01*
X0325190Y0206072D01*
X0325190Y0200916D02*
X0330094Y0200916D01*
X0335190Y0200916D02*
X0340094Y0204185D01*
X0335190Y0204185D01*
X0335190Y0206072D02*
X0335190Y0208524D01*
X0336007Y0209342D01*
X0339276Y0209342D01*
X0340094Y0208524D01*
X0340094Y0206072D01*
X0335190Y0206072D01*
X0335190Y0200916D02*
X0340094Y0200916D01*
X0339276Y0199029D02*
X0337642Y0199029D01*
X0337642Y0197394D01*
X0339276Y0195759D02*
X0340094Y0196577D01*
X0340094Y0198212D01*
X0339276Y0199029D01*
X0336007Y0199029D02*
X0335190Y0198212D01*
X0335190Y0196577D01*
X0336007Y0195759D01*
X0339276Y0195759D01*
X0316044Y0170732D02*
X0316044Y0167863D01*
X0316044Y0169298D02*
X0311740Y0169298D01*
X0313175Y0167863D01*
X0311740Y0166129D02*
X0316044Y0166129D01*
X0311740Y0163259D01*
X0316044Y0163259D01*
X0315326Y0161525D02*
X0312457Y0161525D01*
X0311740Y0160807D01*
X0311740Y0159373D01*
X0312457Y0158656D01*
X0315326Y0158656D01*
X0316044Y0159373D01*
X0316044Y0160807D01*
X0315326Y0161525D01*
X0315326Y0156921D02*
X0316044Y0156203D01*
X0316044Y0154769D01*
X0315326Y0154052D01*
X0312457Y0154052D01*
X0311740Y0154769D01*
X0311740Y0156203D01*
X0312457Y0156921D01*
X0271900Y0175459D02*
X0271900Y0180364D01*
X0269196Y0195459D02*
X0270013Y0196277D01*
X0270013Y0197912D01*
X0268378Y0197912D01*
X0266744Y0199546D02*
X0266744Y0196277D01*
X0267561Y0195459D01*
X0269196Y0195459D01*
X0270013Y0199546D02*
X0269196Y0200364D01*
X0267561Y0200364D01*
X0266744Y0199546D01*
X0250170Y0190364D02*
X0246900Y0190364D01*
X0246900Y0187912D02*
X0248535Y0187912D01*
X0242561Y0191181D02*
X0241744Y0190364D01*
X0241744Y0180364D02*
X0241744Y0177912D01*
X0243378Y0178729D01*
X0244196Y0178729D01*
X0245013Y0177912D01*
X0245013Y0176277D01*
X0244196Y0175459D01*
X0242561Y0175459D01*
X0241744Y0176277D01*
X0241744Y0180364D02*
X0245013Y0180364D01*
X0246900Y0180364D02*
X0246900Y0177094D01*
X0248535Y0175459D01*
X0250170Y0177094D01*
X0250170Y0180364D01*
D13*
X0245387Y0117672D02*
X0243919Y0117672D01*
X0243185Y0116938D01*
X0243185Y0116204D01*
X0243919Y0115470D01*
X0245387Y0115470D01*
X0246121Y0114736D01*
X0246121Y0114002D01*
X0245387Y0113269D01*
X0243919Y0113269D01*
X0243185Y0114002D01*
X0241517Y0113269D02*
X0241517Y0117672D01*
X0238581Y0117672D02*
X0241517Y0113269D01*
X0241617Y0111767D02*
X0240883Y0111033D01*
X0240883Y0110299D01*
X0241617Y0109565D01*
X0243819Y0109565D01*
X0243819Y0111033D02*
X0243085Y0111767D01*
X0241617Y0111767D01*
X0243819Y0111033D02*
X0243819Y0108097D01*
X0243085Y0107363D01*
X0241617Y0107363D01*
X0240883Y0108097D01*
X0239215Y0108097D02*
X0238481Y0107363D01*
X0237013Y0107363D01*
X0236279Y0108097D01*
X0239215Y0111033D01*
X0239215Y0108097D01*
X0239215Y0111033D02*
X0238481Y0111767D01*
X0237013Y0111767D01*
X0236279Y0111033D01*
X0236279Y0108097D01*
X0234611Y0108097D02*
X0233877Y0107363D01*
X0232409Y0107363D01*
X0231675Y0108097D01*
X0231675Y0111033D01*
X0232409Y0111767D01*
X0233877Y0111767D01*
X0234611Y0111033D01*
X0233977Y0113269D02*
X0233977Y0117672D01*
X0236179Y0117672D01*
X0236913Y0116938D01*
X0236913Y0115470D01*
X0236179Y0114736D01*
X0233977Y0114736D01*
X0235445Y0114736D02*
X0236913Y0113269D01*
X0238581Y0113269D02*
X0238581Y0117672D01*
X0245387Y0117672D02*
X0246121Y0116938D01*
X0232309Y0117672D02*
X0232309Y0114002D01*
X0231575Y0113269D01*
X0230107Y0113269D01*
X0229373Y0114002D01*
X0229373Y0117672D01*
X0227705Y0116938D02*
X0226971Y0117672D01*
X0225503Y0117672D01*
X0224769Y0116938D01*
X0224769Y0114002D01*
X0225503Y0113269D01*
X0226971Y0113269D01*
X0227705Y0114002D01*
X0227705Y0116938D01*
X0223101Y0116938D02*
X0222367Y0117672D01*
X0220165Y0117672D01*
X0220165Y0113269D01*
X0222367Y0113269D01*
X0223101Y0114002D01*
X0223101Y0114736D01*
X0222367Y0115470D01*
X0220165Y0115470D01*
X0222367Y0115470D02*
X0223101Y0116204D01*
X0223101Y0116938D01*
X0222467Y0111767D02*
X0224669Y0111767D01*
X0225403Y0111033D01*
X0225403Y0109565D01*
X0224669Y0108831D01*
X0222467Y0108831D01*
X0222467Y0107363D02*
X0222467Y0111767D01*
X0227071Y0111767D02*
X0227071Y0107363D01*
X0230007Y0107363D01*
X0228539Y0109565D02*
X0227071Y0109565D01*
X0227071Y0111767D02*
X0230007Y0111767D01*
X0229273Y0094050D02*
X0227805Y0094050D01*
X0227071Y0093316D01*
X0227071Y0092582D01*
X0227805Y0091848D01*
X0229273Y0091848D01*
X0230007Y0091114D01*
X0230007Y0090380D01*
X0229273Y0089646D01*
X0227805Y0089646D01*
X0227071Y0090380D01*
X0230007Y0093316D02*
X0229273Y0094050D01*
X0231675Y0094050D02*
X0231675Y0089646D01*
X0233143Y0091114D01*
X0234611Y0089646D01*
X0234611Y0094050D01*
X0236279Y0091848D02*
X0238481Y0094050D01*
X0238481Y0089646D01*
X0239215Y0091848D02*
X0236279Y0091848D01*
X0167344Y0145821D02*
X0167344Y0147289D01*
X0167344Y0146555D02*
X0162940Y0146555D01*
X0162940Y0145821D02*
X0162940Y0147289D01*
X0163674Y0148890D02*
X0166610Y0148890D01*
X0167344Y0149624D01*
X0167344Y0151092D01*
X0166610Y0151826D01*
X0166610Y0153494D02*
X0167344Y0154228D01*
X0167344Y0155696D01*
X0166610Y0156430D01*
X0165142Y0156430D01*
X0164408Y0155696D01*
X0164408Y0154962D01*
X0165142Y0153494D01*
X0162940Y0153494D01*
X0162940Y0156430D01*
X0163674Y0151826D02*
X0162940Y0151092D01*
X0162940Y0149624D01*
X0163674Y0148890D01*
X0115562Y0183376D02*
X0115562Y0184489D01*
X0115562Y0183933D02*
X0112222Y0183933D01*
X0112222Y0184489D02*
X0112222Y0183376D01*
X0112779Y0185793D02*
X0115006Y0185793D01*
X0115562Y0186349D01*
X0115562Y0187463D01*
X0115006Y0188019D01*
X0115006Y0189418D02*
X0115562Y0189974D01*
X0115562Y0191088D01*
X0115006Y0191644D01*
X0114449Y0191644D01*
X0113892Y0191088D01*
X0113892Y0190531D01*
X0113892Y0191088D02*
X0113336Y0191644D01*
X0112779Y0191644D01*
X0112222Y0191088D01*
X0112222Y0189974D01*
X0112779Y0189418D01*
X0112779Y0188019D02*
X0112222Y0187463D01*
X0112222Y0186349D01*
X0112779Y0185793D01*
X0107592Y0117672D02*
X0106124Y0117672D01*
X0105390Y0116938D01*
X0105390Y0116204D01*
X0106124Y0115470D01*
X0107592Y0115470D01*
X0108326Y0114736D01*
X0108326Y0114002D01*
X0107592Y0113269D01*
X0106124Y0113269D01*
X0105390Y0114002D01*
X0103722Y0113269D02*
X0103722Y0117672D01*
X0100786Y0117672D02*
X0100786Y0113269D01*
X0100686Y0111767D02*
X0101420Y0111033D01*
X0098484Y0108097D01*
X0099218Y0107363D01*
X0100686Y0107363D01*
X0101420Y0108097D01*
X0101420Y0111033D01*
X0100686Y0111767D02*
X0099218Y0111767D01*
X0098484Y0111033D01*
X0098484Y0108097D01*
X0096816Y0108097D02*
X0096082Y0107363D01*
X0094614Y0107363D01*
X0093880Y0108097D01*
X0093880Y0111033D01*
X0094614Y0111767D01*
X0096082Y0111767D01*
X0096816Y0111033D01*
X0096182Y0113269D02*
X0096182Y0117672D01*
X0098384Y0117672D01*
X0099118Y0116938D01*
X0099118Y0115470D01*
X0098384Y0114736D01*
X0096182Y0114736D01*
X0097650Y0114736D02*
X0099118Y0113269D01*
X0103088Y0111033D02*
X0103088Y0110299D01*
X0103822Y0109565D01*
X0106024Y0109565D01*
X0106024Y0111033D02*
X0105290Y0111767D01*
X0103822Y0111767D01*
X0103088Y0111033D01*
X0103722Y0113269D02*
X0100786Y0117672D01*
X0094514Y0117672D02*
X0094514Y0114002D01*
X0093780Y0113269D01*
X0092312Y0113269D01*
X0091578Y0114002D01*
X0091578Y0117672D01*
X0089910Y0116938D02*
X0089176Y0117672D01*
X0087708Y0117672D01*
X0086974Y0116938D01*
X0086974Y0114002D01*
X0087708Y0113269D01*
X0089176Y0113269D01*
X0089910Y0114002D01*
X0089910Y0116938D01*
X0085306Y0116938D02*
X0084572Y0117672D01*
X0082370Y0117672D01*
X0082370Y0113269D01*
X0084572Y0113269D01*
X0085306Y0114002D01*
X0085306Y0114736D01*
X0084572Y0115470D01*
X0082370Y0115470D01*
X0084572Y0115470D02*
X0085306Y0116204D01*
X0085306Y0116938D01*
X0084672Y0111767D02*
X0086874Y0111767D01*
X0087608Y0111033D01*
X0087608Y0109565D01*
X0086874Y0108831D01*
X0084672Y0108831D01*
X0084672Y0107363D02*
X0084672Y0111767D01*
X0089276Y0111767D02*
X0089276Y0107363D01*
X0092212Y0107363D01*
X0090744Y0109565D02*
X0089276Y0109565D01*
X0089276Y0111767D02*
X0092212Y0111767D01*
X0103088Y0108097D02*
X0103822Y0107363D01*
X0105290Y0107363D01*
X0106024Y0108097D01*
X0106024Y0111033D01*
X0108326Y0116938D02*
X0107592Y0117672D01*
X0100686Y0094050D02*
X0101420Y0093316D01*
X0101420Y0092582D01*
X0100686Y0091848D01*
X0101420Y0091114D01*
X0101420Y0090380D01*
X0100686Y0089646D01*
X0099218Y0089646D01*
X0098484Y0090380D01*
X0096816Y0089646D02*
X0095348Y0091114D01*
X0093880Y0089646D01*
X0093880Y0094050D01*
X0092212Y0093316D02*
X0091478Y0094050D01*
X0090010Y0094050D01*
X0089276Y0093316D01*
X0089276Y0092582D01*
X0090010Y0091848D01*
X0091478Y0091848D01*
X0092212Y0091114D01*
X0092212Y0090380D01*
X0091478Y0089646D01*
X0090010Y0089646D01*
X0089276Y0090380D01*
X0096816Y0089646D02*
X0096816Y0094050D01*
X0098484Y0093316D02*
X0099218Y0094050D01*
X0100686Y0094050D01*
X0100686Y0091848D02*
X0099952Y0091848D01*
X0289190Y0272071D02*
X0289190Y0273539D01*
X0289190Y0272805D02*
X0293594Y0272805D01*
X0293594Y0272071D02*
X0293594Y0273539D01*
X0292860Y0275140D02*
X0293594Y0275874D01*
X0293594Y0277342D01*
X0292860Y0278076D01*
X0291392Y0279744D02*
X0291392Y0282680D01*
X0293594Y0281946D02*
X0289190Y0281946D01*
X0291392Y0279744D01*
X0289924Y0278076D02*
X0289190Y0277342D01*
X0289190Y0275874D01*
X0289924Y0275140D01*
X0292860Y0275140D01*
M02*
