G75*
%MOIN*%
%OFA0B0*%
%FSLAX25Y25*%
%IPPOS*%
%LPD*%
%AMOC8*
5,1,8,0,0,1.08239X$1,22.5*
%
%ADD10C,0.00400*%
%ADD11R,0.06890X0.02756*%
%ADD12R,0.05118X0.04331*%
%ADD13R,0.04331X0.05118*%
%ADD14R,0.09449X0.07480*%
%ADD15R,0.04331X0.02362*%
%ADD16R,0.05906X0.07874*%
%ADD17R,0.14961X0.07874*%
%ADD18R,0.03543X0.02362*%
%ADD19R,0.03543X0.01575*%
%ADD20R,0.09843X0.15748*%
%ADD21R,0.02362X0.04331*%
%ADD22R,0.04331X0.04331*%
%ADD23R,0.05906X0.01969*%
%ADD24R,0.01969X0.05906*%
%ADD25R,0.08858X0.02756*%
%ADD26R,0.03937X0.03150*%
%ADD27R,0.03150X0.03937*%
D10*
X0032280Y0087909D02*
X0370863Y0087909D01*
X0371053Y0087911D01*
X0371243Y0087918D01*
X0371433Y0087930D01*
X0371623Y0087946D01*
X0371812Y0087966D01*
X0372001Y0087992D01*
X0372189Y0088021D01*
X0372376Y0088056D01*
X0372562Y0088095D01*
X0372747Y0088138D01*
X0372932Y0088186D01*
X0373115Y0088238D01*
X0373296Y0088294D01*
X0373476Y0088355D01*
X0373655Y0088421D01*
X0373832Y0088490D01*
X0374008Y0088564D01*
X0374181Y0088642D01*
X0374353Y0088725D01*
X0374522Y0088811D01*
X0374690Y0088901D01*
X0374855Y0088996D01*
X0375018Y0089094D01*
X0375178Y0089197D01*
X0375336Y0089303D01*
X0375491Y0089413D01*
X0375644Y0089526D01*
X0375794Y0089644D01*
X0375940Y0089765D01*
X0376084Y0089889D01*
X0376225Y0090017D01*
X0376363Y0090148D01*
X0376498Y0090283D01*
X0376629Y0090421D01*
X0376757Y0090562D01*
X0376881Y0090706D01*
X0377002Y0090852D01*
X0377120Y0091002D01*
X0377233Y0091155D01*
X0377343Y0091310D01*
X0377449Y0091468D01*
X0377552Y0091628D01*
X0377650Y0091791D01*
X0377745Y0091956D01*
X0377835Y0092124D01*
X0377921Y0092293D01*
X0378004Y0092465D01*
X0378082Y0092638D01*
X0378156Y0092814D01*
X0378225Y0092991D01*
X0378291Y0093170D01*
X0378352Y0093350D01*
X0378408Y0093531D01*
X0378460Y0093714D01*
X0378508Y0093899D01*
X0378551Y0094084D01*
X0378590Y0094270D01*
X0378625Y0094457D01*
X0378654Y0094645D01*
X0378680Y0094834D01*
X0378700Y0095023D01*
X0378716Y0095213D01*
X0378728Y0095403D01*
X0378735Y0095593D01*
X0378737Y0095783D01*
X0378737Y0355626D01*
X0378735Y0355816D01*
X0378728Y0356006D01*
X0378716Y0356196D01*
X0378700Y0356386D01*
X0378680Y0356575D01*
X0378654Y0356764D01*
X0378625Y0356952D01*
X0378590Y0357139D01*
X0378551Y0357325D01*
X0378508Y0357510D01*
X0378460Y0357695D01*
X0378408Y0357878D01*
X0378352Y0358059D01*
X0378291Y0358239D01*
X0378225Y0358418D01*
X0378156Y0358595D01*
X0378082Y0358771D01*
X0378004Y0358944D01*
X0377921Y0359116D01*
X0377835Y0359285D01*
X0377745Y0359453D01*
X0377650Y0359618D01*
X0377552Y0359781D01*
X0377449Y0359941D01*
X0377343Y0360099D01*
X0377233Y0360254D01*
X0377120Y0360407D01*
X0377002Y0360557D01*
X0376881Y0360703D01*
X0376757Y0360847D01*
X0376629Y0360988D01*
X0376498Y0361126D01*
X0376363Y0361261D01*
X0376225Y0361392D01*
X0376084Y0361520D01*
X0375940Y0361644D01*
X0375794Y0361765D01*
X0375644Y0361883D01*
X0375491Y0361996D01*
X0375336Y0362106D01*
X0375178Y0362212D01*
X0375018Y0362315D01*
X0374855Y0362413D01*
X0374690Y0362508D01*
X0374522Y0362598D01*
X0374353Y0362684D01*
X0374181Y0362767D01*
X0374008Y0362845D01*
X0373832Y0362919D01*
X0373655Y0362988D01*
X0373476Y0363054D01*
X0373296Y0363115D01*
X0373115Y0363171D01*
X0372932Y0363223D01*
X0372747Y0363271D01*
X0372562Y0363314D01*
X0372376Y0363353D01*
X0372189Y0363388D01*
X0372001Y0363417D01*
X0371812Y0363443D01*
X0371623Y0363463D01*
X0371433Y0363479D01*
X0371243Y0363491D01*
X0371053Y0363498D01*
X0370863Y0363500D01*
X0032280Y0363500D01*
X0032090Y0363498D01*
X0031900Y0363491D01*
X0031710Y0363479D01*
X0031520Y0363463D01*
X0031331Y0363443D01*
X0031142Y0363417D01*
X0030954Y0363388D01*
X0030767Y0363353D01*
X0030581Y0363314D01*
X0030396Y0363271D01*
X0030211Y0363223D01*
X0030028Y0363171D01*
X0029847Y0363115D01*
X0029667Y0363054D01*
X0029488Y0362988D01*
X0029311Y0362919D01*
X0029135Y0362845D01*
X0028962Y0362767D01*
X0028790Y0362684D01*
X0028621Y0362598D01*
X0028453Y0362508D01*
X0028288Y0362413D01*
X0028125Y0362315D01*
X0027965Y0362212D01*
X0027807Y0362106D01*
X0027652Y0361996D01*
X0027499Y0361883D01*
X0027349Y0361765D01*
X0027203Y0361644D01*
X0027059Y0361520D01*
X0026918Y0361392D01*
X0026780Y0361261D01*
X0026645Y0361126D01*
X0026514Y0360988D01*
X0026386Y0360847D01*
X0026262Y0360703D01*
X0026141Y0360557D01*
X0026023Y0360407D01*
X0025910Y0360254D01*
X0025800Y0360099D01*
X0025694Y0359941D01*
X0025591Y0359781D01*
X0025493Y0359618D01*
X0025398Y0359453D01*
X0025308Y0359285D01*
X0025222Y0359116D01*
X0025139Y0358944D01*
X0025061Y0358771D01*
X0024987Y0358595D01*
X0024918Y0358418D01*
X0024852Y0358239D01*
X0024791Y0358059D01*
X0024735Y0357878D01*
X0024683Y0357695D01*
X0024635Y0357510D01*
X0024592Y0357325D01*
X0024553Y0357139D01*
X0024518Y0356952D01*
X0024489Y0356764D01*
X0024463Y0356575D01*
X0024443Y0356386D01*
X0024427Y0356196D01*
X0024415Y0356006D01*
X0024408Y0355816D01*
X0024406Y0355626D01*
X0024406Y0095783D01*
X0024408Y0095593D01*
X0024415Y0095403D01*
X0024427Y0095213D01*
X0024443Y0095023D01*
X0024463Y0094834D01*
X0024489Y0094645D01*
X0024518Y0094457D01*
X0024553Y0094270D01*
X0024592Y0094084D01*
X0024635Y0093899D01*
X0024683Y0093714D01*
X0024735Y0093531D01*
X0024791Y0093350D01*
X0024852Y0093170D01*
X0024918Y0092991D01*
X0024987Y0092814D01*
X0025061Y0092638D01*
X0025139Y0092465D01*
X0025222Y0092293D01*
X0025308Y0092124D01*
X0025398Y0091956D01*
X0025493Y0091791D01*
X0025591Y0091628D01*
X0025694Y0091468D01*
X0025800Y0091310D01*
X0025910Y0091155D01*
X0026023Y0091002D01*
X0026141Y0090852D01*
X0026262Y0090706D01*
X0026386Y0090562D01*
X0026514Y0090421D01*
X0026645Y0090283D01*
X0026780Y0090148D01*
X0026918Y0090017D01*
X0027059Y0089889D01*
X0027203Y0089765D01*
X0027349Y0089644D01*
X0027499Y0089526D01*
X0027652Y0089413D01*
X0027807Y0089303D01*
X0027965Y0089197D01*
X0028125Y0089094D01*
X0028288Y0088996D01*
X0028453Y0088901D01*
X0028621Y0088811D01*
X0028790Y0088725D01*
X0028962Y0088642D01*
X0029135Y0088564D01*
X0029311Y0088490D01*
X0029488Y0088421D01*
X0029667Y0088355D01*
X0029847Y0088294D01*
X0030028Y0088238D01*
X0030211Y0088186D01*
X0030396Y0088138D01*
X0030581Y0088095D01*
X0030767Y0088056D01*
X0030954Y0088021D01*
X0031142Y0087992D01*
X0031331Y0087966D01*
X0031520Y0087946D01*
X0031710Y0087930D01*
X0031900Y0087918D01*
X0032090Y0087911D01*
X0032280Y0087909D01*
D11*
X0177034Y0136659D03*
X0177034Y0141659D03*
X0177034Y0146659D03*
X0177034Y0151659D03*
X0177034Y0156659D03*
X0177034Y0161659D03*
X0177034Y0166659D03*
X0199278Y0166659D03*
X0199278Y0161659D03*
X0199278Y0156659D03*
X0199278Y0151659D03*
X0199278Y0146659D03*
X0199278Y0141659D03*
X0199278Y0136659D03*
X0303284Y0262909D03*
X0303284Y0267909D03*
X0303284Y0272909D03*
X0303284Y0277909D03*
X0303284Y0282909D03*
X0303284Y0287909D03*
X0303284Y0292909D03*
X0325528Y0292909D03*
X0325528Y0287909D03*
X0325528Y0282909D03*
X0325528Y0277909D03*
X0325528Y0272909D03*
X0325528Y0267909D03*
X0325528Y0262909D03*
D12*
X0334406Y0262260D03*
X0334406Y0268559D03*
X0334406Y0277260D03*
X0334406Y0283559D03*
X0334406Y0253559D03*
X0334406Y0247260D03*
X0325656Y0247260D03*
X0325656Y0253559D03*
X0291906Y0244809D03*
X0291906Y0238510D03*
X0308156Y0214809D03*
X0308156Y0208510D03*
X0281906Y0273510D03*
X0281906Y0279809D03*
X0295656Y0288510D03*
X0295656Y0294809D03*
X0211906Y0279809D03*
X0211906Y0273510D03*
X0189406Y0272260D03*
X0189406Y0278559D03*
X0189406Y0263559D03*
X0189406Y0257260D03*
X0169406Y0264760D03*
X0169406Y0271059D03*
X0134406Y0279760D03*
X0134406Y0286059D03*
X0085656Y0259809D03*
X0085656Y0253510D03*
X0078156Y0253510D03*
X0078156Y0259809D03*
X0076906Y0276010D03*
X0076906Y0282309D03*
X0069406Y0282309D03*
X0069406Y0276010D03*
X0124406Y0191059D03*
X0124406Y0184760D03*
X0181906Y0194760D03*
X0181906Y0201059D03*
X0186906Y0209760D03*
X0186906Y0216059D03*
X0196906Y0216059D03*
X0196906Y0209760D03*
X0206906Y0209760D03*
X0206906Y0216059D03*
X0201906Y0201059D03*
X0201906Y0194760D03*
X0191906Y0194760D03*
X0191906Y0201059D03*
X0211906Y0201059D03*
X0211906Y0194760D03*
X0213156Y0136059D03*
X0213156Y0129760D03*
X0213156Y0118559D03*
X0213156Y0112260D03*
X0205656Y0112260D03*
X0205656Y0118559D03*
X0198156Y0118559D03*
X0198156Y0112260D03*
X0198156Y0101059D03*
X0198156Y0094760D03*
X0205656Y0094760D03*
X0205656Y0101059D03*
X0213156Y0101059D03*
X0213156Y0094760D03*
X0224406Y0104760D03*
X0224406Y0111059D03*
X0178156Y0112260D03*
X0178156Y0118559D03*
X0170656Y0118559D03*
X0170656Y0112260D03*
X0163156Y0112260D03*
X0163156Y0118559D03*
X0163156Y0129760D03*
X0163156Y0136059D03*
X0151906Y0111059D03*
X0151906Y0104760D03*
X0163156Y0101059D03*
X0163156Y0094760D03*
X0170656Y0094760D03*
X0170656Y0101059D03*
X0178156Y0101059D03*
X0178156Y0094760D03*
D13*
X0177556Y0130409D03*
X0171257Y0130409D03*
X0162556Y0144159D03*
X0156257Y0144159D03*
X0156257Y0151659D03*
X0162556Y0151659D03*
X0162556Y0159159D03*
X0156257Y0159159D03*
X0142556Y0177909D03*
X0136257Y0177909D03*
X0136257Y0197909D03*
X0142556Y0197909D03*
X0122556Y0254159D03*
X0116257Y0254159D03*
X0116257Y0261659D03*
X0122556Y0261659D03*
X0122556Y0290409D03*
X0116257Y0290409D03*
X0100056Y0290409D03*
X0093757Y0290409D03*
X0082556Y0290409D03*
X0076257Y0290409D03*
X0078806Y0267909D03*
X0072507Y0267909D03*
X0040056Y0242909D03*
X0033757Y0242909D03*
X0210007Y0294159D03*
X0216306Y0294159D03*
X0272507Y0329159D03*
X0278806Y0329159D03*
X0318757Y0317909D03*
X0325056Y0317909D03*
X0310056Y0256659D03*
X0303757Y0256659D03*
X0247556Y0241659D03*
X0241257Y0241659D03*
X0220056Y0159159D03*
X0213757Y0159159D03*
X0213757Y0151659D03*
X0220056Y0151659D03*
X0220056Y0144159D03*
X0213757Y0144159D03*
D14*
X0200656Y0259839D03*
X0200656Y0275980D03*
D15*
X0142418Y0191650D03*
X0142418Y0187909D03*
X0142418Y0184169D03*
X0131394Y0184169D03*
X0131394Y0191650D03*
D16*
X0142851Y0289061D03*
X0151906Y0289061D03*
X0160961Y0289061D03*
D17*
X0151906Y0264258D03*
D18*
X0316719Y0306404D03*
X0316719Y0311915D03*
X0324593Y0311915D03*
X0324593Y0306404D03*
D19*
X0316719Y0309159D03*
D20*
X0119318Y0276659D03*
X0101995Y0276659D03*
D21*
X0091896Y0271148D03*
X0088156Y0271148D03*
X0084416Y0271148D03*
X0084416Y0282171D03*
X0088156Y0282171D03*
X0091896Y0282171D03*
D22*
X0093698Y0261659D03*
X0105115Y0261659D03*
X0102615Y0312909D03*
X0091198Y0312909D03*
X0162448Y0312909D03*
X0173865Y0312909D03*
X0202448Y0312909D03*
X0213865Y0312909D03*
X0096906Y0173618D03*
X0096906Y0162201D03*
D23*
X0224072Y0259661D03*
X0224072Y0262811D03*
X0224072Y0265961D03*
X0224072Y0269110D03*
X0224072Y0272260D03*
X0224072Y0275409D03*
X0224072Y0278559D03*
X0224072Y0281709D03*
X0224072Y0284858D03*
X0224072Y0288008D03*
X0224072Y0291157D03*
X0269741Y0291157D03*
X0269741Y0288008D03*
X0269741Y0284858D03*
X0269741Y0281709D03*
X0269741Y0278559D03*
X0269741Y0275409D03*
X0269741Y0272260D03*
X0269741Y0269110D03*
X0269741Y0265961D03*
X0269741Y0262811D03*
X0269741Y0259661D03*
D24*
X0262654Y0252575D03*
X0259505Y0252575D03*
X0256355Y0252575D03*
X0253205Y0252575D03*
X0250056Y0252575D03*
X0246906Y0252575D03*
X0243757Y0252575D03*
X0240607Y0252575D03*
X0237457Y0252575D03*
X0234308Y0252575D03*
X0231158Y0252575D03*
X0231158Y0298244D03*
X0234308Y0298244D03*
X0237457Y0298244D03*
X0240607Y0298244D03*
X0243757Y0298244D03*
X0246906Y0298244D03*
X0250056Y0298244D03*
X0253205Y0298244D03*
X0256355Y0298244D03*
X0259505Y0298244D03*
X0262654Y0298244D03*
D25*
X0273845Y0219159D03*
X0273845Y0214159D03*
X0273845Y0209159D03*
X0273845Y0204159D03*
X0297467Y0204159D03*
X0297467Y0209159D03*
X0297467Y0214159D03*
X0297467Y0219159D03*
D26*
X0224593Y0301669D03*
X0224593Y0309150D03*
X0216719Y0305409D03*
X0184593Y0301669D03*
X0184593Y0309150D03*
X0176719Y0305409D03*
X0054593Y0286650D03*
X0054593Y0279169D03*
X0046719Y0282909D03*
D27*
X0100666Y0184346D03*
X0108146Y0184346D03*
X0104406Y0176472D03*
M02*
