G75*
%MOIN*%
%OFA0B0*%
%FSLAX25Y25*%
%IPPOS*%
%LPD*%
%AMOC8*
5,1,8,0,0,1.08239X$1,22.5*
%
%ADD10C,0.01000*%
%ADD11C,0.00591*%
%ADD12C,0.00600*%
D10*
X0121084Y0158359D02*
X0121084Y0161662D01*
X0122185Y0162763D01*
X0123286Y0161662D01*
X0123286Y0158359D01*
X0125488Y0158359D02*
X0125488Y0162763D01*
X0124387Y0162763D01*
X0123286Y0161662D01*
X0128082Y0161662D02*
X0128082Y0159460D01*
X0129183Y0158359D01*
X0131385Y0158359D01*
X0132486Y0159460D01*
X0132486Y0161662D01*
X0131385Y0162763D01*
X0129183Y0162763D01*
X0128082Y0161662D01*
X0135080Y0162763D02*
X0138383Y0162763D01*
X0139484Y0161662D01*
X0139484Y0159460D01*
X0138383Y0158359D01*
X0135080Y0158359D01*
X0141882Y0158359D02*
X0142983Y0158359D01*
X0142983Y0159460D01*
X0141882Y0159460D01*
X0141882Y0158359D01*
X0145577Y0158359D02*
X0148880Y0158359D01*
X0149981Y0159460D01*
X0149981Y0161662D01*
X0148880Y0162763D01*
X0145577Y0162763D01*
X0145577Y0164965D02*
X0145577Y0158359D01*
X0152510Y0162763D02*
X0153611Y0162763D01*
X0155813Y0160561D01*
X0155813Y0158359D02*
X0155813Y0162763D01*
X0158407Y0161662D02*
X0158407Y0160561D01*
X0162811Y0160561D01*
X0162811Y0159460D02*
X0162811Y0161662D01*
X0161710Y0162763D01*
X0159508Y0162763D01*
X0158407Y0161662D01*
X0159508Y0158359D02*
X0161710Y0158359D01*
X0162811Y0159460D01*
X0165405Y0158359D02*
X0165405Y0161662D01*
X0166506Y0162763D01*
X0169809Y0162763D01*
X0169809Y0158359D01*
X0172337Y0162763D02*
X0173438Y0162763D01*
X0175640Y0160561D01*
X0175640Y0158359D02*
X0175640Y0162763D01*
X0178234Y0161662D02*
X0178234Y0160561D01*
X0182638Y0160561D01*
X0182638Y0159460D02*
X0182638Y0161662D01*
X0181537Y0162763D01*
X0179335Y0162763D01*
X0178234Y0161662D01*
X0179335Y0158359D02*
X0181537Y0158359D01*
X0182638Y0159460D01*
X0185232Y0158359D02*
X0188535Y0158359D01*
X0189636Y0159460D01*
X0189636Y0161662D01*
X0188535Y0162763D01*
X0185232Y0162763D01*
X0185232Y0164965D02*
X0185232Y0158359D01*
X0192100Y0158359D02*
X0194301Y0158359D01*
X0193201Y0158359D02*
X0193201Y0164965D01*
X0194301Y0164965D01*
X0196896Y0161662D02*
X0197997Y0162763D01*
X0200198Y0162763D01*
X0201299Y0161662D01*
X0201299Y0159460D01*
X0200198Y0158359D01*
X0197997Y0158359D01*
X0196896Y0159460D01*
X0196896Y0161662D01*
X0203894Y0162763D02*
X0207196Y0162763D01*
X0208297Y0161662D01*
X0207196Y0160561D01*
X0204995Y0160561D01*
X0203894Y0159460D01*
X0204995Y0158359D01*
X0208297Y0158359D01*
X0213546Y0168658D02*
X0213546Y0175263D01*
X0210243Y0175263D01*
X0209142Y0174162D01*
X0209142Y0171960D01*
X0210243Y0170859D01*
X0213546Y0170859D01*
X0216140Y0171960D02*
X0217241Y0170859D01*
X0220544Y0170859D01*
X0220544Y0168658D02*
X0220544Y0175263D01*
X0217241Y0175263D01*
X0216140Y0174162D01*
X0216140Y0171960D01*
X0223138Y0173061D02*
X0227542Y0173061D01*
X0227542Y0171960D02*
X0227542Y0174162D01*
X0226441Y0175263D01*
X0224239Y0175263D01*
X0223138Y0174162D01*
X0223138Y0173061D01*
X0224239Y0170859D02*
X0226441Y0170859D01*
X0227542Y0171960D01*
X0230005Y0170859D02*
X0231106Y0171960D01*
X0231106Y0176364D01*
X0232207Y0175263D02*
X0230005Y0175263D01*
X0234801Y0176364D02*
X0235902Y0177465D01*
X0238104Y0177465D01*
X0239205Y0176364D01*
X0239205Y0175263D01*
X0238104Y0174162D01*
X0235902Y0174162D01*
X0234801Y0173061D01*
X0234801Y0171960D01*
X0235902Y0170859D01*
X0238104Y0170859D01*
X0239205Y0171960D01*
X0206548Y0171960D02*
X0206548Y0174162D01*
X0205447Y0175263D01*
X0203245Y0175263D01*
X0202144Y0174162D01*
X0202144Y0173061D01*
X0206548Y0173061D01*
X0206548Y0171960D02*
X0205447Y0170859D01*
X0203245Y0170859D01*
X0199550Y0170859D02*
X0199550Y0175263D01*
X0199550Y0173061D02*
X0197348Y0175263D01*
X0196247Y0175263D01*
X0186720Y0177465D02*
X0186720Y0170859D01*
X0182317Y0170859D02*
X0182317Y0177465D01*
X0184519Y0175263D01*
X0186720Y0177465D01*
X0179722Y0174162D02*
X0179722Y0171960D01*
X0178621Y0170859D01*
X0176420Y0170859D01*
X0175319Y0171960D01*
X0175319Y0174162D01*
X0176420Y0175263D01*
X0178621Y0175263D01*
X0179722Y0174162D01*
X0172724Y0175263D02*
X0170523Y0175263D01*
X0171624Y0176364D02*
X0171624Y0171960D01*
X0170523Y0170859D01*
X0168059Y0171960D02*
X0166958Y0170859D01*
X0164756Y0170859D01*
X0163655Y0171960D01*
X0163655Y0174162D01*
X0164756Y0175263D01*
X0166958Y0175263D01*
X0168059Y0174162D01*
X0168059Y0171960D01*
X0161061Y0170859D02*
X0161061Y0175263D01*
X0161061Y0173061D02*
X0158859Y0175263D01*
X0157758Y0175263D01*
X0148232Y0176364D02*
X0148232Y0171960D01*
X0147131Y0170859D01*
X0144929Y0170859D01*
X0143828Y0171960D01*
X0141234Y0171960D02*
X0140133Y0170859D01*
X0137931Y0170859D01*
X0136830Y0171960D01*
X0136830Y0174162D01*
X0137931Y0175263D01*
X0140133Y0175263D01*
X0141234Y0174162D01*
X0141234Y0171960D01*
X0143828Y0176364D02*
X0144929Y0177465D01*
X0147131Y0177465D01*
X0148232Y0176364D01*
X0134236Y0175263D02*
X0134236Y0170859D01*
X0129832Y0170859D02*
X0129832Y0174162D01*
X0130933Y0175263D01*
X0134236Y0175263D01*
X0127238Y0175263D02*
X0125036Y0175263D01*
X0126137Y0176364D02*
X0126137Y0171960D01*
X0125036Y0170859D01*
X0122572Y0170859D02*
X0122572Y0175263D01*
X0120370Y0175263D02*
X0119270Y0175263D01*
X0120370Y0175263D02*
X0122572Y0173061D01*
X0116741Y0171960D02*
X0115640Y0170859D01*
X0113438Y0170859D01*
X0112337Y0171960D01*
X0112337Y0174162D01*
X0113438Y0175263D01*
X0115640Y0175263D01*
X0116741Y0174162D01*
X0116741Y0171960D01*
X0109743Y0170859D02*
X0107541Y0170859D01*
X0108642Y0170859D02*
X0108642Y0177465D01*
X0109743Y0177465D01*
X0105077Y0177465D02*
X0103976Y0177465D01*
X0103976Y0170859D01*
X0102876Y0170859D02*
X0105077Y0170859D01*
X0100412Y0171960D02*
X0100412Y0174162D01*
X0099311Y0175263D01*
X0097109Y0175263D01*
X0096008Y0174162D01*
X0096008Y0173061D01*
X0100412Y0173061D01*
X0100412Y0171960D02*
X0099311Y0170859D01*
X0097109Y0170859D01*
X0093414Y0170859D02*
X0093414Y0175263D01*
X0093414Y0173061D02*
X0091212Y0175263D01*
X0090111Y0175263D01*
D11*
X0071276Y0155626D02*
X0071276Y0102870D01*
X0120488Y0102870D01*
X0120488Y0155626D01*
X0071276Y0155626D01*
X0006709Y0181659D02*
X0299228Y0181659D01*
X0299228Y0324967D01*
X0006709Y0324967D01*
X0006709Y0181659D01*
X0045685Y0222447D02*
X0283874Y0222447D01*
X0283874Y0309770D01*
X0045685Y0309770D01*
X0045685Y0222447D01*
X0209071Y0155626D02*
X0209071Y0102870D01*
X0258283Y0102870D01*
X0258283Y0155626D01*
X0209071Y0155626D01*
D12*
X0228139Y0148434D02*
X0228139Y0147700D01*
X0231075Y0144765D01*
X0228139Y0144765D01*
X0228139Y0148434D02*
X0228873Y0149168D01*
X0230341Y0149168D01*
X0231075Y0148434D01*
X0232743Y0149168D02*
X0232743Y0144765D01*
X0234211Y0146232D01*
X0235679Y0144765D01*
X0235679Y0149168D01*
X0237347Y0148434D02*
X0238081Y0149168D01*
X0239549Y0149168D01*
X0240283Y0148434D01*
X0240283Y0147700D01*
X0239549Y0146966D01*
X0238081Y0146966D01*
X0237347Y0146232D01*
X0237347Y0145499D01*
X0238081Y0144765D01*
X0239549Y0144765D01*
X0240283Y0145499D01*
X0240383Y0115704D02*
X0239649Y0114970D01*
X0239649Y0112034D01*
X0240383Y0111300D01*
X0241851Y0111300D01*
X0242585Y0112034D01*
X0242585Y0114970D01*
X0241851Y0115704D01*
X0240383Y0115704D01*
X0237981Y0115704D02*
X0237981Y0112034D01*
X0237247Y0111300D01*
X0235779Y0111300D01*
X0235045Y0112034D01*
X0235045Y0115704D01*
X0233377Y0115704D02*
X0233377Y0111300D01*
X0233377Y0112768D02*
X0231175Y0112768D01*
X0230441Y0113502D01*
X0230441Y0114970D01*
X0231175Y0115704D01*
X0233377Y0115704D01*
X0231909Y0112768D02*
X0230441Y0111300D01*
X0228773Y0111300D02*
X0228773Y0115704D01*
X0225837Y0111300D01*
X0225837Y0115704D01*
X0224169Y0114970D02*
X0224169Y0114236D01*
X0223435Y0113502D01*
X0221967Y0113502D01*
X0221234Y0112768D01*
X0221234Y0112034D01*
X0221967Y0111300D01*
X0223435Y0111300D01*
X0224169Y0112034D01*
X0224169Y0109798D02*
X0221967Y0109798D01*
X0221234Y0109064D01*
X0221234Y0107596D01*
X0221967Y0106862D01*
X0224169Y0106862D01*
X0224169Y0105394D02*
X0224169Y0109798D01*
X0227305Y0109798D02*
X0227305Y0105394D01*
X0228773Y0105394D02*
X0225837Y0105394D01*
X0222701Y0106862D02*
X0221234Y0105394D01*
X0227305Y0109798D02*
X0228773Y0108330D01*
X0230441Y0105394D02*
X0233377Y0105394D01*
X0231909Y0105394D02*
X0231909Y0109798D01*
X0233377Y0108330D01*
X0235045Y0109064D02*
X0235779Y0109798D01*
X0237247Y0109798D01*
X0237981Y0109064D01*
X0237981Y0106128D01*
X0237247Y0105394D01*
X0235779Y0105394D01*
X0235045Y0106128D01*
X0239649Y0105394D02*
X0242585Y0105394D01*
X0242585Y0109798D01*
X0239649Y0109798D01*
X0241117Y0107596D02*
X0242585Y0107596D01*
X0244253Y0107596D02*
X0244987Y0106862D01*
X0247189Y0106862D01*
X0247189Y0105394D02*
X0247189Y0109798D01*
X0244987Y0109798D01*
X0244253Y0109064D01*
X0244253Y0107596D01*
X0244987Y0111300D02*
X0247189Y0111300D01*
X0247189Y0115704D01*
X0244987Y0115704D01*
X0244253Y0114970D01*
X0244253Y0114236D01*
X0244987Y0113502D01*
X0247189Y0113502D01*
X0244987Y0113502D02*
X0244253Y0112768D01*
X0244253Y0112034D01*
X0244987Y0111300D01*
X0224169Y0114970D02*
X0223435Y0115704D01*
X0221967Y0115704D01*
X0221234Y0114970D01*
X0109394Y0115704D02*
X0109394Y0111300D01*
X0107192Y0111300D01*
X0106458Y0112034D01*
X0106458Y0112768D01*
X0107192Y0113502D01*
X0109394Y0113502D01*
X0109394Y0115704D02*
X0107192Y0115704D01*
X0106458Y0114970D01*
X0106458Y0114236D01*
X0107192Y0113502D01*
X0104790Y0114970D02*
X0104790Y0112034D01*
X0104056Y0111300D01*
X0102588Y0111300D01*
X0101854Y0112034D01*
X0101854Y0114970D01*
X0102588Y0115704D01*
X0104056Y0115704D01*
X0104790Y0114970D01*
X0100186Y0115704D02*
X0100186Y0112034D01*
X0099452Y0111300D01*
X0097984Y0111300D01*
X0097250Y0112034D01*
X0097250Y0115704D01*
X0095582Y0115704D02*
X0093380Y0115704D01*
X0092646Y0114970D01*
X0092646Y0113502D01*
X0093380Y0112768D01*
X0095582Y0112768D01*
X0095582Y0111300D02*
X0095582Y0115704D01*
X0094114Y0112768D02*
X0092646Y0111300D01*
X0090978Y0111300D02*
X0090978Y0115704D01*
X0088042Y0111300D01*
X0088042Y0115704D01*
X0086374Y0114970D02*
X0086374Y0114236D01*
X0085640Y0113502D01*
X0084172Y0113502D01*
X0083438Y0112768D01*
X0083438Y0112034D01*
X0084172Y0111300D01*
X0085640Y0111300D01*
X0086374Y0112034D01*
X0086374Y0109798D02*
X0084172Y0109798D01*
X0083438Y0109064D01*
X0083438Y0107596D01*
X0084172Y0106862D01*
X0086374Y0106862D01*
X0086374Y0105394D02*
X0086374Y0109798D01*
X0089510Y0109798D02*
X0089510Y0105394D01*
X0090978Y0105394D02*
X0088042Y0105394D01*
X0084906Y0106862D02*
X0083438Y0105394D01*
X0089510Y0109798D02*
X0090978Y0108330D01*
X0092646Y0105394D02*
X0095582Y0105394D01*
X0094114Y0105394D02*
X0094114Y0109798D01*
X0095582Y0108330D01*
X0097250Y0109064D02*
X0097984Y0109798D01*
X0099452Y0109798D01*
X0100186Y0109064D01*
X0100186Y0106128D01*
X0099452Y0105394D01*
X0097984Y0105394D01*
X0097250Y0106128D01*
X0101854Y0105394D02*
X0104790Y0105394D01*
X0104790Y0109798D01*
X0101854Y0109798D01*
X0103322Y0107596D02*
X0104790Y0107596D01*
X0106458Y0107596D02*
X0107192Y0106862D01*
X0109394Y0106862D01*
X0109394Y0105394D02*
X0109394Y0109798D01*
X0107192Y0109798D01*
X0106458Y0109064D01*
X0106458Y0107596D01*
X0086374Y0114970D02*
X0085640Y0115704D01*
X0084172Y0115704D01*
X0083438Y0114970D01*
X0090344Y0144765D02*
X0093280Y0144765D01*
X0091812Y0144765D02*
X0091812Y0149168D01*
X0093280Y0147700D01*
X0094948Y0149168D02*
X0094948Y0144765D01*
X0096416Y0146232D01*
X0097884Y0144765D01*
X0097884Y0149168D01*
X0099552Y0148434D02*
X0100286Y0149168D01*
X0101754Y0149168D01*
X0102488Y0148434D01*
X0102488Y0147700D01*
X0101754Y0146966D01*
X0100286Y0146966D01*
X0099552Y0146232D01*
X0099552Y0145499D01*
X0100286Y0144765D01*
X0101754Y0144765D01*
X0102488Y0145499D01*
X0194657Y0229459D02*
X0194657Y0233863D01*
X0197592Y0233863D02*
X0197592Y0229459D01*
X0196124Y0230927D01*
X0194657Y0229459D01*
X0199260Y0230193D02*
X0199260Y0230927D01*
X0199994Y0231661D01*
X0202196Y0231661D01*
X0202196Y0230193D01*
X0201462Y0229459D01*
X0199994Y0229459D01*
X0199260Y0230193D01*
X0200728Y0233129D02*
X0202196Y0231661D01*
X0203864Y0231661D02*
X0206800Y0231661D01*
X0206800Y0232395D02*
X0205332Y0233863D01*
X0203864Y0232395D01*
X0203864Y0229459D01*
X0206800Y0229459D02*
X0206800Y0232395D01*
X0208468Y0231661D02*
X0208468Y0230193D01*
X0209202Y0229459D01*
X0210670Y0229459D01*
X0211404Y0230193D01*
X0211404Y0231661D02*
X0209936Y0232395D01*
X0209202Y0232395D01*
X0208468Y0231661D01*
X0208468Y0233863D02*
X0211404Y0233863D01*
X0211404Y0231661D01*
X0213072Y0233129D02*
X0213072Y0230193D01*
X0213806Y0229459D01*
X0215274Y0229459D01*
X0216008Y0230193D01*
X0213072Y0233129D01*
X0213806Y0233863D01*
X0215274Y0233863D01*
X0216008Y0233129D01*
X0216008Y0230193D01*
X0217676Y0230193D02*
X0218410Y0229459D01*
X0219878Y0229459D01*
X0220612Y0230193D01*
X0217676Y0233129D01*
X0217676Y0230193D01*
X0220612Y0230193D02*
X0220612Y0233129D01*
X0219878Y0233863D01*
X0218410Y0233863D01*
X0217676Y0233129D01*
X0222280Y0233129D02*
X0223014Y0233863D01*
X0224482Y0233863D01*
X0225216Y0233129D01*
X0226884Y0231661D02*
X0229820Y0231661D01*
X0227618Y0233863D01*
X0227618Y0229459D01*
X0225216Y0229459D02*
X0222280Y0232395D01*
X0222280Y0233129D01*
X0222280Y0229459D02*
X0225216Y0229459D01*
X0231488Y0230193D02*
X0231488Y0231661D01*
X0232956Y0231661D01*
X0234424Y0233129D02*
X0234424Y0230193D01*
X0233690Y0229459D01*
X0232222Y0229459D01*
X0231488Y0230193D01*
X0231488Y0233129D02*
X0232222Y0233863D01*
X0233690Y0233863D01*
X0234424Y0233129D01*
X0236092Y0233129D02*
X0236092Y0230193D01*
X0236826Y0229459D01*
X0238294Y0229459D01*
X0239028Y0230193D01*
X0239028Y0233129D01*
X0238294Y0233863D01*
X0236826Y0233863D01*
X0236092Y0233129D01*
X0240696Y0233129D02*
X0241430Y0233863D01*
X0242898Y0233863D01*
X0243632Y0233129D01*
X0243632Y0230193D01*
X0242898Y0229459D01*
X0241430Y0229459D01*
X0240696Y0230193D01*
X0245300Y0230193D02*
X0246034Y0229459D01*
X0247502Y0229459D01*
X0248236Y0230193D01*
X0248236Y0233129D01*
X0247502Y0233863D01*
X0246034Y0233863D01*
X0245300Y0233129D01*
X0249904Y0233863D02*
X0249904Y0229459D01*
X0252839Y0229459D02*
X0252839Y0233863D01*
X0251372Y0232395D01*
X0249904Y0233863D01*
X0251372Y0239459D02*
X0251372Y0241661D01*
X0249904Y0243129D01*
X0249904Y0243863D01*
X0251372Y0241661D02*
X0252839Y0243129D01*
X0252839Y0243863D01*
X0254508Y0242395D02*
X0254508Y0239459D01*
X0254508Y0241661D02*
X0257443Y0241661D01*
X0257443Y0242395D02*
X0257443Y0239459D01*
X0259111Y0239459D02*
X0262047Y0239459D01*
X0262047Y0243863D01*
X0263715Y0243129D02*
X0263715Y0241661D01*
X0264449Y0240927D01*
X0266651Y0240927D01*
X0266651Y0239459D02*
X0266651Y0243863D01*
X0264449Y0243863D01*
X0263715Y0243129D01*
X0268319Y0243129D02*
X0269053Y0243863D01*
X0270521Y0243863D01*
X0271255Y0243129D01*
X0271255Y0242395D01*
X0270521Y0241661D01*
X0269053Y0241661D01*
X0268319Y0240927D01*
X0268319Y0240193D01*
X0269053Y0239459D01*
X0270521Y0239459D01*
X0271255Y0240193D01*
X0272857Y0239459D02*
X0274324Y0239459D01*
X0273590Y0239459D02*
X0273590Y0243863D01*
X0272857Y0243863D02*
X0274324Y0243863D01*
X0275993Y0243129D02*
X0275993Y0240193D01*
X0276726Y0239459D01*
X0278928Y0239459D01*
X0278928Y0243863D01*
X0276726Y0243863D01*
X0275993Y0243129D01*
X0275993Y0233863D02*
X0275993Y0229459D01*
X0274324Y0229459D02*
X0272857Y0229459D01*
X0273590Y0229459D02*
X0273590Y0233863D01*
X0272857Y0233863D02*
X0274324Y0233863D01*
X0275993Y0233863D02*
X0277460Y0232395D01*
X0278928Y0233863D01*
X0278928Y0229459D01*
X0271255Y0229459D02*
X0269053Y0229459D01*
X0268319Y0230193D01*
X0268319Y0233129D01*
X0269053Y0233863D01*
X0271255Y0233863D01*
X0271255Y0229459D01*
X0266651Y0229459D02*
X0266651Y0232395D01*
X0265183Y0233863D01*
X0263715Y0232395D01*
X0263715Y0229459D01*
X0262047Y0230193D02*
X0261313Y0229459D01*
X0259845Y0229459D01*
X0259111Y0230193D01*
X0259111Y0230927D01*
X0259845Y0231661D01*
X0261313Y0231661D01*
X0262047Y0232395D01*
X0262047Y0233129D01*
X0261313Y0233863D01*
X0259845Y0233863D01*
X0259111Y0233129D01*
X0263715Y0231661D02*
X0266651Y0231661D01*
X0257443Y0242395D02*
X0255975Y0243863D01*
X0254508Y0242395D01*
X0200728Y0233129D02*
X0199260Y0233863D01*
M02*
