G75*
%MOIN*%
%OFA0B0*%
%FSLAX25Y25*%
%IPPOS*%
%LPD*%
%AMOC8*
5,1,8,0,0,1.08239X$1,22.5*
%
%ADD10C,0.00400*%
%ADD11R,0.06890X0.02756*%
%ADD12R,0.05118X0.04331*%
%ADD13R,0.04331X0.05118*%
%ADD14R,0.09449X0.07480*%
%ADD15R,0.04331X0.02362*%
%ADD16R,0.06693X0.02559*%
%ADD17R,0.05906X0.07874*%
%ADD18R,0.14961X0.07874*%
%ADD19R,0.02756X0.06890*%
%ADD20R,0.03543X0.02362*%
%ADD21R,0.03543X0.01575*%
%ADD22R,0.06496X0.01772*%
%ADD23R,0.06299X0.07087*%
%ADD24R,0.09843X0.15748*%
D10*
X0009268Y0087909D02*
X0347850Y0087909D01*
X0348040Y0087911D01*
X0348230Y0087918D01*
X0348420Y0087930D01*
X0348610Y0087946D01*
X0348799Y0087966D01*
X0348988Y0087992D01*
X0349176Y0088021D01*
X0349363Y0088056D01*
X0349549Y0088095D01*
X0349734Y0088138D01*
X0349919Y0088186D01*
X0350102Y0088238D01*
X0350283Y0088294D01*
X0350463Y0088355D01*
X0350642Y0088421D01*
X0350819Y0088490D01*
X0350995Y0088564D01*
X0351168Y0088642D01*
X0351340Y0088725D01*
X0351509Y0088811D01*
X0351677Y0088901D01*
X0351842Y0088996D01*
X0352005Y0089094D01*
X0352165Y0089197D01*
X0352323Y0089303D01*
X0352478Y0089413D01*
X0352631Y0089526D01*
X0352781Y0089644D01*
X0352927Y0089765D01*
X0353071Y0089889D01*
X0353212Y0090017D01*
X0353350Y0090148D01*
X0353485Y0090283D01*
X0353616Y0090421D01*
X0353744Y0090562D01*
X0353868Y0090706D01*
X0353989Y0090852D01*
X0354107Y0091002D01*
X0354220Y0091155D01*
X0354330Y0091310D01*
X0354436Y0091468D01*
X0354539Y0091628D01*
X0354637Y0091791D01*
X0354732Y0091956D01*
X0354822Y0092124D01*
X0354908Y0092293D01*
X0354991Y0092465D01*
X0355069Y0092638D01*
X0355143Y0092814D01*
X0355212Y0092991D01*
X0355278Y0093170D01*
X0355339Y0093350D01*
X0355395Y0093531D01*
X0355447Y0093714D01*
X0355495Y0093899D01*
X0355538Y0094084D01*
X0355577Y0094270D01*
X0355612Y0094457D01*
X0355641Y0094645D01*
X0355667Y0094834D01*
X0355687Y0095023D01*
X0355703Y0095213D01*
X0355715Y0095403D01*
X0355722Y0095593D01*
X0355724Y0095783D01*
X0355724Y0355626D01*
X0355722Y0355816D01*
X0355715Y0356006D01*
X0355703Y0356196D01*
X0355687Y0356386D01*
X0355667Y0356575D01*
X0355641Y0356764D01*
X0355612Y0356952D01*
X0355577Y0357139D01*
X0355538Y0357325D01*
X0355495Y0357510D01*
X0355447Y0357695D01*
X0355395Y0357878D01*
X0355339Y0358059D01*
X0355278Y0358239D01*
X0355212Y0358418D01*
X0355143Y0358595D01*
X0355069Y0358771D01*
X0354991Y0358944D01*
X0354908Y0359116D01*
X0354822Y0359285D01*
X0354732Y0359453D01*
X0354637Y0359618D01*
X0354539Y0359781D01*
X0354436Y0359941D01*
X0354330Y0360099D01*
X0354220Y0360254D01*
X0354107Y0360407D01*
X0353989Y0360557D01*
X0353868Y0360703D01*
X0353744Y0360847D01*
X0353616Y0360988D01*
X0353485Y0361126D01*
X0353350Y0361261D01*
X0353212Y0361392D01*
X0353071Y0361520D01*
X0352927Y0361644D01*
X0352781Y0361765D01*
X0352631Y0361883D01*
X0352478Y0361996D01*
X0352323Y0362106D01*
X0352165Y0362212D01*
X0352005Y0362315D01*
X0351842Y0362413D01*
X0351677Y0362508D01*
X0351509Y0362598D01*
X0351340Y0362684D01*
X0351168Y0362767D01*
X0350995Y0362845D01*
X0350819Y0362919D01*
X0350642Y0362988D01*
X0350463Y0363054D01*
X0350283Y0363115D01*
X0350102Y0363171D01*
X0349919Y0363223D01*
X0349734Y0363271D01*
X0349549Y0363314D01*
X0349363Y0363353D01*
X0349176Y0363388D01*
X0348988Y0363417D01*
X0348799Y0363443D01*
X0348610Y0363463D01*
X0348420Y0363479D01*
X0348230Y0363491D01*
X0348040Y0363498D01*
X0347850Y0363500D01*
X0009268Y0363500D01*
X0009078Y0363498D01*
X0008888Y0363491D01*
X0008698Y0363479D01*
X0008508Y0363463D01*
X0008319Y0363443D01*
X0008130Y0363417D01*
X0007942Y0363388D01*
X0007755Y0363353D01*
X0007569Y0363314D01*
X0007384Y0363271D01*
X0007199Y0363223D01*
X0007016Y0363171D01*
X0006835Y0363115D01*
X0006655Y0363054D01*
X0006476Y0362988D01*
X0006299Y0362919D01*
X0006123Y0362845D01*
X0005950Y0362767D01*
X0005778Y0362684D01*
X0005609Y0362598D01*
X0005441Y0362508D01*
X0005276Y0362413D01*
X0005113Y0362315D01*
X0004953Y0362212D01*
X0004795Y0362106D01*
X0004640Y0361996D01*
X0004487Y0361883D01*
X0004337Y0361765D01*
X0004191Y0361644D01*
X0004047Y0361520D01*
X0003906Y0361392D01*
X0003768Y0361261D01*
X0003633Y0361126D01*
X0003502Y0360988D01*
X0003374Y0360847D01*
X0003250Y0360703D01*
X0003129Y0360557D01*
X0003011Y0360407D01*
X0002898Y0360254D01*
X0002788Y0360099D01*
X0002682Y0359941D01*
X0002579Y0359781D01*
X0002481Y0359618D01*
X0002386Y0359453D01*
X0002296Y0359285D01*
X0002210Y0359116D01*
X0002127Y0358944D01*
X0002049Y0358771D01*
X0001975Y0358595D01*
X0001906Y0358418D01*
X0001840Y0358239D01*
X0001779Y0358059D01*
X0001723Y0357878D01*
X0001671Y0357695D01*
X0001623Y0357510D01*
X0001580Y0357325D01*
X0001541Y0357139D01*
X0001506Y0356952D01*
X0001477Y0356764D01*
X0001451Y0356575D01*
X0001431Y0356386D01*
X0001415Y0356196D01*
X0001403Y0356006D01*
X0001396Y0355816D01*
X0001394Y0355626D01*
X0001394Y0095783D01*
X0001396Y0095593D01*
X0001403Y0095403D01*
X0001415Y0095213D01*
X0001431Y0095023D01*
X0001451Y0094834D01*
X0001477Y0094645D01*
X0001506Y0094457D01*
X0001541Y0094270D01*
X0001580Y0094084D01*
X0001623Y0093899D01*
X0001671Y0093714D01*
X0001723Y0093531D01*
X0001779Y0093350D01*
X0001840Y0093170D01*
X0001906Y0092991D01*
X0001975Y0092814D01*
X0002049Y0092638D01*
X0002127Y0092465D01*
X0002210Y0092293D01*
X0002296Y0092124D01*
X0002386Y0091956D01*
X0002481Y0091791D01*
X0002579Y0091628D01*
X0002682Y0091468D01*
X0002788Y0091310D01*
X0002898Y0091155D01*
X0003011Y0091002D01*
X0003129Y0090852D01*
X0003250Y0090706D01*
X0003374Y0090562D01*
X0003502Y0090421D01*
X0003633Y0090283D01*
X0003768Y0090148D01*
X0003906Y0090017D01*
X0004047Y0089889D01*
X0004191Y0089765D01*
X0004337Y0089644D01*
X0004487Y0089526D01*
X0004640Y0089413D01*
X0004795Y0089303D01*
X0004953Y0089197D01*
X0005113Y0089094D01*
X0005276Y0088996D01*
X0005441Y0088901D01*
X0005609Y0088811D01*
X0005778Y0088725D01*
X0005950Y0088642D01*
X0006123Y0088564D01*
X0006299Y0088490D01*
X0006476Y0088421D01*
X0006655Y0088355D01*
X0006835Y0088294D01*
X0007016Y0088238D01*
X0007199Y0088186D01*
X0007384Y0088138D01*
X0007569Y0088095D01*
X0007755Y0088056D01*
X0007942Y0088021D01*
X0008130Y0087992D01*
X0008319Y0087966D01*
X0008508Y0087946D01*
X0008698Y0087930D01*
X0008888Y0087918D01*
X0009078Y0087911D01*
X0009268Y0087909D01*
D11*
X0154022Y0136659D03*
X0154022Y0141659D03*
X0154022Y0146659D03*
X0154022Y0151659D03*
X0154022Y0156659D03*
X0154022Y0161659D03*
X0154022Y0166659D03*
X0176266Y0166659D03*
X0176266Y0161659D03*
X0176266Y0156659D03*
X0176266Y0151659D03*
X0176266Y0146659D03*
X0176266Y0141659D03*
X0176266Y0136659D03*
X0280272Y0262909D03*
X0280272Y0267909D03*
X0280272Y0272909D03*
X0280272Y0277909D03*
X0280272Y0282909D03*
X0280272Y0287909D03*
X0280272Y0292909D03*
X0302516Y0292909D03*
X0302516Y0287909D03*
X0302516Y0282909D03*
X0302516Y0277909D03*
X0302516Y0272909D03*
X0302516Y0267909D03*
X0302516Y0262909D03*
D12*
X0311394Y0262260D03*
X0311394Y0268559D03*
X0311394Y0277260D03*
X0311394Y0283559D03*
X0311394Y0253559D03*
X0311394Y0247260D03*
X0302644Y0247260D03*
X0302644Y0253559D03*
X0265144Y0266010D03*
X0265144Y0272309D03*
X0257644Y0267309D03*
X0257644Y0261010D03*
X0271394Y0287260D03*
X0271394Y0293559D03*
X0203894Y0302260D03*
X0203894Y0308559D03*
X0196394Y0308559D03*
X0196394Y0302260D03*
X0186394Y0274809D03*
X0186394Y0268510D03*
X0186394Y0259809D03*
X0186394Y0253510D03*
X0162644Y0253559D03*
X0162644Y0247260D03*
X0163894Y0216059D03*
X0163894Y0209760D03*
X0168894Y0201059D03*
X0168894Y0194760D03*
X0178894Y0194760D03*
X0178894Y0201059D03*
X0188894Y0201059D03*
X0188894Y0194760D03*
X0183894Y0209760D03*
X0183894Y0216059D03*
X0173894Y0216059D03*
X0173894Y0209760D03*
X0158894Y0201059D03*
X0158894Y0194760D03*
X0101394Y0191059D03*
X0101394Y0184760D03*
X0140144Y0136059D03*
X0140144Y0129760D03*
X0140144Y0118559D03*
X0147644Y0118559D03*
X0147644Y0112260D03*
X0140144Y0112260D03*
X0140144Y0101059D03*
X0140144Y0094760D03*
X0147644Y0094760D03*
X0147644Y0101059D03*
X0155144Y0101059D03*
X0155144Y0094760D03*
X0155144Y0112260D03*
X0155144Y0118559D03*
X0175144Y0118559D03*
X0175144Y0112260D03*
X0182644Y0112260D03*
X0182644Y0118559D03*
X0190144Y0118559D03*
X0190144Y0112260D03*
X0201394Y0111059D03*
X0201394Y0104760D03*
X0190144Y0101059D03*
X0190144Y0094760D03*
X0182644Y0094760D03*
X0182644Y0101059D03*
X0175144Y0101059D03*
X0175144Y0094760D03*
X0190144Y0129760D03*
X0190144Y0136059D03*
X0128894Y0111059D03*
X0128894Y0104760D03*
X0070144Y0257260D03*
X0070144Y0263559D03*
X0127644Y0266010D03*
X0127644Y0272309D03*
X0120144Y0331010D03*
X0120144Y0337309D03*
D13*
X0058293Y0292909D03*
X0051994Y0292909D03*
X0049494Y0262909D03*
X0055793Y0262909D03*
X0055793Y0255409D03*
X0049494Y0255409D03*
X0039543Y0255409D03*
X0033244Y0255409D03*
X0074494Y0250409D03*
X0080793Y0250409D03*
X0089494Y0250409D03*
X0095793Y0250409D03*
X0104494Y0250409D03*
X0110793Y0250409D03*
X0110793Y0257909D03*
X0104494Y0257909D03*
X0104494Y0265409D03*
X0110793Y0265409D03*
X0113244Y0197909D03*
X0119543Y0197909D03*
X0119543Y0177909D03*
X0113244Y0177909D03*
X0133244Y0159159D03*
X0139543Y0159159D03*
X0139543Y0151659D03*
X0133244Y0151659D03*
X0133244Y0144159D03*
X0139543Y0144159D03*
X0148244Y0130409D03*
X0154543Y0130409D03*
X0190744Y0144159D03*
X0197043Y0144159D03*
X0197043Y0151659D03*
X0190744Y0151659D03*
X0190744Y0159159D03*
X0197043Y0159159D03*
X0211994Y0234159D03*
X0218293Y0234159D03*
X0204543Y0281659D03*
X0198244Y0281659D03*
X0218244Y0329159D03*
X0224543Y0329159D03*
X0241994Y0329159D03*
X0248293Y0329159D03*
X0280744Y0256659D03*
X0287043Y0256659D03*
D14*
X0197644Y0256089D03*
X0197644Y0272230D03*
D15*
X0119406Y0191650D03*
X0119406Y0187909D03*
X0119406Y0184169D03*
X0108382Y0184169D03*
X0108382Y0191650D03*
D16*
X0212575Y0241659D03*
X0212575Y0246659D03*
X0212575Y0251659D03*
X0212575Y0256659D03*
X0212575Y0261659D03*
X0212575Y0266659D03*
X0212575Y0271659D03*
X0212575Y0276659D03*
X0212575Y0281659D03*
X0212575Y0286659D03*
X0212575Y0291659D03*
X0212575Y0296659D03*
X0212575Y0301659D03*
X0212575Y0306659D03*
X0250213Y0306659D03*
X0250213Y0301659D03*
X0250213Y0296659D03*
X0250213Y0291659D03*
X0250213Y0286659D03*
X0250213Y0281659D03*
X0250213Y0276659D03*
X0250213Y0271659D03*
X0250213Y0266659D03*
X0250213Y0261659D03*
X0250213Y0256659D03*
X0250213Y0251659D03*
X0250213Y0246659D03*
X0250213Y0241659D03*
D17*
X0154199Y0271561D03*
X0145144Y0271561D03*
X0136089Y0271561D03*
D18*
X0145144Y0246758D03*
D19*
X0146394Y0289287D03*
X0151394Y0289287D03*
X0156394Y0289287D03*
X0141394Y0289287D03*
X0136394Y0289287D03*
X0131394Y0289287D03*
X0126394Y0289287D03*
X0121394Y0289287D03*
X0121394Y0311531D03*
X0126394Y0311531D03*
X0131394Y0311531D03*
X0136394Y0311531D03*
X0141394Y0311531D03*
X0146394Y0311531D03*
X0151394Y0311531D03*
X0156394Y0311531D03*
D20*
X0216207Y0317654D03*
X0216207Y0323165D03*
X0224081Y0323165D03*
X0224081Y0317654D03*
D21*
X0216207Y0320409D03*
D22*
X0096305Y0264159D03*
X0096305Y0261659D03*
X0096305Y0259159D03*
X0096305Y0256659D03*
X0078982Y0256659D03*
X0078982Y0259159D03*
X0078982Y0261659D03*
X0078982Y0264159D03*
D23*
X0084632Y0272909D03*
X0084632Y0282909D03*
X0095656Y0282909D03*
X0095656Y0272909D03*
D24*
X0068805Y0277909D03*
X0051482Y0277909D03*
M02*
