G75*
%MOIN*%
%OFA0B0*%
%FSLAX25Y25*%
%IPPOS*%
%LPD*%
%AMOC8*
5,1,8,0,0,1.08239X$1,22.5*
%
%ADD10C,0.00400*%
D10*
X0032280Y0087909D02*
X0370863Y0087909D01*
X0371053Y0087911D01*
X0371243Y0087918D01*
X0371433Y0087930D01*
X0371623Y0087946D01*
X0371812Y0087966D01*
X0372001Y0087992D01*
X0372189Y0088021D01*
X0372376Y0088056D01*
X0372562Y0088095D01*
X0372747Y0088138D01*
X0372932Y0088186D01*
X0373115Y0088238D01*
X0373296Y0088294D01*
X0373476Y0088355D01*
X0373655Y0088421D01*
X0373832Y0088490D01*
X0374008Y0088564D01*
X0374181Y0088642D01*
X0374353Y0088725D01*
X0374522Y0088811D01*
X0374690Y0088901D01*
X0374855Y0088996D01*
X0375018Y0089094D01*
X0375178Y0089197D01*
X0375336Y0089303D01*
X0375491Y0089413D01*
X0375644Y0089526D01*
X0375794Y0089644D01*
X0375940Y0089765D01*
X0376084Y0089889D01*
X0376225Y0090017D01*
X0376363Y0090148D01*
X0376498Y0090283D01*
X0376629Y0090421D01*
X0376757Y0090562D01*
X0376881Y0090706D01*
X0377002Y0090852D01*
X0377120Y0091002D01*
X0377233Y0091155D01*
X0377343Y0091310D01*
X0377449Y0091468D01*
X0377552Y0091628D01*
X0377650Y0091791D01*
X0377745Y0091956D01*
X0377835Y0092124D01*
X0377921Y0092293D01*
X0378004Y0092465D01*
X0378082Y0092638D01*
X0378156Y0092814D01*
X0378225Y0092991D01*
X0378291Y0093170D01*
X0378352Y0093350D01*
X0378408Y0093531D01*
X0378460Y0093714D01*
X0378508Y0093899D01*
X0378551Y0094084D01*
X0378590Y0094270D01*
X0378625Y0094457D01*
X0378654Y0094645D01*
X0378680Y0094834D01*
X0378700Y0095023D01*
X0378716Y0095213D01*
X0378728Y0095403D01*
X0378735Y0095593D01*
X0378737Y0095783D01*
X0378737Y0355626D01*
X0378735Y0355816D01*
X0378728Y0356006D01*
X0378716Y0356196D01*
X0378700Y0356386D01*
X0378680Y0356575D01*
X0378654Y0356764D01*
X0378625Y0356952D01*
X0378590Y0357139D01*
X0378551Y0357325D01*
X0378508Y0357510D01*
X0378460Y0357695D01*
X0378408Y0357878D01*
X0378352Y0358059D01*
X0378291Y0358239D01*
X0378225Y0358418D01*
X0378156Y0358595D01*
X0378082Y0358771D01*
X0378004Y0358944D01*
X0377921Y0359116D01*
X0377835Y0359285D01*
X0377745Y0359453D01*
X0377650Y0359618D01*
X0377552Y0359781D01*
X0377449Y0359941D01*
X0377343Y0360099D01*
X0377233Y0360254D01*
X0377120Y0360407D01*
X0377002Y0360557D01*
X0376881Y0360703D01*
X0376757Y0360847D01*
X0376629Y0360988D01*
X0376498Y0361126D01*
X0376363Y0361261D01*
X0376225Y0361392D01*
X0376084Y0361520D01*
X0375940Y0361644D01*
X0375794Y0361765D01*
X0375644Y0361883D01*
X0375491Y0361996D01*
X0375336Y0362106D01*
X0375178Y0362212D01*
X0375018Y0362315D01*
X0374855Y0362413D01*
X0374690Y0362508D01*
X0374522Y0362598D01*
X0374353Y0362684D01*
X0374181Y0362767D01*
X0374008Y0362845D01*
X0373832Y0362919D01*
X0373655Y0362988D01*
X0373476Y0363054D01*
X0373296Y0363115D01*
X0373115Y0363171D01*
X0372932Y0363223D01*
X0372747Y0363271D01*
X0372562Y0363314D01*
X0372376Y0363353D01*
X0372189Y0363388D01*
X0372001Y0363417D01*
X0371812Y0363443D01*
X0371623Y0363463D01*
X0371433Y0363479D01*
X0371243Y0363491D01*
X0371053Y0363498D01*
X0370863Y0363500D01*
X0032280Y0363500D01*
X0032090Y0363498D01*
X0031900Y0363491D01*
X0031710Y0363479D01*
X0031520Y0363463D01*
X0031331Y0363443D01*
X0031142Y0363417D01*
X0030954Y0363388D01*
X0030767Y0363353D01*
X0030581Y0363314D01*
X0030396Y0363271D01*
X0030211Y0363223D01*
X0030028Y0363171D01*
X0029847Y0363115D01*
X0029667Y0363054D01*
X0029488Y0362988D01*
X0029311Y0362919D01*
X0029135Y0362845D01*
X0028962Y0362767D01*
X0028790Y0362684D01*
X0028621Y0362598D01*
X0028453Y0362508D01*
X0028288Y0362413D01*
X0028125Y0362315D01*
X0027965Y0362212D01*
X0027807Y0362106D01*
X0027652Y0361996D01*
X0027499Y0361883D01*
X0027349Y0361765D01*
X0027203Y0361644D01*
X0027059Y0361520D01*
X0026918Y0361392D01*
X0026780Y0361261D01*
X0026645Y0361126D01*
X0026514Y0360988D01*
X0026386Y0360847D01*
X0026262Y0360703D01*
X0026141Y0360557D01*
X0026023Y0360407D01*
X0025910Y0360254D01*
X0025800Y0360099D01*
X0025694Y0359941D01*
X0025591Y0359781D01*
X0025493Y0359618D01*
X0025398Y0359453D01*
X0025308Y0359285D01*
X0025222Y0359116D01*
X0025139Y0358944D01*
X0025061Y0358771D01*
X0024987Y0358595D01*
X0024918Y0358418D01*
X0024852Y0358239D01*
X0024791Y0358059D01*
X0024735Y0357878D01*
X0024683Y0357695D01*
X0024635Y0357510D01*
X0024592Y0357325D01*
X0024553Y0357139D01*
X0024518Y0356952D01*
X0024489Y0356764D01*
X0024463Y0356575D01*
X0024443Y0356386D01*
X0024427Y0356196D01*
X0024415Y0356006D01*
X0024408Y0355816D01*
X0024406Y0355626D01*
X0024406Y0095783D01*
X0024408Y0095593D01*
X0024415Y0095403D01*
X0024427Y0095213D01*
X0024443Y0095023D01*
X0024463Y0094834D01*
X0024489Y0094645D01*
X0024518Y0094457D01*
X0024553Y0094270D01*
X0024592Y0094084D01*
X0024635Y0093899D01*
X0024683Y0093714D01*
X0024735Y0093531D01*
X0024791Y0093350D01*
X0024852Y0093170D01*
X0024918Y0092991D01*
X0024987Y0092814D01*
X0025061Y0092638D01*
X0025139Y0092465D01*
X0025222Y0092293D01*
X0025308Y0092124D01*
X0025398Y0091956D01*
X0025493Y0091791D01*
X0025591Y0091628D01*
X0025694Y0091468D01*
X0025800Y0091310D01*
X0025910Y0091155D01*
X0026023Y0091002D01*
X0026141Y0090852D01*
X0026262Y0090706D01*
X0026386Y0090562D01*
X0026514Y0090421D01*
X0026645Y0090283D01*
X0026780Y0090148D01*
X0026918Y0090017D01*
X0027059Y0089889D01*
X0027203Y0089765D01*
X0027349Y0089644D01*
X0027499Y0089526D01*
X0027652Y0089413D01*
X0027807Y0089303D01*
X0027965Y0089197D01*
X0028125Y0089094D01*
X0028288Y0088996D01*
X0028453Y0088901D01*
X0028621Y0088811D01*
X0028790Y0088725D01*
X0028962Y0088642D01*
X0029135Y0088564D01*
X0029311Y0088490D01*
X0029488Y0088421D01*
X0029667Y0088355D01*
X0029847Y0088294D01*
X0030028Y0088238D01*
X0030211Y0088186D01*
X0030396Y0088138D01*
X0030581Y0088095D01*
X0030767Y0088056D01*
X0030954Y0088021D01*
X0031142Y0087992D01*
X0031331Y0087966D01*
X0031520Y0087946D01*
X0031710Y0087930D01*
X0031900Y0087918D01*
X0032090Y0087911D01*
X0032280Y0087909D01*
M02*
